<mxfile host="Electron" agent="Mozilla/5.0 (X11; Linux x86_64) AppleWebKit/537.36 (KHTML, like Gecko) draw.io/26.2.2 Chrome/134.0.6998.178 Electron/35.1.2 Safari/537.36" version="26.2.2">
  <diagram id="C5RBs43oDa-KdzZeNtuy" name="Page-1">
    <mxGraphModel dx="1116" dy="641" grid="1" gridSize="10" guides="1" tooltips="1" connect="1" arrows="1" fold="1" page="1" pageScale="1" pageWidth="630" pageHeight="2110" math="0" shadow="0" adaptiveColors="auto">
      <root>
        <mxCell id="WIyWlLk6GJQsqaUBKTNV-0" />
        <mxCell id="WIyWlLk6GJQsqaUBKTNV-1" parent="WIyWlLk6GJQsqaUBKTNV-0" />
        <mxCell id="D_Lws9D7yIzfY4fm0dMO-5" value="" style="shape=image;aspect=fixed;image=data:image/png,iVBORw0KGgoAAAANSUhEUgAAAf8AAAavCAYAAACQ2OLHAAAACXBIWXMAAA7DAAAOwwHHb6hkAAAAGXRFWHRTb2Z0d2FyZQB3d3cuaW5rc2NhcGUub3Jnm+48GgAAAAt0RVh0QXV0aG9yAE5lc2gKc69bAAAAJHRFWHREZXNjcmlwdGlvbgBBIGNpdHlzY2FwZSwgd2l0aCBzdGFycy6fr0kfAAAAIXRFWHRDcmVhdGlvbiBUaW1lADIwMTItMDgtMjZUMjI6MTY6MTkZjqGrAAAARHRFWHRTb3VyY2UAaHR0cHM6Ly9vcGVuY2xpcGFydC5vcmcvZGV0YWlsLzE3MTkyNy9jaXR5LXNreS1ieS1uZXNoLTE3MTkyN4A01TcAAABYdEVYdENvcHlyaWdodABDQzAgUHVibGljIERvbWFpbiBEZWRpY2F0aW9uIGh0dHA6Ly9jcmVhdGl2ZWNvbW1vbnMub3JnL3B1YmxpY2RvbWFpbi96ZXJvLzEuMC/G4735AAAgAElEQVR4nOyd3ZrbuK5E6Xzz+Oedcy5me+J2/COJAFEFrnU1k7aAIiSxCEruvv3f//3f7/HE799//dPUz7L/XVXXruO+8rPIcVw5RrEmq/KvyF2Zf8W1pXreVe9R1XthRX6Vc/Lr7ZEAEMrtdquWkIrj+KI0q479k66zmleNMUoX5+QzmD9IoHqjdkJ1so8iUi9Gdy7/2c/fbje76/Fs7VX13sH8AeAUqkaTHWclbpo76VUdS/T9cMr8vz3TA7ijegNF0Wl81Wbu1gG+Q7UD/ISq5qgu++o4sq9Jha1/On+AUd9luhlgdf5IqmufvfWvqvdKrGpUr5Ur/475Q0uqzbwKN70rqZ64z1K9I1MVZ1V+Zb0rtGH+sBXVN/xZqvVWT6jV+c9SnT+S6sVH9WOi6kcP74jKj/kDLKTaHHbNv+pxTHYc8sfnr9b2jmxdmD8AlE+Aqt1cdP6oeKovuKnW5ernu+R/9e9/mf+VN/p///697LeEnT2mUteKbaMrN1ukrur8kXSqi2P+SF2K+a/ounLvK+Q/o+tbnqhY0fnP/OyeW+m80PmDNW4dK/nhLKrP3rvlf0e1rqz8mD9YoDoBOFI9lq6T6SyRuzWrqK5lZP4Vu0XV+R//HfMHWEz1hN0JR5OJzO9I9VgcTT7j+ks1f34jYB+qb9gr7D5hq0wyEVTnv0J1LSPfIVLWfDbWFVbVbGX3T+cPIET15BuJsmFU11nVMK6gWssrx+yk+bD5R3bx7AjsQfWkBGuo3kbdBcc677DIUeZT/en8AR7odINHHxNJdf4rVHeLV1DoMKPyXzlG+Zl89Y4V5g9bojxhR+I4zmrzicRxYXYFx3E6ar7CO82YP0ABnSYRZRyf+185prrDXXUM5ybuGMwfpFA2mMhtOmXQfD6Pcs2UO9zV323PzLMqVtSC9of5K7+Ip6xNlW4T0u4o12yXhdEqlGvTaQG06vpUXIDR+QOIoTyJrgKDic0Tmf8K1S/RXclzhcpO/mwezB9ao2wW1VAbz0XGKqiB5/VxVNu0+bMdD9U3QnV+BXbevvyWR/mZ7ypcdx867XJcPQdZ1zWdP9hQffMq4FoDxw4qkm4GdwXla0rh/Kx++RHzByhCeaKGa7A4i81Pnrw8mD9si8MN6oSrIVUbXzSudas+D8p5Mh7NYP4AG+NqcGdRf+5fbXyrcK1bdZ4MDpk/L/Xtg/PFvALXbqfbeXhHt6+BKcTrdu0ov/wYnefTMXT+AE1QmGxWxotklclXby13vEaqxxoda9UiFfMHMEPBLFexylyUcdT8iW7jGcNzASJl/jxeWEfHG/AdO411FcpdfDTKE7t6J6+qQXl35qqGs3WTMn+AMfYyEIinY62Vx6SwYHgHj6je85/503XDahRupHcoa7uKwoSmoOEdu3SWt9utnQbXXZPK7p/OH7ZG2XSUtSloUHjur9BZKphYNAr16VaHZzB/AIAvKC+CFDQoa1PQoLhgwPyhBco3flcNChPdO9DwXUP11v9VDdHb4dW7LVUaMH+Ak6hP6nAdhbqioacGtcdUmD9YoTAhOKPQrStrWBlrxde5MtjpHYzoWKt2Yo7ESjN/vj3QD2fjVdCuoOEKCrqVTU8d9a3/K8fx4t93Dd+OofMHgDGGr7kpo9CJXs3lej0o6HY471/NP7qDZ0dAn1VfHYI/MAHH5/qmQaHmbP1fPy76mJkuOkrDleOuaqDzB3iDq/GuRGEiU8BV90ocuuFIFHR/0oD5QxuYXD7/+9Gfq6KgW0HDFdgFWa/h6jGrdiAwfwCQQsFgVxqRwpbyFVYuGFy/EaCQ692/Y/4giYIBXIGuuwZ2QTxwOB/qi64ofo2h/xKeuj5l1C9KdX3vcNX9jZUdlmsN1XWzA/Fdg8JjkIxdgTO66fwBxHE1GziOwjP3K6jrW4nC+wdnwPxhG9QnKnV9K1EwQ4UX0K7kUiej61a4Xq5QWYvL5v/79++32/Fn//3bz65quKKjmk8n7srPruT6piNSwycUanG1RjNbjhG57v++aiJ1qMUVDQq1uHIeo2sRqWFWx5VjqMXf//7R/JVNErxQX4GrQJ3+oF4LdX0riV7grWRV05KR6wp3Db/UDV5dnwMKF9wn0OdDdAe9kpXaXR9PzPzsCuraVc5jZPd/h2f+AEkoGN4n1PV1RcVQ1FHXrr7Y/cTtxq/3BXEcbqKOqI9LpXONRr3rvhoP7fO5ort/zB+2Qn3y/wSGp4fKOVExqJW5MrbCz+J8/i+ZP8/h4R3qk/UnnLU7oF5f50XIJ5y1r8TZyK/Ee2v+GDzAH1Q6BgVUtF/NRX3nc0V33SrjikZ5XGz7Axih3mWo4DAuB40KqCwaoqnOhflDS1QmVhUdV1CZdKsnyZljVLSrnMuM41ahUsMoHeHmz+OC/qjfpPA3KudMRccVHIxcXUfGwmDlI4iVi8NsHXT+YIuzkUAtKtcOOn6iouMKKtqP6sD8ASZxu+mzce5M0YGObz/rogPzh2XsaE6fcJ8gVXTsMFE76ojO11nHyscadzB/gAdUFgafUNGoouMqKvrRsQcq9b3rwPxBApUb4xPubzGjA1Zew1065MiY0T+bGRvmD/J0NovOY1NApb6rTWYlKm+zf0JFhwq3m8gf9uHrgXV0vbjH2POmVsHd7FabxUqzW6mjMyrXwVUdp80fo4ZvMIHU4WK6mF0dStfIyq1ule5f5VqV6PwBwBOHhYEKLqYbTdfzqcSVa+Sl+Wd09+wY+MHEfpzVtVIyEnWUarWy+1QadzQq50ZpF+LsuOn8AQACUTFIFxy23FfHjOaVRswf4AmXLl4dlzq6nxuVXQj390YyYip3/5g/WLN6cnYwgwxcjNwBh63/1awct8siMXshgvkDNIMF0Rp2Xbx8gmvvb1QXzrbmzwuEf+NwI6yGmvzNjqZ1u91kvuqVEVNl6/9qrqsxM+LtUhNb8weYxcHoHDSuZsfFywyrDSaD1QsD95oc0S9t/nT3cbhfzPA3DvWi446N6XLOr/zsyM+jjpkh42XIim88SJs/wB33Se/bzzuML+vYVbh3l90XIqtf/Os+PswfAKZxMPcZ3MenZnTROOhXWzxj/gAN2XkXooPRKZ0f9447415weZT1Sf8p8+cZPBzFYYL9hLt+J9xrrdbRrcRhIbIy3iwrFw5/mT8GD9mo3XBncZrwqHVcvq4vox39eaSWbz932G1w7/7Z9of2uBvgJ5Qmmcxjo1HS8g53c7kaL/NY93yR5wHzh61RurHdoZbX6DKOVyhdEw6LopWEmj+PDPZB/cJ2pPtE+Qn3Z7lKtfyE2suQSnVbudOS9UjkzAuKdP5gj9LkCvG4mEAGLlpWo6TFFcwfIBDFSUlJU2ctSs+xFTpLtGhrwfwBDOhsmjModcafQAtcIXNRiPkDvMFlklTSqaRlBqVxsMA5j8tXHit3i36Y/9UX9n7//v3x2Ks/u4qSlnd0+BrP7fb5D1JcyXk13zctGVtoKlq+/ewTGef+6uSace4zJvoZLSrXaEa+WS0Z18WV4z4dm3HuM87TkXx0/gDQmoyF0e6srinnMJ7D5j+zK7DyOHiPy43HDfsel3PR5dwrjV/pZ59QO4dX6X4O6fwBklAyjozjsnAZP/XubY6fqHhWH30c5g8AAC/pssC5iopRZxyH+QOM9ZMVk6PHcVm4dLgVKO0oXM2XReQYMX+ACXaYVHfHyRyu4rIYc6rpJxQWapbmz8uA7+lyc2RAbd6j1hllnKsuY3TZpVKrjdLPZojSU2r+mLgOXYxxtWlUoKbnKqsneCcqarPDgusqXRYOj1h2/gAusC2qBecjHqcxVhvuCo6O4z/zpwuH1XS52a6iNv7dDW737e2r+WZw7ZqjclaeRzp/sKOL2VRA5+tDl9o5jUNt4ZSZE/MHOIDTBOZERefHuXyPWrfttDPgsrC+H3fI/HkkAFfptlqOPK4q52q6aFVbjFSY3w4vaVZ0/xUvFNL5AwCI0uX5dRZOWtXA/GErdpig1Dq7zLjRx83gZChqWp2etVfsAGX8DPMH2AwnQ82Cxcj6uJ2un6so1QDzB4BS1MxEzagrnt/v0G1XdOLfWDlOzB8AIAi1BYmbni7jXB3zSlzMH6AYpa3AMXQmp9njsuKiJ+e4rLjfumK1bzCs2pGZNn++BghqN3sWnfQ4TXhXj6vQ8y1mp2vICbVxKsyZdP7Qki43u1r3Bf1Qu1bUrnmn9x/OxPw1Bt071MHEA7Oo1d7lha9uembodN8f1UTnD5YoTiDwHbUdkE4G1omKx0Bdvm1wNCbmD9CUrJeZMo6bPRbmqLhOOnXbWWTW6Kv5VzwS4DFEHmrfYYZ/cTLbnc6n046D2k6F4nXCI5A/x6V2/ph4HxRvZIAIOpmbGm6LDsVzmlUHtv1hS5wmFsUJaYbVz3NV66d2PTh2r6vJ6v4rHrtg/gDNyfrOegaKRt1loahomN9+rvaiXSarx4r5Q1vcugo1qN9+cM7/ZYc6YP4AQTjd+HcUNau9ZDeTM+t4py36Wbq9aHf1M9F57cyflwi/ozihw3d2Om87dFazKI61YmFWhdOjlytxy8wfE9ej0w24E4odmRp3rRUvVimyyy5IxnGzx84QudNh1/kDOMPEqkunc6P44t8Mu5ybmZxnj/1FBw7VOE5GkMtOi45PKI6n27lxG0+UXjp/sEVxVe+I+ySmnlf1enHb+q968a9r94/5AwD8D1WjvkKnsWTjtrCL0PvR/HkkAFE43yQrjqvOexUM5l8UO95Zduq0Z3D9BgSdP8BidllYKOvNmFgxmHwUFztXY84eP/szzB8Aythlp6Oq4808fpdzlxm7cvH11vy/bfn//v3742cyfvYNRU1ZK7esF0IcNVGL+bzfjr2a17UWM5qoxZ+cV2uRVePZvJ+o0nQl7+3GH/YBExS3Jzt2MFlUPY/9hJumqmOrHh3MLsIyyNSUNZ53x6aYPy8K9sXReBRxNBdFdqsj5y8/r+LjgYy4dP7QHsUJRpVu3XAVjnVc3Xm6Hpu5E7Jy5wDzh2U4TuJVUKvjKJrWTGzHc6+6oFFERfMl8599KQ+0UZ0wK+g2nkwUn9F+w/FaV6zjN3Z7p8Ch+6fzh+1RnTA/oTiZZqJotI7HOhrezLGOmlcdi/kDABTAIkyfzotOzB9kcJxYHLe6v7Gb5m5b/7PHdttmdxzvbOwjx2L+ALCMbgsLVRwXJZlUPVaYIXtx8NL8VV/KU9WlSMebsCOOZvgJ1cmwCtWOVfXYbkY7ew4zv8lC5w8t6PiS2ww71kNx67cSVYPPouNiaYZveTF/AFNUJ5WOOHakmXT8HQiqi4OsemD+YEPHCUeVjrVWXSw5ms4Mrue4W60xf4BkVE3HMa9r7N1QPU+qumZiX82L+QMIozpZuepSfes788WumZ9XHdtR12zu6LinzZ837uEbHTuoqol/FtVzoaprBsfFQWZs5TfdZ35+9djb7VYW+9XP6PyhDR0NpZId69lxzCwuY4/vUk8p82dXYR2qN20mHcesOiblybfj445MHLvszGOVY5+5b6TMHwB86GhWyqguiDLpqKvyvYJHMH+QQvVmn6VyXKpfY+x4rjOf+c6g2o0e+fnVY1V1zRLV/f9l/my9Qzaqk76qEarqqkT5scIMlYbTsSaZuVVfhjwKnT8ASNJ14eGa+xOqNVHVVZn7/jPMHyAA1Ru9Mreqrurcrlv/7p3uu7jKXznMvL8wf7BCeVKH86iez2xdLJrW5e44ptnct1vCX/XjnYH+YILXUJ4IHFGtZ2Vu5UWL6ktwR35eeWzW+abzh3ZgdFq5lSfWLFRrNms22XRcXFTW/FPcpebProAPribpTMeaq49JtYtWpuPiegztdzEyan7K/DFvOIryjZR5/I5Ubl1mo6p7dmdA+f6sesFu9ni37p9tf4AG7LrocdWdDddDzfGZRC+KMH+ATVCe2D7R+bl/5TPuqvcK6P6vx4/MjfmDHMompbq1F4Hr829VE6ymcxf8iUqDn409e/yZe/iH+Ss/01fWporyzausTRXlmrkvfD6hvntQhetCWFnbytx0/rAdrhPqzrjWpXKrd8XxmXm/LS5cX8ZU6f4xf2iJq1lks2Nd1Du9alwf92Tn7V4XzB/sYKI+/7Ps3NXxK7VF5FZ9wW0mfnZdlHHo/jF/gCeUTS6bzmNX7jJnYijHV3vD/Wxe5W9jzMbH/GFLlA3YFYeFg+pz4kwczkvn+DN5MxdGmD9AIA5bnTuanMPCYcfzcuYzV46tPu/K9/Jh8+erdnCWnSczuEbX2labkEJ8RRwWbVkLo//Mf9bcf//+/THGt/gz+Y/kntGWyezXWTKfx2Xmno1fPdnN1iYrvsJ5qRp7RH5lbUfyz+T+RvV5mb0nMjv4TG1H4l85lm1/sKV6y82ZzMnOHefaZGuv/nkm1dqzF0fPYP4ADXE3Z3f9mSgbaDXKtak+L8/5MX+AiyhPNNWo10bZBKqfISvrc69N9c8fwfwB3lBtUPCeaoOaRV3fDO7npjOPtQ8xf74JsC/cyNdR6gIq4ivjXvvqn2dSPTb3n99Z0vlnvukPcyjf5JBL9bmtvvbUx+9MtcFVL26qr+0juX+NoW++6vqUUZ9glG8SmINzB12pXphGzJuHOn/MF65SbQDViwv1/M6od2/q+buPb5bO8W83fr0vAMBb3A2gkuqxqS9equNj/gDCqE8w1flnqTaob1R37+4/n6X6+sisD+YP8IHqyced6sm5e/4IHDRe5cj5mTmH346PuD6yzg/mD9Z0nriioEafqTbw7ufHvftX52p9MH+AZHafvHaf/KsfjVTnryZC3+zuwLdjK2qM+QNsTrW5uNNh/NVjqF4gVo9/livjw/yhPe43vrv+MTR+qcnMZ6q3/qvP8QpzrR7jLDPd/5HPRF8jmD/ABqhPrO6dW7W+Hcy3uvvPfnwSoeHMAgTzBwAQoHoB8Y1q8+yAUg1+qf/e/er8Hai+4NwnjRVdlfsY1TvLiJequp/DqBgzVJ8jhWtgVfdP5w8AALAJ9wUA5g8AYwz/zpXdh3oUzlFEjWe/ujfz81U5MH+AoT/pKkyqO+BuzgrGE8Hsm/PZdLhOMH/YguqbbQdYgKzBwVhmfq5Ctc7sBQbmD/ZU36RRqI9DQV+HHZBqc+zw+EFBv8L2/wyYP0AA1TfyUdwndQUN6pO6ArPP1Y/GyPz50c9kk/X+AeYPAFIoTLjVKHS23+A8eZ+nafPne/jAJLAG5YnkjAaF6wUN+deTylvt3TVczZ/e+bM48Kd6kgJ4RGER9A0FDaBxraguHsq3/Vkc1KMwUSncpN9Q0ABrULgeFZ5pd9BwhB01fDR/jBmiUDDOXSb0bA0ROGhYARryURifoobyzh8AwBGHhZqLBnYg1mvA/AEaodAxd9Gg0K2tQmGsChoyWTW+oy8HYv4AQXSfvDrisJCBf+nQ/a/QcBTMH1rABHqODlucCjjUyUmDwzlfQWa97z97a/687AeQg8Jk3oFOdVIYS3YOl0WIQvefze3GH/YBgAQUJrijOEzWCuxUJ4WxZC8yMH/Yig6r9m84aLyzQ70VuvaobXeHsfAY5BiYPwBcwsGYnVAw3lk6jOGOg9aZemP+0AaHm1WJDhN1p453lk61mM1B9/+dl+Z/5GW/379/f/zct58fyXPk5ytyzLJiG6s6x1ENMzEictw/M/vzd5+5/6y63pE6rupUq8U3Zt+gphbnNGTW+4yObxoyc6yoxbuf0/kDAABsBuYPAOk4bMNG5IigSy061XvFFv/qGJg/QBI7TY5wnJ3Ou8I90On6jRwL5g9bstOE0QUXo1jV5TnkiEClFtnvaxzV8Y2jOS6ZP7/9D97hMhmooDQZZOZQ0uGQ4wguY1Uw3qgYszkiYkSNlc4fAGBTVAzPhU71wvyhJS5dkQsqY1XprGZzoGN9jk4xIs4r5g+QCIuQnqjUXEVHBCwQ1sbA/AE2QGViRYemDoccR1Cpl0OMv8x/1ct8K36zHvxE5Q13dKDDQcc3OulQeaGOGOti0PkDAABsBuYPAEtR2YZW2XJHR18dyjEwf4BkXMxulQ44j8qjEBUd31DREUVG3TF/aAtm54uKyazSoXKtuuhQ6v5ntR6JcYSzOk6bPy/iwTdUJhAnMLt4nMwuIs5u18iKLfWjn4lg9SMCOn8AAPgPpwVRBCrfllgN5g9b43jTzuA0saucG5VOVynHqq57hY6IPFGs7P4xf4AFOE3su+F0blQWRKtQMd2IGGoLEcwfAH7gNomtyOFUE5Wu/Agq443IExVjVU1+mH/Uy3wrfnsfLx7+DZNpXpwVOZxqoqLVrSarDCQixqq32Fe/6Eaef6HzBwAA2AzMHwDK6LQLEYVKZx+VJwKlmnTp/jF/gEVgdDAGpluZx43M+x3zh+3Z7Q1qN7oZ3ZHP7Wi6SjWJeN8hQksE7/KcMn9esoOjOHW5SlRPCJExoowwSouS0UXQzXQjtDiYbnScq2Om8wcAgCmUFkVRKC2KMsD8oT1KXa4TSu8PKHVRsznQkovSvbhyx+NsDMwfYCEsRPxRqq+SliiUFiJOWs6C+QNsysqFiNMkuqsWlzxHWKnF7d2XO/+Zv9LLfEpauqHUNe46WXwDLa9By2tWPhJZ8ULeai0rXiJcuRg8GoPOHwAAYDMwfwBYgtIWN1ryckXlWKllx+4f8wdYzK7P2uE6To/rVJ9xdyJiXJg/bAETTQ+UahypZdeOO+pzETh1/xExDps/L+HBWTDc6yh15CtNTmmLW+kcHInlZpRHPxfxYp/SvaCy/U/nDwAAP+i6qP6G2oIvE8wf4H+43LRnocO9zkotSi+4nYl19ednP5cdY2Uuhe4f8wcowG3C64rS8+2IWF2vCSXDXRXjaKyruTB/APiKa4e7IpZabRw78l0MNzrGTK5fY8S9zPf79++Psb79/KiWo5+JyLWKqJdWol6g+fSZ1S/QONZm1bhW54rQcgSl2kToUbwulLSsyhV9Hma0nNETMa7nn9P5A4AkXbewO7JqkaWG45juen4pdb+wJ7tOHI50PVddx/WNqB2Claw8V10/M8bBzp8FAlxFbeJYiaNZqOn5Rtcaqy1G0Dz/mSOsfEzFtj9shdrNvpKumruOC97jWD81zWHmz+7AfqhdzF1RM8CuCyi1cal1rnym12fo/AGgPWoLDYBqMH+AYtSMSa1r76qHHQI+U/kZzB8gEUdjX4mjaa9ktR4WLft8BvMHgBTUjHQMPU1qekCLzOsD84ftUNu2PYKantV07UiPoKbnCEdzKXTAyp85wtVcmD+0orMBrkRt8uqMo3Hvfs5WklXrr+bPV/hgFrWV8mrUxuZaxyi6jt/1OlPrttU+c+Rzt9v539RI5w9b0tUA1Iiss9puxMrJ/UysCFiw6y0AInjMhflDO1wnnG+oTSRHUdStWKed6Wq2R6kYW4j5R/0ZXtDC9UaC7yh2tmo4ms1RPYpmq3aNKI4/4jP3n0t1/iwQ1qF2owHsjuNiYzWuhqzG7Wb4h31YIHzH8WJURHES6XxumdjXQve/DsV5ws78AWAdTOzfUVyQdK31GJoLEsd8mD9AM3Y3YzgO3f++YP7Qkt27I1cUjUbx64q7m21kjVzPyexnMH+QAcMGV7pfu67mtxon3R/Nn5frIAqVC74S1+e53Sd11/MSibP2T3Bdvv8MnT/ABxQnhSN03vIdw/e8jKG59X8E1+5fMZ+CJswfAGAxigsT5wVVZ7JqjvkDNEZxslY0GTrtOHjRruZa+Rbv+edvzZ/n/bADnc1R0YgiUdQEkEHGdUznD21RnPjRBHei6u7a+a7Od0bT2S569jOrxvj4c8wfoDmK5q7YtbvuuESjOEbXc1NxnR9dAGD+AF9QNCr4F/dzo6xtd1wXn0fB/EEK98ncFdUuJhI6zOOaoraYnbf/j6BY9yOfud0M/6of+KJsDCtRnMQqoA7/ssMYj6A4xs7nBvOH7el8g9/ZYYyfOPNilSs7nGPnXZCV+Y58Ztr8+UogKE8oytocwWBiP5MVb1W+ijq4orYAWNL5s0DwpfPNCPWw9Q9ncf2a3dHPrOKl+VeY9ZGcLCKOo3ohKl380az+yk5Gzh1YWTPlN8ZVTY9r+l+ya88zf4ACVBdeTLz/ovj97MjPuLNL9595LjF/ADiF6vNulUnVCWfTUz2Hq2txNR/mDzC8JxvIwdn0OiyEXN+yr+CKdswf2qN6wzpDTfdil0cSO+2E/GX+R1+q+/37d9hLepEv8qnqUr15InUd1XZktR7xmbNEdRpHtUWNM7L2Z+JF1yJCV0UtznyGWqyvxZl8Z3LO6jqrLboWdP5gjXonsZKKWqjWn1r8QVXXUSL1q8aqyIn5gyyqk5aqrqOoTlqquiqI7FIrcu6iPypfRc5U8+d7+X1QnSSP4m4s7vojUZ1Mj37OXX8FqjWL3LI/kzMiFp0/QDGqE+4uuC+sVPUrLzjc77kI/ZfMn44e3sFNVYtqh3T0cxhGHsrXRmQs1ZxquwR0/gAgBSZ7PlYFqouE6JzK5+AI7/Rj/gAX2H3icIHzlPu51TmVz6fyOF997of5K2/nK2tTRXlCU9ZWwS5dIN3i+c/tYnhHPxd9Dameg2htz9D5wzYom2cFyvVQNrIKqMd5ovV3W7hi/mCP+yR1hoodAvf6qtdjdX2PdpRn4q3+3C6POY5+7souAeYP0iiskCGWXepbsUhwX5icgblhDswfIJlOE8YnlM1O+bl5NMrdbkW8nXYmzmg7bf68eAff6DCBHkF5wlPOGZ1X2ew6LE6qFgnKJluRM3oBUN75s5ioZxez3okOC5MqOoxV2eyicV8QZcQ7Qrn5A6xkp4m9AvVJUdnsqrr/iq/XZXw2KlbV1xJX73Rg/gALUO5OlBcTR1Eeg7K2aLp0/x0Wid/4z/zZfofVKE+KTGK5sTLiReZV1pYRq6L7V380ofztightdP7QAuWFxIeK2bkAACAASURBVG4oT4jRKG/VV+Xtsq0fmVexJpg/wAQdOkR4zW7nVvma6lATtQVgmvnzGKEfHW7AjHgd8iprO/O5iryKXV0mHWqi/CJexudeQecPAIdR7g7VUTbrK59djbK2MbSblFexTpk/3TwcRf1GVcbBJCJjdcgbjfJ7DkfzZpyLii787GdX5706Xjp/aIP6m7zRdDG6o2B01+lidNGxznzrIDpvZMwreTF/ADhFh4VEBupGFw155z4Xzdm8v8bQ385X16eM+kStru8InTrwnbq+M59VP29H6HQ+qvJ20Hf/DJ0/gCDqZqOuz4HdHj1FxtyxLtFg/tAOhxuvApftyIhYDt1mJDvWpdO7GKtfZLzdBP6qH8AR1CfVKqom1YyY1Hour7qxV29zq+atWgBg/rAtLCjycVmcRNJpzOq1Pkqn+kXFxPwBAlC+ybNiqhuD+pZvZswj+Xbq/s9w9Ot/6tfCt1iHzT/jjXve4tdB/UJWztkR9S1udTrVr8vCyOWcrNr+p/MHMKeLYZ5B3WgqUf/qqcu567Dw+ATmDy1Rn8jV9R1FcVLLiqUQU717Vd/Wr+zCo/Me/dy7z/xS33pX1+eAutGgby3dxqNKZZ3Vz3HlewcZqD/SepWbzh+2xmWS7JK76itcR1HvwCtzq+s7+rmM7j8jVvSLh8+fw/wBguhm1A65j5DRZZ7NXQGPPOJiVS6OshbCmD/Y0G0i3RX186iuzyF3l3F0y/34mRTz5zl9XzDBONQnimow6vncTt3/6vN9dkdIfefh6Ofun6Hzh7Y4GNwRHExGHacaOmldFSs7d5dxn+GQ+R/t5H///n3os0c/d4bK3JEcWQHfPxN9kZ1ZXUavljNyHyUy99lzE72iJ3dszOjPVWrcNfdsvszcZ+oTnZvOH2B4dCkOGl1yVy1eM3CoT2XujLF0qI+0+St36G44bEU5aIQ4ON+f6VYfhwWSg8aomNLmDzBLt5s5GpcXwipzd3t0VRmzMveuOwrvPov5AxjhsKDIoNsi5SgOGs/gch6rFmcrY341f7be90LxIlXDoUYOGrNiVuKw61HdiUbnroxZ9ZJrREw6f4BEuplBdO6MmN3MjfMTGzM695nPKo0H8wf4H926UKjBxVijc1dTufjIIPucY/5gicuElEHl5OViLsTUz+2gMyOmyo4C5g/tcVkoOHQZ1bgYQQZcH99xuT4UFh+YP0ix8yTTDZft1TO4bC07fO3wzGerDbijTswfIJlqY3N4GSkDFwM+89nq7r96oRL5uazPuujE/AEe6Ghs3dh57Gfo9m5IVv7qBVXGZ4/w0fwzvuPP7w3Qp7oL2hmXOlV3Nxk4dN9O+Z12Prp19Uc+R+cPW1A9YbrQbeFXfd47Ln5c8juNp+K+CzN/Ovr9qL65nKiuVbf83caTld+lU87InfXZLjWl8wdbXCZg8vvEJL9HfhcDPqtzZf635k8nD1BDR1PPyO+ik/y1+V10rs4v2/mz+Iin+iI8SrXO6vxZVI+rOv9RqnW6dN8K+V1ePlTML2v+AN2oNpUMXMaU9R31M/md4lbndxlX9fhn8mP+sA3VE0oG1ZNPFh2eqa6MGx2zOn9G3OpzpTZ+zB+WUW0oGVTf0CpxK/NXj+kobufUZfv7zGedFgBndquufA7zBwBJqk2tKl523AyowXGqa3X/XIj583LevnS8Oceov0EVqO6mqsm8BqoWIPfPuTx+yIhb3f2fJWu3hM4frHExkkyoQf3EW51fAWpQvwA5E++l+dPJQxbVN3J1/jMwmXrVoLqubt1/5TmoNt9MDUc/R+cPklRPpGdw0pqFwmSaRfUCRKFW1aaa+fJf9Ut9Z4jUgPkDLEZhMj9KZ60dx0YNNHA4D5g/wBuYbDRQ0OpkvtXdt1MNMh+BVGv49rml5s+7BD4oTLjghcKkfxYFDUdx0pqFQg0UNBzlk1Y6f9iOLjcvGq5/LhOFRZBj96+gIZrq8/Dps5g/yKIwkWehMDY0nNOQqbWjBqdze/bzLi/1ffos5g/2OE4yaEADGq5/3nFsahr+Mn+ey0M27jfNahS0omEPDQrmW70D4fYI4qoGOn+ADyhM9t1RqDEa8lAYl4KGs2RrljR/dh/ycLwJuqJwLhRecsrAqTNV09B9fFUazuwoZMV+/Iyk+QPANRQmw0wYn0bMs7EVFiEKGq7oiD5/93iYP0AhCoajQNc6KBivWuxKXGuWsRDC/GFbslbUGbjGzsCt08vSUB3zbGzOR27Ms7Exf5DGzZjgXzhvf1CY6NViV8Ii5F/+efyfMy/auX02O/YRbrfb4bhHP/t4QWTF/vbZTA1HP/t8Y2TFrqzFlfNxVEfGuT5bi6MaznxW4Xxc0dG1Fq7X5v2YTrWg8wcLunYhdzJfGFJAYXxZGlTOh8L4VDpft89W6MD8AZJQMYXOONZYxUwVcBxfl/P3n/nz3XpYjfKN0QmVziYLhfFVf33rSlyFz6ro2HHH4lLnz0IB3qFiCFl0H18mKpNxFgqGrkJ3zR0WC2z7Q0tUbuQzdNesgkqdVTrCM2+yKyxwuu9CrNKB+QMkomKOGN510HGNs4sFhQVOto4zZOvA/AFgOxTMcQxPHTsscLovAMbA/AFscTSOTHbQ0d0c0bEm9u3Gr/cFI5jc16EyRnSsAx0/UdGRxa8xct/e55sB/rhOfEzuP1HRsQMq15NCl4kOTR2nO3/MHL6ByeyHwmSmpOMsO9wzKucGHf/Ctj+AMRjSnjiZDLyn8txImT+7Cuvgpl2LyoS6w3lXMbtMHUqo1MRRxxWitEiZP0AlSje4I84TahYqNXFeiDjWJPP3EERpsTV/dgn+RumGVYGa/M0OpnsWavI3KqarhMriIgJb84c9cZ44zsBkuu6zauxQk7PdrlLXfQal3YVnMH+ARShNvjCHq+mehXHOfTabGd2/2D6HapRupl1Q6LqyUd92/YTr+VHudF20rKrhqc6fhQIcRWkiPYPSRHoGJS1nUaq5igGcJXOrW017xmfVtKxYALDtD+1xNUZ090PJdM+wg241shcMmD/AQpQmI6UJXaXjOourliufz+TMboRSHc/qVtkBuN34wz4AAD9QMxcVlHQrbf9nk6UF8wdowg4T1hWUtNzJ0nSlU1TadUHLuviYP9ixU1fhPtYzuNZ9RV3U9GR8Njs+Wn6Sav58O6APShOKYnzwQOk6QMveVM95h80fI4ezMKHsjUJ3o6jlKq7jRUsckS8Asu0P0Ai1yefqMSooGQvEoLQAuH+2YoEhY/7sLKyHiacO524iO0eH8WahtBhx1bICpQXAu8/KmD+AEs4TjxKqRu5qcmoo1UZJy4ocs5+1NH92Cd7jPJFkQ23eo7bYUdOjhJrJKaHUcavxrN3S/AGcb8IrqE1QmErMZ2eOycS5474S23W8M7sRmD9AEc4Tfgecx6u2GMyG8cZ89hHMH2TocNOqoVZTpQ4rE7UO9wpKb7ifRanjVn0v5ZD584wdrqI2oZ1B7QZXiLs6RzZqCww1AzpDh+ftavXP1EPnD1vhbFhqE8gKdtGuyo6GewbnBQDmD9AUVfNR07WLoaiZz1VWvHC3wznA/AGMUDNO8ETtOlLTk4nKWDF/gGKcuyWlTubsZ1fkUNaz45jP0H3HA/MHWxxvONiPHa9TNcNFz9/88y3A2Tf9sz9/BSVNt9vtcPz7ycvWczTH48V0RlPmmK/UKDOHYo2u4DxmNT1XNa26F7LGoHYelPWc0RQ1ZrvOn68dfocO1JOz5y3784qo1UixpopjUDsPap9fkeP583bmD+CCojGosWONdjTnDnSrEeYPLVCcIBVR7HjU6NjlZaA2hh3P25XP34/B/EESxclLkR3H0MEIrxyj9vkrqI3h0Qwzcyh9/n7MR/Pn+TpE0cGkVtChTozBF8UFw1kUNZ1lxSKGzh/aoHjTd9C0Y0d4hQ7d/4ocjEHjGMwfALZAccEAx1BcvKkuAI7y1vzZ8odqOtzwV0BTXo4OE3wXTbuO+yxZOej8AZJR7CDRdJwOCx8l01mZA03vwfwBYCsUFxmKmnZmhwVAqPnzqGAfmKy0UJhMZj+/KscKFMeuqGlFjiuPGK7myfx8dA46f1iG6kStyM61cptEAZR5d+2Wmj87BTp0mdxUjaBLfeE4iteioqb7MWeOW/HC4JVjFDW9O4bOH6TBaHPZdct1VY4VdHnTfkUexevk6vmY1fXS/FU7clVdinSZqHamizmNoa0tExavPVBcZMxC5w+wCCb1XBS7ulWsGnv21vz9OKXPr8yzcuyYP8AFVE3gCp0mzy7sPPYrdLq2Vi0AMH9oSafJ4AyrxtGlXmPQaSqOX7FrXpVjRZ7b7ctf9QOAWHZdlNxRNJorqOpahaLRXkF18bMiD+YPAO3M6SxdFg2rjGYVqoss1fNy5vOYP8jTZWJSZ/eJ9ixddF09roMBrjxGbfx/mT9fp4NsVE2ziy7VcdxR1adqzqr16saqxwwrOJKHzh/aojppqurqhNIkG3Gce5d59fMOeVxfzMT8ARqz+2R+lpULs13Pzf3zXcZ/5RiFcxNm/jwu2A86WF04NwD9XoCMhM4fYAKFFXw1qjVQ1bUyl2oNVnX/M3Q/N2Xmz06BHsoGs4pONXCYYKEP1WYW9fkZVBdBrz5P5w8WsH0HY2h3V93Mz8E0sz4/c5zLAuCH+St348raVFE2PmVtq+jYwWTnWUknbaoLk5W5lBcAV4+b+TydP8AGKBtZNlc7q5lcq45ThEXqWq7WAPMHeKJTt+MA9b6Wq6PxdVqgzeRZcS2EmD9b8vviYEYOGhVRNkqYQ3WhsTpXNsoLJzp/gE3oNEnOfH5n41M2o5ljlXdBVHcASsyfnQKAPyhP4GdR1jaD8jla+XZ5x4XQijEp1oHOH2xQNhZlbY8om9hZVk6oK1FeOHSl031xlP/Mn24cVqM8yXW4ud1Qr7nyNaTYWV79/Mpcqx8HrXzZ8NsxdP4Ahigbi/JkH3VsNqu17bwAWJ1L5X0DzB9AAGUzhz90MyKYx/XexfwBQAplg+0M3f+fY3eoxT9jXHvev+oYh1xnud1up/I8nryz+lbkUtc3m+tKHc4c93g8tfhzPLXwqTu18KnF/Zhf6i/6qetzQL27QV9NriuoPK+MpqO+lbkcrotVuVz0se0PW6E+ia5EXd8YPU356lvfHY2oay4HfZfMn24c3uFgKB1xqLu6RnV9V2FcNbnUFwB0/gAHUJ9oVuZyMBP1Gl49Tn1cM7WgK5/PdeY4zB8gEQejvIK6CTnkuoqDCanDNYX5gzGqN1UVDvXoOumuNNerOOTqurBRfDcE8wcJuk5MV3HI5TDpXoF6xORyqIeiKUccd0Qj5g+QjENH3pXOtVc3oNXHdV7UZ2g8bf686Q/fcJhwHTReQWlyic7XeZLuPLarqC8AHK6RT8cs6/xZNPjR1SBdcKi/g8arOIzN3YDcca4/2/4AC3CYALtqnBlX145w9XEuudTHdvW4V8dg/mCNw1bkalxqsnqrm6312nzVZqeYr7ImmD9sC0Zen+8K1ORvXMzuKp0XAFeZ1Sht/rwnEEf3CcyB7uO7gsOEuTpX510DJ0Nele++K7Uy3xji5g8AHjgYz8yxTuNTz9d9Eewwvtvt5B/2oROHozjcAFdxmJjvx2B0cXSvZffO+goOx10dH50/bI3T5Kycyy2fw3mo2P5fvfXs8nJdx28dYP5gj0vn6ISTka+EumhAXV5zpi6YP4ABLl3ualzq4rRocNj+v3qcW10yc2L+IIWLUbnoXI2LGc/gYiAuOmeOddBZcV0fyYn5w/Y4dWUrc2LGsbjonIEFQE6+jJyHzX/mTX++JeDLDhOWCy71dDGAmWMVJ/OoY2aPdcm5+qXDmW8dzOR8B50/ALzFZZcC3uO2gOf8x/Kunpg/tMBtknLqqlxQ6qpUc16hc21mu3/nXSPMHwDCqZj8d8Fl0VCBy4JcYREna/68JxCPywSgcGN0xWWiqsClw63I5fKMe+a41TmrdcqaP8BZZrbwKqiY3FYyez5czJicOcdV5tzhscMh86cLh6u4GFUVLvVx6nB3wWXRMEv3a6eiabndTv5hHwD4iePE5KTZxeCcTJUdGXKOwbY/wH84maILjzXtXl+64s841sdpAXD2OMwfWtJ9UnSc1K7iUp9Zuj/fnqXqHRmn6+/McZg/SNLdvHele60cFx1X884e4/LS4dXjI3Jm5sX8AeAwTubtasRX2Emr07dklBdzX82fN/1hFpfvMkccvzIvY83H6bw4dbcVLx3OHHc/ttP1kN75s3jwx6mreMRVN8ThtGiIPH5lXlVz60TGWNn2B1l2urmrqOrCOz5DVcBp0RBxvMti5eq1l5kX8wcIwNUQr+KU1/XcOG3/u+Xd6cXDd8dh/gBPOHV6zjgtIKrYrUZV7wftsAB4RtL8eU8gD6eJL4LdxnuFHZ65unb/V3Eeb5URd18APD8C+OfdB2cN+OrxM3mrjr3C/SSczft48q5qvt1ul/OuzBmR9ypX8j7fkKvGG3VNXDm+4rqougcec6+8Lq6Ot3quIO/x484e+3j81eNSOn869744dzI74Hh+djt2hqqvuHGs7rFXXyaU3PaHnrhNmJV50bwmb4Xm2Te/WQCsObZ7nTF/gA847jigeQ27ad7t2Bkcxov5AySym0FU4TDZcizHKh370vx5Zg9ZOBpLFY61cuzSKnEcM910j2Pp/GELHCfZGXYb7xjaE20GlZqdvuLmfmxWrTF/sMFxko04viKv42Q3i2NeFgD9j505/tP9hPkDCOO68KjC0cBnj3fdtXA8V44LgHdImT/vGqxjN1MYw3OSrKTTRLciL2Ned3zV1yUrj505/lW9pMwfoCs7Lh6qqKy1o4HPHk+91x0bcfydv8yf7huywQjPwcS+R97Z3K7XCe8erDv+cQcgvPNn8dAf18nROfcsFdqdz5XjxO6cu2ob/5634vFD9aMLtv1hK5wNqQpq5oVzzZy1VzBTL8wfwADXSXG2s5rNPXu845byLNWPiRxrHrEDsHrcmD/AJjgvIBypNiPX3DM4L7pmuLJ4+GH+PK+HVTjfZFXHO0+qUTEqcrrW3flarc5dufuwaux0/rAdrguPCFzHvvOiqTJ/tQlX5Z6JEfGYa8XYMX+wo3pCrcTdyFz1u5pgNQ4mmB2jIveRYzF/2BLXm7pD/qtETIbVZlKRu3rxsesCQH0HQMb8ed9gPa4mUE113VxNKCJGdf7ZnLvuPiiboHr+rN8lIGP+ADtRvYCAazibkHPu2fzutc/gP/On84bVVN9M1fkrcZ5I3fOvfKM74rioGDvnj3oEEJmfzh8AYBPcHz/Msnv+R0LNn92Dfai+iDvkr55Eyb9nfpUFQFUX7bpzE5H/8Vg6f4BCqhcxM1QbYAS7LgCq86ssQGZwz4/5w9ZUm88M1RNINc7alaiuo7uJVhwbEePXGGzXQx3VE88MztqVqK6j8wQeVbvKlwhn40RsgVcvACry0/kDFFNtfjNUa6/OH4XCAqA6v/M4HBcAmD/YUj1ZKFDdeUZRbX7V+SPjVOSvrkHEV+lm8s8eG5X/zPGYP2xP9aSrQPWkp4BCDXbcflfTMPs2fWX+Mxowf4AJFCa8LlRP+rNUa+Ba1EChfkc0SJg/LxzWoXChwhwKk36X60hhHArnQWEHQkFDxbGPMTI1/MJ4oRqFCRc0qJ5wZ0FDff5IDQrXY5YGic4foJpOExYavPN30KBufGgINH92EPbDfYJCAxoy4qABDVkaIh+F0PkDwA86mXgV3UwHDRoaZnjWgPkD/A/FG3TVsVF00hD13fFKOhlfBw3VLwI+Hof5A4AkGG9snA64LwAUuOvH/EGCLjeUWqwKDe76I2MpGI7CTgjnI0fDzPn452riiBf8ZmMoaJjlfvKu6Hg+8VfHoqBhRserG4BazOtQqMVjnNlaVJyPSB2RtajQoaAhUsfMeVWoBZ0/QBIKHXAEUc8pq1EZh0oMBajFH1bX4pL5V3fLoAs3YiydJsdZHSq16BJDQYNKjIiX8dxi0PkDwFdUFhARqIxFQYeC8SrF2AnMH1qiMhGg4ycK3So6iPHp+F1ilJk/jw706GIQUaDjJ+j4SbcFADr20kHnD5BMN7OaBR3xqIwFHT9RXiCeNn86dvhGtxtPAZWxKE9mO+voGEPh3KjoiIjzPBY6f4CNUFlEdEJlco9CRUcEKmNRvEYwf4APKN601ajUREVHVIyIOBGdapSOCBTGco/R6dzcbrca8+/wm/kUwWDy4iigVBOVunasiYoWJbNT0qISYzYOnT/AIlQmDiWoiTacn79RqslMnFPmT7cNR1G6QWZR0RGJ0vlR0aISIypONy3sAMTGofMHAPgfHSb16BjwGqXzcyUO5g/tcb9JM2JExUFLXoyoOJ1iRMWJ1BK1G7F6VwPzhx/QKQBooWJ2atvuKqZ7jxXBSi2YP8Bidp1sVsTpqCU61iwda7yjlsPmz8t+cJYdbyiYQ+k8KWmJiKWoRanGalqyd1no/AE2R2nSU6PbuBTHo3T9KWmJjvUM5g9QgNoko4RabTp13PcY3WocFeMep9M5fzee5ebPb/fLRekmUoPavEetNt3qrLrNrfICX6SeKLrXhs4foAglI4iOpYBqbTjvuXSuTeQC4JD502nDVdQmOjW6jU1t4lXS83h857HNwg7A93izx99uRX/YBwA06bYYUaZbrdXGo2S40UTowfxhK9Q6rgg664k8X2odZUQ81VpH0E2P2g4A5g9QTGfzjqC7HrUFQEc9ai/eKejB/AEa0N0gZ4l+3q6G2pjU9HTnSr2/mj8v+8Es3bbvomJkxptFsXuLpJueqBiRsRSvIYWO+1WMivHR+QNACmoLmmgUFwCRqC0AIBbMH7ak46SkbkZ02/nx1F4qi4oRGUtxRyI63pEYS82f3+63BrUbpCtqE78i6jVSrLna/auox33L/Ui87Bh0/gCNUDdHRbOdpeOYnlFbAGTEUyP7XZmP5k+XDVEweRyDMeYfnxEPTedjKIyxasv9bMzZ41/FoPMHgI8oLiCiUTCijHiKmqLjcX1eA/MHmEBx4nnW5KBx9fFZMXcwx+hzpzbGXXYA3po/W/6wAx2NMQM01aFmjhHxXi0A1BaE3TXR+QM0ZIfuPwNFo82IqTrOWXbRFLEAwPxhGUw4a2MqGkZ0TMXt1agY0THVt9vv8Tp325HMxsT8ATZBceEEa9nlGlAcp9oCAPOH7VGcKFRRm8AiY0THc6hV1642KsZzvE47Vf88/0P0i36R8VRjRXA/gVG6brfbdKzHiypS12y854s9Qtusrlc3oGr9I3WNoVH/xxh3FOrvdF3MxFMd5y66rsRL7fzVDBauQ3d8HtWaqepSJvqrZIqxlFGtmWqsI/HY9gd4QHUyVdkq3DVWdDzlWFHxore4lWM51uyH+St36sraVFE1sjG0tUWiOmFFozpOFgD18ZRj7aDtXSw6f4BN2WUxoYyq+UTHU40VHc9JG+YP9ijfcNHxlE1RtW6qujLi7aIto2tX3rrP0Ib5A2yM8mIiEmVTjI6HNg3Ux4r5A5jBhHc91i5GhrbrsXYY6+328Ot9eaEOVoOJaaCsbQztc7Gbth22xqPjqWqj84cWqBtYNMrjVdbmgPICIJqd9KktFNPMn52EfqjfqOoo1y+6O4lGbeLMipURU3kHIDpexnWsOtbZeHT+0Ablm343HGqnbLDRqOsbQ/t8ONTvLL/G0O/S1fUpo37RquuLRnmCi47pMAHvNF71eNExlXc8snYAzsSk84d27LSgcBir8oQeHVPZcO7xIsnaZo802WiqTftIzCNg/gAfUJ88MsiYiJQNLBqHa0a9hpGovweQEfNILMwfWrHTpJaJ+uQWzU7mkLUgU94BuMeLRH3M32Jh/tASZaOJZqex3lE2VyfUv+URjct1s2LR80v9ZTp1fQ6o39w76lMf8xj6495Vn/K41bvhe7xo1M/1q1gpnT+G3RcH08pAfcJwOi/q41bXlxVXfdxZjymUFz73uBmx2PaHtjgZoirUcB6nGu60AMiKqz7ueyzMH6AQ9UknC/VxZ70AqD7u6Ljq5+YxlsO4I3cpMH+QwMG4HDRm4DBudZPJirurRrct9kii4mL+0JrdjMthvHd2+nrdcyyHc76bxseYDu8BzMbF/AHgK06TdzQOY3fRqGqE2XEVzw/mD3ACxZt4VVw0asd10LgiripqjyqkzZ+vDMbhcKMxycSw23ifcbuOdlsAZD7+UN8BuMeL5opGafMH2Am3iTsSFix7naOsBUAm3c5RuPnTrffH5WbNwmH8zxodNavEWhE3Onbm+FU61xWxXsWOjPX4FdDV46fzhy1wML8x9jaAe2zFWCviRsd20ZkV1+X6r3oMgvkDbMKOC6CsuC7G6qIzK+7u4/8UD/MHKXY3qOzYkTjozHz84XINuOh8juvyGED9Mcg93jOYP2yDg1ll41KDzInPpQaR7DjmZxxrkHkfYP4AcBnHrjIytoPGV/EcvmKXEdtFZ1bsx1iYP2yFw0TiHDuaTJN2WQBkvly24/2Q/SjIZREga/58ZTAel0nfRSf8C+crvwauxhqJywIgmyitsuYPsDsuE2k2LnVwWQBk7oJEx8qM/dxJu7xkeI8/S6j5063vg5N5ZOJcB5cJPxvq8C8udXCqsXId6PxhO5g8clCe6FbGd3oH4FV8xVivYmc/W+/+TgjmD5Iw2a/BSTvXxJr4Li/A3eNn4vQY4Gx8zB9AHAwaVuN0Hl0WANGxZuP/czVJ1vP9zPcGHN5JeDx5GXrv8SNiv7rQIjU/x4+uB7X4O3ZWLbJiZ10TEbEz6/Auvup1QS1ex3pm5VxE5w+QhFP3dMdNs5veMdC8Im5m7C6aL5m/QwcNNTCxrQHNa+K6xUbz37Gz4rrFfo5L5w+QCCa9Jraj5szYrpodFxduse9xMX+wwdFIwA71TAAAIABJREFUM3Gc4DNjO2rOjO2oOTO2o+bM2KfNny1/+IajSTvevM4wwa+J7aj5HptdgNzYUp0/C4t1YEg9cJ3cXXGst6PmbFxrEhlbyvwBKnG5aVfiWBOl71KrxHbs0lfEzsKhJpg/WOFqomN4TuzZ8anJutiZhnSPnxk78zGAY81nY58yf7bl4SjOJg1rcV0AZOK6eHHVnR07k6u66fwBHnCdvFx1Z8d37EYf42fGdax5dnz3HYYz8TF/AABRXI10hW7HhVd27DPxMX+wQ+XmUYvvqjs7/mOnm9XVZbLC6Ny+VveYIzO26vP6iPiHzT/7eT/vE6zH+caE17if0xUGjdGtja9gdKrxVzyCeRebzh+gABZGPXE16FXxM3GtTfYC4F1szB8scb3RV+DanT/ncI3vrP0en92R9/GddxkeY2P+AEWsWGCwiKmLn0kH7a7vvqzIsWJxesj8eR4PV+kwSTnmyH7GnRl3ZQ7X59z3HNnxnV/CdK7PY/ys+tD5AxSDOdfmcH8E4FyfxxwsAtbmwPzBFuddhdVQq89Qn8+sqg8L4XU5vpo/W/4wi/PE6j7prcjhrH1FjlWPYBy7z3d5suJ2qFFUDonOnwVGHc7GDHvhbjzZOVbhfB5W4VAjCfMHUIbuvy5uRZ5VCwDXZ9z3PCtyrKiR8z0xUyPMH6zpZDqrcJ7sVuVxH4u68ZzNkxW3w7cOrub5aP5sx0MUncwzE+qkAwsAnTzuY1HUT+cPsCE7TXI753HX/5zDOY+a/rfmT9cP8JNOE2km3erknsddf7c8Kvrp/MGe54vc3TxXseqX22R2PCoTqXqeVffIyjopddGzcSt2G8rNnx2GetwntpV0q9XKc9LBcJzzKBiOa66Oi4By8wfIoMNCw50OC4vueTJzdbwH3c//Y9yX5k83Dlkw0RzHfaJ5FXtlLvIcj7tqtyGL1bsNq/Jk7gLQ+UNbOiw03Cead7kcY1fl6ZCrwxgq8mTmwvyhDR27/650OFcdF4GZubruArkuOP8yf7b8IRsmfnJl5uowhq65Xi0AulwHbjsOdP7Qmg4LDThP1/PecQGwOlcHIsaF+QMY0GHSX51rVZe5cuv3ns8917sFgPv5ccpVav48YtChywqZriKGDgbzLnaH68HJZFTyvYvbZcFxNt8P88eMYRWdjTOLzjVbPbYOC4DVdBlb1wXh2Xxs+wNMoHxzO+XKzPcubocJv0tXvjpX18cOZ/Jh/rAFXbqW1XSpW5eFzI50WKQp5vtn5VZ/11xZvDp5meN6zpddw8d8K87X7XZLyfPuJssaU+frotM1uPK64BqMiZuZ612+rFyf8v3+/ZvOH/ai67Y5uXxyddk6J5dvrtuNX+8LkErX7d+Opkwucu2UC/MHCbrdWBWoPVMk17FcK7vKVXTslh9zrerOM3Nh/rAlXc2kM53PWccFwOp8jO0cy8y/wwt4u4FpxcHk7pev4itaq/J078xX4bzrQOcPMnQ2kpV0r2PnfDuYV7dcj/mcxof5Ayyi62JjjN6GTD5yqeacyYX5w9Z0nWRXdyL3nCshX3y+jtdn1b2gXkvMH6A5nXccVtN9AVCRkwVqbL6jOTF/kILJzjun8mQXmXN1Psbomasi39GcS8yfN/19oWvMgQWAd07VCd053+qcj9vlOz5+oPMHgHB2WABU0X0XYIecCosqzB/k6H7j75Lznmu3SXVV3tX5dsq5cifg/t8reMyJ+QMUsoNxrM7ZfXzk7JX3cQGwMifmD/A/uk8yFTkf87AAyMm5U0e+ms5jxfxBkp2MuIruBrmLWdzzVuTsaowKebMfQaSbP2/6+7OTIVaxU427LwCq8u42Vmo8B50/yLKTIY6BYWTnqvia1Wp26oyr8nYZK+YP8ASLDvI65iJv/5z3vBG5MX8AIXaaPFfmfc5TtQBg4ZGbt9tz+SO5r4L5gzS7TWCVuXfMW/Wth4rvda/E2RRd857NjfkDwH/stgBYmVtl92E1u11TLrVONX/e9O/Dbs/Bx/C5ibvk3nXM3XcfnnOvxK0bX5mbzh/k2XHhsSs7LgBW5n61+8DOx565MX+AD6jeuOQmd2SeqncQdnj/QTU35g8gzA5m9C73ro8f1EwiK9er3Cvyv1uArMxdsQvynBvzBwuqJ+Rd2XXs1ePe+XrfYQfkVa7VuTF/gAMwGe+Zuzp/Ze4d8r9bAFQ/BlmRH/MHAGlY/NSxc/7uY08zf77m14/uN4Ny/p3Hvnv+XbpwxfyVX9nLzk/nD2DCzgaokn9XEyR/v/yYP8AJFAyI/HtTXQPy98iP+YMV1TeeAtU1IH9tB3jXUJ2/Uxfsmn9GA+YPAKdRMJ/dUahBtQaF/AoaroD5A5yk+mZHg05+NHAeFDRc2QlIMX/e9O9L9U2GBjQ851fQUE21BpXzgIbjGuj8AQAmqZ7w0YCGsxowf4CLONzgaFiroVoHGtDwSsMrHZg/AExTPcmpaFBBoRZo+KNBRccj/1wNpPBcX0HDaj5dRKvqoa5hNx0KGlR0OGhQ0aGgYYUOBQ0qOh41XOr8dzRdOIbCCncMdKhpGENDh1IXVq0j4rviXXQoaFitg21/gA2ontTuoOMn6PiJgg6FRcAKHafNn64fvqFw44yBjmeUdChoQYe2jmot3XXQ+QMsoHoCuaOiQwmVmqDjb1S0KOmI0mJr/uxA/I3KBaqEUk1UtCjpUNKigEpNVLreRy3VKNZkRssp88dw4SgKN8gdtPyNio4xdLSoTOxjoOWTDrTEaLHt/AFgDoWJ6w5aXqOmRUUPWl5zRsth86frh7Oo3BBjoOUdalpU9ChqUdOjAFpec+SaofMHKEBlkhhDS8sYWnqUtIyhpQctr1FaBIzxvjaW5s8uxHuULjo11GqjpMdlwqpAsTYqehS1qOlR4FVtDpk/ZgtXUbn476DnM0p6lCbPMdDzCSUtY2jpeTReBU13HZadP0AnFCaER9DzGfS8R8Xg7qjpGUPnfH01f7p+mEXlYr+jpmcMPU3o+YyiHiVNqnpUND3rqdBm1/mzGPmOygWujGKN1DQp6lHSpKZnDD1NaqY7xt81qtb2rGVVvezMHwDWUT0xOqBYIzR9R2kB8IrsRcBH86fLhihUby410PQdtU5yDDQdpXqr+5Wex/9W3qmI1vTW/DF+2AGlm/wOmo6BpmOoa1Iz2zvdNbHtD8tQvJlUUayVqiY1XQ6alDUq6eqs6aX5q3b9qroUUbpYH1HUpahpDE1diprG0NT1aoKu1vluEVCt6xllTUq6Zh5V0PkDwCmUJr9HVHU9o6pTUZeipjF66ML8AUaPm3kl6DrOux0AF63VKHbcY/jr+sv82VqHbNRuljvoOge6zvFKl5NWBZR1KWr7pIvOH8AAxYllDG1ddNtzqOtS1qbGq5r9MH/lrl9ZmyqKF+EdVW2qusbQ1aY64Y3xvttW1KuuC23HUdU1xh9tdP4ARihOJuq41UxZL9rOo6oL8wd4QvVmvaOq750uBb1OOwBjoO0qqtq+fSWvQvN/5s+2OqxG8Sa9o6xNGeUFwDvQdg1Vox1DW9sYGovRf5ZlAoAwbreb7IL9nbb7xKao20HbGNr6lLWNoafvyEI5U/Ov7AQRqOtTRnn1O4a2PmVtY2jr+9TFuOpWQFmfsrYx3utT1p354iDP/AGMUZ20vuGqWwXl+ilrG8Pz0dQY8YsUtv0BPqC8vX5HWeOnycpFt7pGRX3q9Tu6AFDXPqPvl+LgHlHX54DDilYZdX2fUNeurm8MfY2u+pS32+901se2P8ABnCcBB+0OGpVRr+G3d0CU9TvpO6MR8wcJVG+sR9Q1flsAOOtXwKWGyhq/mZS7fgWOasT8ARqhPCkdwUE/GvNx0O+uEfMHOIH7De+iX12nu0Yn/co6nTVKmz8v+8WhfHHecdDYAZc6O+h016huXHdcNKrrfNQobf4Aiqjf4GN8n4gcxjCGh04Xje6LAIcuewyfWsp9z59uPw/1796O8X4iVdN75OZW0/zMqzEoav5UaxW9Zyb7Ss3fdHa4JsbQ0Hx2AbBaM50/WKC+kn4FmvNx0zuGn2aHTvYZNH9HrvMH6MTtpvtb7N7hpvk+YTpqHsNHN5rX8LwAyNJN5w82uK3k7zjqRvM6HHXTWa8jS7dU5++yMuuAW3fnjmO9nTtqJ81jeHaoY3jqdtQ8RvyOgJT5A3zD0UTvuGp31O26CBijhzm56HZ5wfEVs9rZ9gdYiOO24xjorsJVv6vuMXwfD4xxTrtM5++y2uqEY0c3hq/uO676Xbtp5+5uDM+Oeox1L65l4az/iHY6f4ACXDuLMby133Edg3tX6ox77Z+1y3T+AGdw7Z4fce2kx/DWfsd5DK7aXX6J1ye67Ahg/mBLhwXAGN7jcDWhR1y31cfw1v6I8zhcFwMS2/4uxeqI6zZWNzgPGjifB2ftjzhvr4/ho5/OH6xx7pqfcR5Lhx2AO85jce6gn3Efi7p+ic4fAP7FoWP4hLv+R1w6uHe463/EfSyKf5EQ8wd7nm8opRvsCh30P45BbdI7S0f9ruN5NNEOY3j+t5WUb/srbofshvN28zvcx+S89Xzn+Ry4j6mL/nf/7zgu9a31b1SeEzp/aIFrF9CdV+fF/Vw5d52fcB9Tx/OSOabyzh8giledpmM38Ih7t/mODuPqMIZn3DvpMXqM4ZmMHQE6f2hNt06gGx3OT4cxvKJDJ91hDK+IGFdp599lVdaBDl3yGO+3md3H1rHLvNNhbB27zTsdxvapc3a+/mb+bgXb/rAFHRYAY/QZxyucJ+FHPo3D/fx1WAiMcexdFNfxHR0H2/4AZnTcxnyky/jejaPT+LqM5RVdxvduHGWdv+uqqjPuXck3Oo2v01he0W0XYIzXW83P/+5Ip7G8osv4nhcAdP6wFR1W8nc6jeUdncbYfSdgjF5jeUWX3YAxijp/59UT+NOpa+40lnd02QX4RJfucow+z84/0WGMvPAHW9LJNL+9YPbuZ250GssnOi0Extjv0ccYHuNh2x9+0GVL6wiM1ZNOY/lGt7F+evTRaawO46Hzh63ZZQfg/vNdxtqJTh3yGJ8XNI4d9CeOjqfi3lze+bufzB1QX7HCdbqdW4cOK5Idx9uJT+dv9bml84ft6dQRj3FsB+DTzx3pOKZP7DTebrsBY5zb/RgjZ8yYP8DotwAY43vX1NFAjrz8+O7njnQc0zc6Lga+wR/2AUik2xbjzhxd+HSi45iOsOO47f6wzw4rtC507ISPsOO4u3aPRx9/fPqMG0fH1G3XZ8fdgDHmxk3nDwCtOdIhdewej3SHXV8g7DimI5w5nzzzB3hix+7/TreO8M6ZBUDXsR/ZCfj2OSfOfM3u22fcODL2Zebfpag7sbsJ7jr2Mfoa4RE6msEYx7vhHcZ/ZCHw6XNuvBoX2/4Ab9h16/CR3WvA+HuO/+j2eOfHImz7A3xg9x2AMahB1074KF274TGu7YaM0aMGmD/AF3Y3vzH2fgzwCHVgMTRGj8XAkm1/x8LAv3Tc8roCdfgX6vAv1OFfqMO/OD4euNz5Y+j7cOai7nxdnL25u9biyiTXsRZXJ/tutZgxPWrxB4s/7NPthEEcbqvfTKjFHxw7oyyoxR+oxR/utVhVj9OdP8YP3+AZ+R94RvwTnhf/ocNz4yjeGd6uNVlRj1Pmv+uJgPOwAPgJi4C/YSHwExYDf7PqL9y5ELko4G1/gIWwKHoNdfkbFoyvYdH4N1cWjofNnyLDWZjQX8Ok/ho639fQ/b6H2rzmyA7BoRf+KCZchZd53sPLTp+hNu/h2nkPtXnP40uFXzt/jB9mYQfgM+wEvIct3s+wW/IeXiL8zEfzp0gQBQuA77AI+AwLge+wGPjOt12BXWr2dtt/lwIAqMGW5XfY2j0GdTrP6u/bV/Gy88f4IQM62+NQq2OwG3CMI0ZG/f6m86MD/qQvgDDdu49IdujWMqF+x+lQq786/w4rGtCG5//nYBfgHO92A6jjMXhv4DjOOwM/zN9BMPSABcB5MK/zvJqceVRwDr5Lfx6HRcF/5q8kCvaABcA1qFscLKiuwQLqGt92pZ7/PZN/ViYDeAYjuwamFQtb3dehdtd4tzuwateAF/4AjHF/6UgV6nqdDi/DKRL9FcR/WKVBNXT/c3zaBWCH4Dp0tHN8e1eAdwmu82kBcLSG/FU/kIAFwDxHFgHvfg7fYTEwz7eulQXBPEcfG7DtDzKwVRjDlQkWzsP29hqocwzPjw3o/EEKdgBiOLMAoN5znNkR4Pq+jsPX51y43W50/gC7Q1cVy5GFFzWPg3peg84f5KA7Wg87AbEc2Q3gHYJYeF/gHJg/SMJb6nVQ+3iOdKYsBuI58qhg18cJmD8AvIRFQC3UP48jte2+G4b5gzQ8AqgHE6qF7ew8jr4r0HF3gBf+QB5e5tGA86ADL7lpEP1b91ZC5w8WnNkBYLcgjytboewc5HH1PQHukXhmdmgq7hHMH2xgAaDF2YVA92eoCpz9nQPPcF5iOfu4YOXjBbb9oS2OW3GunK0152YNZ7ekXbew3Tj7uCDj8QKdP1hxtqNny3kd7AToErE44xzlELlwPnOO6PzBDjoTfa5MaJxXbThH+pzZIaDzB0vYAdDnilGwG6APuwIefHt/APMHW6681MeLgD6wEPDhyrcOOn533gH+qh9sC7sAfnDOvJhZuHGu14D5gzUznTy7AH5EmMqVY+E6Vx8T8HghF174A3tmXkLiBSZfOO++XK2/82/UU4POH1rADsCezPwlPP6KnjdROwO7PmbA/KENswuAMfabALrBY4G9ifgVu1ePdwPzh1bMbgeyC9CHiMXgGH0n/12YPZddrwXMH+CJqOeJnSYKVyLOZfTzZa6LOiKagyxWXxeYP0ASPEqAV/CuAbxi9WMHzB8gGSZ7+MS3bpLrZW+u7DYcuWYwf4DF8P1lOMORyZ/rBx7hd/sDmMAjApiB3SU4C+YPIASTOESQtVUMfcD8AYRhRwBWwcJzLzB/AAOYmGE1R3cPuBY9wfwBDDm6GOCXFkE2V19IZFerFswfoAGfJtKuv6EMfPi0QODbLzVg/gCN+NaFMdGCA2deWOT6vQbmD7A57AyAMyxor4H5A8B/MJFCB868rLjrL1HC/AHgIywIoCtHFwlnf2+Cw/2B+QPAac48KuCxAuzG2QVzxQIb8weAKc5MXKv/chmACmd3D7J/SyPmDwDhnP0ON7/ECGCeM4trzB8A0rjSvXw6jkUBwHle3U+YPwDYMLMoYEEB8AfMHwDsmXmpkEcOsCOYPwC04uqjhiPHzy4M+FsLoALmDwBwkG8Li5nHD2diAMyC+QMABBHxOw14DAErwPwBABKYffxwJs7sew4zscATzB8AwJzI3QJ+nfMeYP4AAM2I2nU4Ey9y9+FqTDgO5g8AANOc+Ut60THPxj2To+sCBPMHAIBlRO9KfIobYdwrHoNU/PErzB8AAFqycqHxiazdjrOxH8H8AQAAEsn81dJXv7mB+QMAABSQtTNxJP6v1MwAAAAgB+YPAACwGZg/AADAZmD+AAAAm4H5AwAAbAbmDwAAsBmYPwAAwGZg/gAAAJuB+QMAAGwGv+EvgOzf0gQAABDJP+5/rhDjBQAAOAfb/gAAAJuB+QMAAGwG5g8AALAZmD8AAMBmYP4AAACbgfkDAABsBuYPAACwGZg/AADAZmD+AAAAm4H5AwAAbAbmDwAAsBmYPwAAwGbwV/0AAACKWf1H6jB/AADYll3/MizmDwAAJexqvArwzB8AAGAz6PwBADaDjhvo/AEAADaDzh8AYCF03aAAnT8AAMBmYP4AAACbwbY/AGwB2+0Af6DzBwAA2AzMHwAAYDMwfwAAgM3gmT8ApMPzdoDPrL5H6PwBAAA2A/MHAADYDLb9AQBgW3Z9JEXnDwAAsBmYPwAAwGaw7Q/QnF23NUEfrs066PwBAAA2A/MHAADYDLb9AQA2g+12oPMHAADYDMwfAABgMzB/AACAzbB/5v/79+9qCTw/g5dwXcAruC7gFauvC3vzB1CCiR3G4DoA/WsA8wcIQP1Gh1w4/3vjeP4xf4CLON7wcB3O9z7scK4xf4AT7DAp7Arndh8415g/wGGYMPrBOe0P5/g1mD/AG5g0esH57APnch7MH+AFTC694Hz6wrnLAfMH+B9MMv5wDn3gXNWC+cPWMAF5wnnzhPOmA+YPW8Ik5AfnzAvOlzaYP2wDk5E+nCMPOE8efDpPmD+0h4lKG86PNpwfba6eH8wfWsKEpQfnRA/OiR6rzgnmD+1gQtOC86EH50SLivOB+QMAACymegGG+QMANKPaWHbEreaYPwCE4zYRukO919Gl1pg/AEzRZTJUhfrms2ONMX8AOMyOk2Q21LSWXeuP+QPAR3adHLOgnqAA5g+tYGKdg/rlQn3XQa0/g/lDC7jRr0PtwB2u4fNg/mANN/05qFcd1P4c1CsXzB8sYWI4BnVaC/U+DrVax6taY/5gB5MGqMC1CEqcuR4xf7CBiRYq4LqDCrKvO8wfLGAChlVwreVDjX/CH/YBeIJJAjLgusqD2nqA+YMkTCAQDdfUHNQvnsqaYv4gB5MMQD3ch3Eo1hLzBxkUbxA3qCEcgetkHvcaYv4ggfuNVA31A8ih6731z+/fv8cYfQcI2nDdXYO6AcSw6730X+fPIgBWwnV2Dup1DuoF8Jm/tv1///7NjQOpcH0dh1odh1oBHOflM//7LsAY3FAQA9fRMajTd6jRd6jRd3av0dcX/tgJgFm4fr5DjT5DfT5DfT5Dff7m0Nv+vA8AV+B6eQ11eQ11eQ11eQ+1ec2Rupz6qh+LADgC18dPqMdPqMdPqMdPqMdPsupx6Xv+PAqAd3Bd/IFa/IFa/IFa/IFa/GF1LfglPwAJMKlRgzvU4V+ow7+o1OGy+dP9wzNcD9TgDnWgBneog2YN6PwBglC8wVey+/jHoAaM32f8U+ZP9w93dr4Odh77GHuPn7HvSYex0/kDwGU6TIJX2HXcYzD2LmD+ABfpNBGcgXHvw45jHmOPcU+bP1v/sOP5Z8z7sOO4GXN/6PwBTrLbJMF4e7PbeJ/Zbfz38YaYP93/vux03hlrT3Ya650dxzzGXuP+NlY6fwD4ARMkdGKnc3xmrGHmT/e/H7uc7x3GucMYx9hnnM/sMu4dxhk1Rjp/gA8wmfRhl3E+ssOYGeM1Qs2f7n8fup9nxgeOdD+vjC8OOn+AJzpPMJ3H9o7OY2ZsPagYK+YP8EDnCafz2F7Rebxdx9Z1XJ+oGnO4+bP135+u57fjuDqO6RMdx9txTGP0Hdc71MZL5w8w9G5MOE+3c9htPDuifA5TzJ/uvy/dzmu38exEt3PXbTyf6DZWx/HQ+cO2ON6wu9PpnHUayze6jLXLOMbA/GFTOt3Eu9DlnHUZxzc6jbPTWO6kmT9b//3ocD47jOEIXcbZZRx3uo3nkQ5j6zCGI9xuNzp/2Iedbmx3OoxhBzqcpw5jOMLzOFPNn+6/D+7n0V3/EdzH6K6/O5wfD46eJzp/aM0OE5bzGJ21H8F5fM7aj+I6xgjdmD+AMTtPXuq4jtFV91FcxxetO9382fr3x/H8OWo+g+P4HDWfwXF8jprP4Di+VZrp/KEdjjf8URzH5qj5CM7jctb+Ducxtf3DPnT/vnDedOBcaMB50IFzcR06fwBxmODq4RzU0/UctPmrfgAQR9cJzwXqX0vn+lePbZn5s/XvB+erDmpfQ9e6O4zLQeMVVMdF5w8ghOpE0ZmONXcYk4PGM7iNZ6n50/37wHlaT7eaq49HXd8VOo5JGed60/kDFOM8gbxCdTyqumboOCZFOtYZ8wcoouOE0nFMilDnNXSr8+N4lps/W//6cH5y6VbfbuNRo1t9FcejqGmGI+Oh84cfdLsJlOhW227jUaFbXdXHo67vHbO6S8yf7h92o9P13mksSnSqa6exKBFZ17LOnwWAHpyPeLrUtMs4lOhS0y7jUGJFTUu3/X///v3Xv3EhrcGtzm56x0DzCtz0juGn2U3vGGg+gtwzf3YE8qG++bjVGL25oDcfN83VeuXMH+CZ6pvkLE56nbSOgd5MnLSOgd5ZMH+AQNRu8E84aR0DvZmgNQ9VvZg/SKN647zCRauLzjtOel20uui846TXRauk+fPcPw/qCk44Xa9OWl1wqqmbVknzBxjD72ZSx0HjHRetLjrH8NGKznheacX8QRL3G0sJdX13XHSOgdZI1PU94qKVX+8LkIz6ZKCu746LzjF8tKrrVNf3iIvWMzplzZ/n/vG41BOd++BUQwetDhrH0Nepru/OjE5Z8weA3uwwwa4EnfMoa3skQifmD1LsdPNlo6pRVdczDjodNI6hrVNZ250MjdLmz9Z/HA51dNA4hr5OVX2quh5x0DiGvk51fXcUda7SJG3+AGooThYOONQNjTGg8Rrb/2Ef2BPFm/EZdY2q+lR13UHfPGico0Ib5g8A26JsCGOgLwJ1jVX6/lF/rq6uzwH1+qFvDnV9aqjXC31zqOsbQ0MjnT/ABxRu0k+g7zhKWp5R1jYG+mZQ1fZrjH+7a2XU9SmjeuHdUdenjHrt1PWpoFyn2+2GvgmUtdH5A7xB+cZFmzfKNULbdZT1PWv7z/x5tg6rUb7e0HYNZW0qKNcIbddw1EbnD/CE442sgKo2JV1KWsbQ0/MI2q5xVNsP81fu/pW1qaJcL1Vt6DqPqjZVXQqo1gZd5+AP+wBACR0nRViP6vnqrOsv86fDhmxUry9FXYqaxkDXWVR1VaJYE0VNY2z4h30AVqF60yuiWit0wVVUz1Gmrpfmr9r9q+pSRLFOiprG0NSFpuMo6kKTD0p1WanlbeeP0cIOKF7jaDoGmo6BJn3k/rAPCwCIguvoGIp1QtN31PSMgSb4jN0zfxYk36E+x1CrE3q+o6YJPd9R06Smp4qv5o/ZwiyK14+aJvR8R00Tej6jpmcMPU2Veuw6f4CnGfcWAAAgAElEQVRZmAA+g573KGkZAz3fQM97Dpk/3T9cRe26UdKjpGUM9HxCScsYWnqUtIyhpUdJyxg/9Vh2/ixG3kNd3qNUGyUtY6DnE2h5j5IetLznlZ7D5o/hwlmUrhe0vAYtr0HLe5T0oOU1R7RYdv4ArrhNEKtAy2vQ8jcqOsbQ0jLGOT2nzJ/uH46idJ2oaFHRMYaOFhUdY+hoUdExho4WFR1j6GiZ1XG681dZAKjoUEKlHio6xtDRgo6foOMnKjrG0NGCjp9E62DbH9rS9aa9Cjp+go6foOMn3XVcMn+6bniHynWBDi0NY6BDTcMYGjoUNIyxnw46f4AkVCYTBRRqoaBhDA0dChrG0NChoGGM9TqszZ8diD9Qhz8o1EJBwxj1Oqrz31HQgQYdDWNo6ODX+wJAKLtPbGhAAxo+a7hs/nTd8IzC9YAGDRRqgAY0KGmozv+sgc4fIBC1G3zH/AoaqvMraKjOr6ChOv8nDb8W6wCARBQmm2qoQX0NqvMraKjO/00DnT+0ofpmI7/2ZEd+8nfPf0YD5g8tqL7pyE9+8pPfKfeU+fPSH9zhOtiX6nNPfj/jIX99fjp/sMf5BnTPv2vu3fPvmrtTfswfwJjqiWhXquu+q/lS9zgwf4AJOk0G5NbOXZl/13F3zo35gzVdb0xyk7s6L7l75542f176A87/PuwwKSrl3nHMlbl3GjOdP9iy042qkJu85CZvHw2YP8BJdpukMCLydsurQmXd+fW+ACDJboZE3r2orjudP1hSfeOQt1/encZamVeB3Wr+Km+I+fPS375w3vNRmjA65iTvXnBd/wudP9iheCN1ylmVd5eclXkV2OU8q19bYeZP978fO53vXSaPXXJW5VW4Z3YZN9fVZ+j8Ab6gMGFDLLueUxdjImd+TswfrNhl0l49TreJyymnArvUmvvmOJg/wAecb27VfDvlVIDriZyvwPzBBiYx/3xVOavZoc6M0StnqPnz0t8+cJ7j6T6R7XrNdK8z+Tzz8Rv+AF7Q3ai6j0+FrsZBPv98bPuDBd3NauX4Ok9oKhrI55mrIl9VTswf4InOk42CEa+m8/lcnY+x9QHzB3k6TwCdx6ZA5/p2HVvnOipwH2+4+fPSX384vzF0nlCr6VzbVfk611CB6vrywh/A/6i+GTvk2g2M3yuXCgr1ZdsfpOk4MSjc+F3pWNuOY1qdS0GDWi7MH2BoTEQdUZvw3HJ1HJMKu59DzB9k2f3mdKdjXcnjTce6Xs2VYv689NeXjjfPKjqO6R3drhPy+OJgxBV56Pxha5xuVhe61bRbHgW61dQxD+YPkAyTumeeTmNRoVNN3ceC+YMc7jfVrnQ6b53GogLnTSsH5g9b0mmSUKDDZLgqx8o8CnQ5b11y3Pkn6+W8379///Vvq/Jk5VKAl1fIVZWna66OY1qZq+OYVuaqGhOdP2xDx4ljJdRvjo71Y0y+uZaaP18B9IHz5EG3CXGXidc9z8pc3fKszPUpz68x3m+dA2SjcBPAfuw20bvm6pZnZa5vedj2Bwhkx0mEPPW5ur2M1qluK/OcyYX5Q3s6dv2dJq1OY1mdizzkuZrnvz/py9Y/rKajKXeC86ONsrFcydFpPA556PyhNXR7ujnIo52nS47VuVzq9uv7R2Jhh0EfOj5dOp2bTmMZA3NRzLE6l1PdfnT+fBUPVuF0k6jkYgLbO0+XHCvh/L+HbX+ASRxv/Mo8jGXPHCtzkeM7y7f9QZtuK384jvtkthrqdZ4uNeuQ46/On61/yKbDjbOSLvWi49fKQbevl2PlOWHbH2CCDouMDpPmSjrUC+PXir8qx2OuEvNndwEy6XRtMalp5XKPv5IO11bn3aqX5o85Qxadriv3iYdzoZWji9G4x1+VY1Wud/HZ9gcA+EIHQ1uRh/ha+T7FLzN/dhf06HZjZeJeK8xmj/grc2XGd9a+OtfR+HzVD2AzOi3CMlGZpB1yYfwauc7Ef9v505kDvEbpBlaKvTIX50AjV5c6ZaNYp4/b/iwAIAquo2MoThJquVxjr4i/Kpdr7JW51K8lXvgDOAGLmO9Qo3pcTQ3jXxcb8wcQwWHCqMzjGnslrjXC9NfH/vrCH3+CF2ZhYu0bG3RwvYYw/prYpZ0/7xTo0OU8dBlHFEysNXFX53KsT4faO9eHbX+AAzjf5Ctgcq3J41j3lTjWZ1XtD33Pn61/uEqHSaTDjZ6J4xgcNT/TYQyZuBn/7XZbuiCl84c2uE2Gbnpf4bgwouNfH3dlHsfaVNQd84cWdDBS+IPjBL4K99o4mqj7dfNK/2Hz5+U8OEuH64XJ5D0ZY3A0hlV53OKuzOV2La7i0xjKO38WFfVQ/9c4TVQroS7vcTIhTH9dzNW5jsQtN3+AWTqYxu50OIdORuRucNRlPuYp86dLh6O4Xyfuk4uTfq6VtXFX4XKtrK5zdL6r8ej8ARbBZA5Hca91B5OORq0mmD9Y4z4hZKA2yayMuTKXS8yVUJO/Ua3JafNn6x++4X59qN6sVXlcYq7M5RJzVR6XmCtR2d5/x6Hf8JcNv0GwDvcbzAFqXIeLKWH8+TFXkfGb+jLqwbY/2MKk8xOHetDx58Zbmcuhvitzqcd75pL5s/UP73C+LpwnMwftTOz5MVflcajvqlzq8d5B5w+QBAuhGtS1OxtdRkzXejjU9lMeGfO/P/ePGvyr9wjUJ4VnMvVSi9y4mbjVwi1uZmzi5sd2i5sZ+1NciRf+AKAWx0VQFo7m4YZbjbsZ/xiC2/68T5AP9c3HcRLKwK0OxM2NmxmbuOfiypk/wDPVN4kKbnUgLnGJuybulZiXt/35bj4842amWTjVwUnrGF4TMnE942Z8T/8xtkpMOn/YEqebOyuu29auU23d4nIt7FcDXvgDgFCcdhOctI6B3qyYmajWgM4fpFG9cVZCDfxq4KKX3QmvuJExMX+AINRv9syYmbFdYmbFdYmZGZvzFR9TctuflwnzcOv4otl9/Jm4THpO14CT1jG8zpeL1qzx0/kDBOBy0zOR7j3+rLguMbNiO43/Hley8wcYw6/rAW2cricnrRk4GX8GKxZ+U50/v40P7jhcBw4a7zh2EuoxM3Aau4tWl/G7j51tf5DEZfIfw0PrzhNqFu6Tv1pMl7E71PJIXLb9YQt2N5Xdcaipi/llxHQZu8N1dOebVjp/gAkcJoPdJ1YHnbuO3WXcWTEz4h6NR+cPIITL5BqNi84MuplKVbxMOp4j2c6flwnjcannzpOMA07nR11rR1OpxGXcCjplzR9AHYUb2J1djb+zqVTEVY+XFXcm3vS2P7+ND5RNS1mbIy71VJpkM2NlsqvOHYx/DDp/EIMJRxeXMSvr3HHMmXE5N9fB/AFgOQ6LnTF8dEbiYIKqhpodNzIe5g9tcZm4HSYe1ViZsR2uH2VzyYrrMGYHjZg/wEmUJ7KMuKqxsmI7mP4YHufFQWM0Dtfh7XbT/p4/LxPG4XDj7DZROGh0waGWqtc3xh+Hi/GPQecPcAqHSUh10t3ZZBQ1OuzCRMfKiut4TjB/gAIcFhGR7DSBZ8Z1uG4cxqto1qsXYyHmz2/j2xfF866oaRWKk5H6BB4dKyuuaqyMmJyP/Lh0/iCBg2Fjhjo4jFX9eonEYawOGqM4ohHzB4AfOExuUWD886hrdFgoRnJUY5j5s/W/Hzudb/XJnHNRFycrrrq+qFg7d/uV+qS/6gcAa1FfRKhP5lGo6xtDX6P6tVKt7x/1jl1dnwPq9dtFX9dJZBUO41TuhNXqt8s4s2LPxuCZP8ACdjHWrLhqcbLiKutTv4bH0B6n2jXCtj/AB9QnPHV9Suwyqa+KqwbGf45/xtDfWlfXp4x63dT1RaA+xp0mvGjUx6hsiFEoj1H5+qDzBzBFedKLQl1fBMrGo15/xngdnvkDvGGHiSWL7rVT7uii4u6oLQrlMd7jhpo/2/P7wHmuxWFyqY6RhfL4lLVFxFa+LsbQrv9z3P+2/fnzubAa5RtZ+SaOQFlbd3atffdxK88Zr+L+6PwjOvfnRUTUYKK1qV6Iar99KyNWZDxVXdGonktiEcslVmQ8VV1nYv31wh87AJDNDgYbifJkGoWqLuiD6jVWdX/zwh9AAqoTTSTduyhVXZGxFDURa00szB9g6Jp19QSxIlYkiqYYGU/1HBKrJtZMHL7nD7aoGlB3FCfB6FiRKOpSrTux1sV52fmrfmVPVZciqnVS1RWJys2dFSsKRU1j6Na983XFTsv6WHT+AIGoGloUquNTnOwjUdSlqGkMzWtBMRbP/GEZ3SeLSBQni0gUx6fYfSpqUowTGat7ze+x0s2frXp/FM+foiZFuk+uipqi4ilqUowTGWsnTWz7AwTBggTG0LwOFI0oCsWxOWh62/nTscMOKF7jnTXtNsFWx4mK1XkXQnFsKzTR+QPAR5Qm6uhYnRda0bGi4NzlxzgS7+Mzf7p/iELxOlKcZBU1qdG51mhaEyM6llqcI7F42x/s6GpqkShNRornq7OBRMXqvh2upKdiXHbb/vzhoe8oTrbwHc7bd7rWSM3UolEy2qhY7nWm84ctUZtIIlHsRiJQHJeaiajpiYrXuUZVer52/nTaMIuaiShCjdbQYdJeESuC2+3WskZd9Czp/Hlx0Be186Z283ZFrUZq5x09+bHYgciNwbY/wATVN3BGrM56IlAbE3ryY3XUY/fCHwCAMx2NJDIWevJjjHGw82fbHq6idt10vZGjYnXWE8Gsns71RU9unOjasO0PNqgZwSxq4+k68UbFUjpfSouQiHidz7WSnsc4bPsDNEDJmNRQmnw7omT8EXQ1/mcsO38eQ7yHurxH6aZWO09KtYmKERVH6VwpaRlD6z7opCUqxqdYdP4A5ihNehGo6Ymi27iUrjslLRGsqM3hzn+226Zb96PTDaWkpTNK10wnLVExouIo3U+dzvNKLZbb/rAfTDY5sdCSc3xkLCUtUTGi6KKl4gVMzB8AQJQu5haNkpYxtPQc1YL5Q3scb8wVsdCSc3xULKWv46nUJOL4yFgqc8sVHade+OOP/MBRVG6KaLqOqxKlmioZSyQqxj+L0vlRqssV6PxBHveb7I7SOFQmUbrbnOOjYqnoiDg+KlaXa9bW/Pn2wN9Qj7/pWhOVyUupvh1q0sVYVHXMxutUE77nD3CQ6pu1GyoTaVe4Xv9GpSYKOk53/nTc8A2uj1wUJg4lHbN0rAk6NHXMxov8XQ9LO39eGPRBaXK+SocxwHcUJlN09NQRye12k6nJGMbP/GEPlG7cimPRgQ50oCNDB+YP8AXFGxcd6ECHtgZ1HZg/tERlxwB6ozy5O+lQuV8VarFKxyXz56U/eAfXRQ7qE8mOOhQ0zMRSeZFNoRYqOlaeE77qB7K4LyTc9UeiMLFG61DQoDCeMXTM7ioK52T1Ymz5tv/jG/+zg53Zgbjr6HLxRYxDoRYq46AWcTEUNKjEUNAQEUNBQ0QMBQ0RMa4czzN/gCcUbmYVFMahcj4wGjSoaZiJwbY/AKShsHiIgHH00tCFmVrS+QMIotBVKEzSXeqgEKP6eDRoxaDzB2hIF+NGQ1wM6EPEAuZy5x/xdT++MqiDwgSFhjgNs6Chl4bqb0go3BNo+BmDbX+AQLqYRbWGbhOtq4bq/F00KI6BbX8A+IHC4qEaxcm6KoY7CudhlgwNdP4A/6PrTb4ahcmWbrdeQ/XxChqUx4D5AzRCYbKqzl89hg50qCH3wucYmD9I0GHSd59sInAfg8J1WK2hWr/7+CNirNCA+QMMf9MaQ2PCqc6/+6S/+/GzMXbKzwt/AFA+6UF9/arzR+BivArQ+UMLqm86hY7HmeqJt/r8uY+f/H756fwBGuA28XTLX031GKrr75w/giv5fz3+id2zzBwbGQPmqL74HW+cTvlhjuquf/beq84/S+X9o1C/q8ez7Q8wSbV5O0++zsbpfrz7uY+I4ax/Nj/b/gCwJc6LNoXc1K8uRkR+On+wp/ommoEJzDO3e/7dczufu6j7hs4foIjqSaQSV913nM1DAVf91ecucsH8zxj8aV2ow/26c9VfPYlV5nbVHRmjMvfVGNW167ZTxbY/bMuuk2g13SbRlexqvrvmjsj/7ni2/QE2o3oyq2LXcT/iaoDOVC9W30HnD9a4d2GOKHYxK6g+31W127Xr7p6bzh9gMe6TylWqzbMa1Q6wM47X+6r54b/O/+pLfxEvC/LCYR0YEZxh13PmnvtKDPe5gdyfYdsftmOXmzsjd1XeHc23MjdjXpe3Kjfb/gBwCHZLruFkCFG4L9bcuDJmOn+wZceb/CrOtaIT9MrtNmbnRdZMbjp/gEU4TzK7Lx52wfn62vE8z4z5R+fPi3ewCiaZdXmd72m3WkfEcO2A3cYbgeu5GoNtf4AlYMA1ed22gV0NeDfj73CNsO0P0BjnRcduOC+yqvLudn1HjpfOHyxx6+jIuz6v0zWyW16FnG71it6dofMHSGa37uQRp8WDqxFezes83t3IeCzzV+d/5aU/fsufJ86r551wMhTnvFVUPG93NX7nOUstL9v+sAXON68rapNdZl6VrdxV7LRg6TpWtv0B4C92WrS4GmgVrrqv0HmsdP5gR+cb8hnXsap2Owo5K/Mq5NzlHKlfF3T+AEnsZNwKOV107zTWjBgrcrronInxsvO/+tLfVRFRea/mvHpsBDN5K45101t57AycH91j3fRWHev4HsVOx77d9ufte9gdN+N3yzmb121R5zhWDFj32Nmcctv+zzsIEM9OizpHU3ODsfbLWZm3Ajfjn+Ge86P5Y8QQxU4TyQxuE8kMbhOu47lxG+tO53VGb8RYedsf5Nmp26pglwnXzYCrjt0l58yxHd5nkNv2B4Dz7LRYqcBtAeqmdycUjH8MOn9ojFun5zZhq0xiyjhdCzN5d+rcnXJ+OpbOHwDgAyw48nBbCLrl/HQsnT/AE7tMSE5aq44lZ6+cM8e6HHf0+K/mz/f9YRY3k6nASa+T1jG8zGmXnFX5XAx8xTlJ2/bna4L9wMT74HYuuQ4+o2wy0ceuzum2wDkK2/4AQThNaLvgZIpOJuNWH5fOfeUYeeEP4AEM/DMOk5oj1OczTsZ/ldVjlDR/HhnkwUQBTpNaRd7Vk7CbsXWvz+12/TfozeRcmW+Mg9v+vPQHV+G6+YxTx7fDrgjnIy+fgynucv5vN8E/7APgiMsix0XnLC4TMecj9piIY1dTpZUX/kAWlwm8Ip+TVpecTvm6d8RO+WaOr6wN5g+wCU7d0AwOZlNFhTF2xrk2mD8ApNF9O5wuM/7Y7sddPTY6H8/8QZLuW7Dd883gVJvVYPyxx13F6Rp9d+xh8+frd3AWp0kV4nEw4g6TeBdc3ivpco2mbvvzFcE+cB7j6DJ5qLFSa/dzuDIfj0Fq8rHtD2CEkxmfxclQV+JUFyetK1Ez/jF44Q/AarJbiVNdOnf9M6zswlca3OrdApe6nDlWtvPnHYN4XCYtF51XcJpEVuJSFxedV451GVtn47/d1v1qYTp/AAhFvQtnQbQvysY/w5Vcpzp/unE4StXko37DOeRanc/FqFy68Ct0Nrmrx7p0/FePk932B1iBy8Tlgno9OQfzn486dmUuF50rc7HtDwA/cJm8Vubq3HGuyjVzbNdcM8zqxPwBxHHpVplk54/tmmvm2K65Zoh4RMC2P0iB0dXiohN+4nI9KpvxDouhR06bPy/9wTd2mFjgJy4T7cpcXa/HVS+mudTeQeerFwrp/AGEcTG6jrjU3kXnKjD+Y6SbPzsF/jjc8Mo47IS4GIjLtbiq9l3P2+qvva3OVdnx3+GFP2iBy2p/FS6T4Ko8Ha8Pl3PMQuj6sZl52PYHEMVhkXEWhzG5mMgqXAx5FR2Mfwzxzp8/CRzH/7d3L7t2HFUYx9cJRgzAChcloEQiiQ3CcXw5tnOMeApegSfgJeAFGPAUGSAIIYSbRBJyHyAlkZIoiWBgDxJFyLKEPLDZDJLjHB+fS1+qan1rrf9vZrn3rura3fVVVffpjtCOzJh8ROjcI9RxblkRrjVHKGfN51UvR4xo90Uzf67j4zARwi471d9AtV57RRlkLBVhsKZaVoRy5nxWeuYPqFGcNa1BHWOVs+bzlWe5az+brRwzsxMjltZ3VwqWlDOnfntXJOaWtaaOS4y8m1X9zln1togwi1Fvi4xlcVys+0zWsqLUjxv+gODUl5sjhOQoGcNkKdpiXVlr68eyP0JSP5nVqbefelm037qysga/clvs/wwzf6ADBhrjZWzzjCE+EsF/uKHhz18JxKF+Uo+SsfNV36eRlNtcPYSWUm4/9TZvWT+W/QEci5s/l39mJO9A4TNaZR31mQfM9Gfk6vVTlrGzQgz8tp9THmREDq+W1I/VHvVbvOxPIGM/5ROIZc2xnxkpWzuMCmT+BHhsObufUakfN/whHPXOB8tkbG+O1c9lawflwePUsrjmDzSk3AmrdT5e5Sh33MrlZLxEkO0zcz7HzB9wRhjpd6hLqCzvelL+XbN9Zu7nmPkjPeXOMSPV9iZcx5ajPjibK1tb3535cwMfRuNEH0e5I1au21KjZv1LjKib6mx36WeUbz5cWjeW/QFH6iFWnfLvk2nQpBz8S6kPAFn2RyiqnZdZrtnEUsp1m0v591ENsCWfUQ9+1TZY227M/JGacrgoU2431c54ZDlLKAYSwb9Mi3YbHv7cW6BPueMfofr+L6UcfJkoh/IImVY9RtpfN5b9gQZUZzzZO7Aen+G3WUZ1/1V//yWfaVk3lv0BDKccYkso749qKGOMw36be8JfeUleuW6qlE9I5etiqpT3R/X3VFzu3tqa/3z33c/1/ky2Y6z6rP+oz6xa9t9sNtIHC8ZR7fyrlrFU9f1fIkubVQo+rzKWfK5XGSz7A1hFOZh6l5ElYJbK0mYVfxdu+MM9ss3KRlA5mSljeVnZjnvl8OtdhvK+K8z4dzHzByBNNZhVw09Ztv2ZQ+14YeaPlFQ7mWwzX9XZtWq95lD+TbLNyHuXofib3Dfz5676+f71r3/Z//73P+9qhJGts+1NtRMcQXXfM9SL4Ner19LvX/I5Zv4NPPPMM/bAAw/Y2bNn7fLly/bd737Xu0oYJEPIKt+41JvqPqjWa4QMA6s1nxlha4sX+zRz8+ZNe/311+3111+3Rx55xK5cuWLnzp2zr33ta95VS6HyMm502QYXirO/EWVQL63vX/q53c+4hH/25wNcv37drl+/bs8//7z96Ec/sitXrtgTTzyRep+jU/1tMnU6Iyh16CP1rleGgF36OcXjpMV+M/Pv6Pbt2/buu+/au+++aw8++KCdP3/enn76afvmN7/pXTVAmmrILpFh1WoJ1f1WrVdv+/eF8B/kxo0b9vLLL9s//vEPe+KJJ+zixYv21FNP2Ve/+lXvqmEhOhEtzOb6UFx9qjrjX1rGQZ85MPxVl+VV6zXHZrOxjz/+2D7++GN7/vnn7dy5c3bx4kX7/ve/37Qc1XZSrZcixU59BNV6LRH9N8z0W6jyGpCsnvlnCGQvt27dsrfeesveeuste+ihh2x7e9suXbpkX//6172rNgu/v47oYZBpRqe6MqT0GyrO+lX/BLL197PsL+LTTz+1P//5z/a3v/3NTp8+bdvb2/bkk0/aAw/wEEalzkrx+5dQrNMIiku5VcJm9Pcv+Uyl34LwF3Pnzh374IMP7IMPPrCTJ0/aU089lebZAZkCRzUQIlOd0S0R/fhQPP5U9zli8Js5hj+XC4538+ZNe+211+y11167++yACxcudHt2AL9HbIqdo2KdKn3/krIUbzxUHRj2PCd614mZfxD7nx3w9NNP26lTpwhscYq/j2KdMlEcMCjWqbeK+zzHoeHPzFzT/mcHXLhwwXZ2dnh2wEKKx3jFOlUMtCz7HL1OWe49mPsZZv6B3bhxw1566SV7+eWX7dSpUzw7YJDI4Zxpmbkn1WXmJXrWSbGdIg9GRl5+IPwT2Gw29tFHH9lHH31kf/jDH+zcuXO2vb1tjz32mHfVVlMMhqki111d5LZVvL48kuIAaaosddraOubFPlOX/ve+BnhORZZcWlCsk5K9zw54+OGHbXt72y5fvnzsswPm7nP07UeV0fP7M7RRte2XUNwHtTpF335EGfu3Z+af2CeffGJ/+tOf7K9//av94Ac/sO3tbTt79izPDsAkikEYnWLozJVhH9R4tKl7+EefaUdw584de//99+3999+3kydP2rlz5+zKlSt3nx1Qsf3pkPyphUjFY0KtjSLMmLNsf2z4zw1nwlzbzZs37dVXX7VXX33VHnnkEdvZ2Zn97ICKneRcUTqAVtvPxTHB9i2o7UOk7d1n/vBz/fp1++1vf2vPPfecnTlzxnZ2diSeHUDwxKP2m6ltP1f0719C7TfLfkwQ/rDbt2/bO++8Y++88449+OCDdvHiRdvZ2bFvfetb3lWbJNpJh3qiH6NqwRl9+7mf6VEfwh/3uHHjhr344ov20ksv2alTp2x7e9vOnTvHswMCUxu8UJ+jVatP9hm2VxnHIfxxoL3PDnjuuefs/PnzaZ4doCZ650d92m4/V+T6VJhhjy5j6vaEP45169Yte/PNN+3NN9+0hx9+2C5dumRXrlw59tkBiqqM6ncp1cUsdlCxfdvt1c5FteDv/f2EP2b55JNP7IUXXrC//OUv9sMf/tAuXbqU+tkBauHZW/T9jV5/JdUGar2ptc+k8OfP97DfnTt37L333rP33nvv7rMDdnZ27j47YFe140ZpZjWC2kxvDrXfSm17JWpto7YisqQ+zPyx2t5nBzz66KOLnh2wK3IHhbYINz9KYdhb5LqbLa8/4Y+mrl27ZteuXbPf//73dubMGbt69aqdPn262wmjdiLOodbpqNWnp+jhpjTzjLyvc6ld51+zfcjw5zKEvv3PDtje3rarV6+6PjuAY+Zw0TvwyL+tUttUuwlPaTl+9L6GDH/EcuPGDYA7I8gAABswSURBVPv73/9uL774op0+fdouXboU4tkBkQPFTKf+KvXYVWlg0Zta2CpRDn4zkfBnJl/DZrOxDz/80D788EN79tln7cKFC7a9vW2PP/64d9WaUDrZe1NbWlWidBwo1aW3Km3Tqi4S4Y96bt26ZW+88Ya98cYb9zw74OTJk95VS4EZ1vptl2yPwyn9TpXOj8NMDv85s3Nm8phj/7MDLl++bGfPnrWvfOUr3lXDASLMakZ/95LPRA446tLuM15tw8wfMvY/O+D8+fO2s7Nj3/ve9w7cXqlDUfnuuZTqEp3S8Uhd1lMK/h51Ifwh6ebNm/bKK6/YK6+8Yo8++qhdvXrVLl68uOjZASModUJKden53VHrEnk/o1NqS++6EP6Qd+3aNfvNb35jzz77rD355JPdnx2AdviNxvOcTVKX9tv3+m7CH2Hcvn3b3n77bXv77bfvPjvgxz/+sX3729/2rhpWUhokeM/IRm7f87uV6hJVzzYn/BHS/mcHXL582c6fP3/gswOUOorIHWiluqt8dy+R2y/iLHvJZ3rXZVb4cxc/1Ox9dsDvfvc7u3Dhgl2+fNkeX/HsAKWOcS6lukylVGel316pLnOpBJxS8KvVhZk/0tj77IAzZ87Yz372M+8qyVIKirkih+JUSnWmvccaNQjJ+RJ2lPef//zHuwr3Uepg5iIAxm+v8N3RZ7c9vlepLmu2J/wBUUrh0kuFfZyrwj7OpdQmKsG/Vtjw32w23lVAAEqdhopKgas442pNJYyUjpNoKyFLvndtXcKGP9CDyskdmUq4RGxzlTZRamuVukStx2GfkQl/ZvLAlyIGV1QqnXolKoOQCr/lYfs4O/wJaUBPtM60Qqe7K/tvE7UePb9bZdZ/1PbdZv4MEgC0kj1gKg2GVKgcI171eICQRlZ07PdSqUclKsdU9aCjHveTueYPRBOtY1epR+YOlXpQjyj1IPwBABDUc7WOx/sCHakstWdfTZi7PfWgHq2+M2o9CH9AiMpgYa6o9YbOb6cQ/EsoBP+SfVu07M9NgshGpSOZS6UeU6jUVSVkFOoRdZYbKcjnbj+iLba2vnirH6/qBfJS6NCWUOhYe1H4TUaFjHc9Mg/G1mzPDX9AJypBg+UidvAqGIwt336Eu9f8e8z+dy8PTP3eXisQKvWApjm/tcIst+ex2asebLuMQp1pi/7betQj9Myfew+Aoyl03Ap1UEFbfEkldBV4tEXo8AfWyt6p9KLQFgrhodAOZhr7p7DtXAp19tpWLvyZzSMDlc6tRx0Uto1Iod0Utu1JYf+ibCsX/gAOp9LJelO4RIFlFMJxjqzHBOEPJJW105pLIRTYdj6V5f5e3+u97T3h32vJnaV8YL1oHVavOiAuheOHbT/HzB9lZQ49hTBV2De2ZVu2PXjbxeHPbB44mELwTqVQV+oQsw7RBnfU4d5tmfkDThQ6+zkU6hutDtGCoZdIdejZtgp12EX4A8eI1HHN3bYX6jCPQl0VjjHvJXGFmwxHDT4If5Sk0Hl5U6grgTMfoafRBt51WFtfwh/AsRQGCnNEqm+kuprFC70eMtT3vvDnRj6gv2idxxwKs82pvGebc0UKXoXjIEobeGzLzB/lKIROL1n3jf3KWf5cCgOwHjz2i/AHjhCpA5kjaydq5j/b68W7vt6z/kirKXO37fWdR21P+AONKCxzeovU6ffi3QYZy5/LO3gV2uu47Ql/QFi04PPmHXw9eJevIFrweptSX8nw56ZDYD7v4Mvakc7h3QZRjoE5vMufy/ucmbqtZPgDvSh0DpjOO0x6iBZmWUUZKPU6Bgh/4BAZgycz79/L+7eNtP8Zg9e7/edsv7V1yIt9eiy7s5SPzLxPfO/OzLv8Ht8Zaf8z1jXrsTJ1+7nlz21XZv4AwmvdmSIv7+NA5VhdFf7M5oE4InR6KrLOOr1n3RHKnzOL7lX+HEvLZ+aPMrzDx7v8Obzr6l0+MEXkQSLhDxzAO3y8O5U5spXv3faVZ93e5Vfad8IfWMk7/KbwrqN3p6pA5Vpvq/Kjh59S2R7lE/4A7uE5k/YWaeARqa5TeIevJ486Hhr+3MwHtJOts9oVZcndu02Z9euWrVD+HK3KZ+aPErw71l6y7peHSG3pHUCZRGrLlnUl/IF9vE/w1qJ0bpHa3fvPu1qrPOvvRX1VjPAHVojQsfcSZaDgGUA9RNl39bLnytZOR4Y/1/2BsbyDBW2pDw69AzWKSIOUqWRn/gw8gKNlmllFmVV5a7nvPfc7yrEZYVWo1w2OsuEPtBKpc4e2qgMP7wDMyHvgQfgDe1T9G/cos/7Kosz6W8s461coe2j4s5SPTKIsfXtSb6PMnXsrGctW/31GlM3MHwCERbkhkLLHl71m2xOTP3mIzWYTZhYC4H7ZZzjRy54jY2iNLjvKcbF2W2b+SC1KZ4g6olzeyRLmONixM/8pM/vda/lTfoQ5KwXqZSOPCB1drz/5oexx282RqX08y46wLz2+87jtmPkDM0QYEEaYLUYIywh1rFp2pn3p8Z1Ttmsa/tzND8QRYSATQYTBVrayW4vQjq3ryMwfaUU4ob2+L1vZEdo722zVq+xMy/2e7T0p/JnRA30wexorQh2nijAoa/19mfa5R9lztnOZ+TOYgJKKgZCpI2tdbo/vjDAT7LGd1589sjpw/Pet/jt/AMtEGHRUrGPFAVSm37ni77JkO675AxNF6CC9ROiY1UVom0yDDvU69i6X8AfERVj+bk1hZtSK+u/nvfzcctssy/0jyiX8gcayzhTwpQhtneU4pK37lMs1f5QW8aQdRb0Tz9SG6rNv2jrudodty8wfaEg94FjWHrfdVF6/Saa77LMcMyMvR0wOf/48D5VFmPlkkKmdIwwSqpXrNSjyctS+nPjnP//Z5IuWaPl9c0ZMjz32mH3nO99pVjbgTfncrPh9nuW2DDjPm/I8ys10E+Jx25344x//OOmLMvnpT39K+MNNlZnFnG16qTZIUK+f1/e1lmF/ueYPHEO9I5pKfT+yBNfU76wW6D2+02vWP5Xy/hL+KIsw1Cp3KvXlZS/q7aK8XaXl/l2EP9BItbBWD0MvHvcytaZernr91Mvd2tri7/yBkbJ0Hq1lmbWO/q6531mt/TLc/NijXDNm/gD2UB8kqFMfJFQqN8t+tC53dztm/sAR1E9kLxlutFJv46nUj9FKNz+2nKX3Xmlg5o+SKnX8lfbVs1z1kFOtn/plEPW/Ali6r4Q/0AAhrIPfQof6IKElhUCfg/AHYGY+11yzdOjqIecx6690s53Hcv/aMgl/lJMlcKKXOQdtcj/1+nlQbxOl45jwB4LymFln6FyV24RZ//Lt5qjSJkdtx93+wCHUO3Vl6p2/R5mq14Q9Qm4qj+X+TJcYjsLMHyiu0sCk2qxfscweoredx2CT8AdWUu8EWlHfz5YzutbU265Vmer7qXKz3VIt60f4AwEpDxKiy9K2DIb8Ke8n4Y9SlGdNWajOdFqLfL13Dmb9y7ZrqcdKA+EPHKBKYGfp2FtR79hbfafynfbKN/kp121umYQ/IEI5FD0ot0eWQUIryu2hXDePMne3I/yBFZRPcg+R20N9ltuqzNHfM+c7s/9t/dxte9aNv/NHGZGDqUfZyu1RdVb3zDPP2AsvvNDt+9HGz3/+c/vJT36y6ju8B0LM/AEcSXmlYSrFQUKGdsW9lFdd9iP8gX0Ug8L7+1qUqRx2yisNiKHVcv+omwoJfyCQSDOL3pT3Qblu8KVyDnPNH1go8kx3KsUVhNbfN3ofMxwXuFfEPzlk5g8EoRwa3jcvjaBcN/iJGPxmRWf+m83GuwoYzONPg6ZqVabyn0m1Km/qdtHbAvqUH5A1ZTtm/oAj1cBQfaKf6oyfVYFalAeXU7+L8Ae+oNoxq9YrOtoVCryOQ8If6EB1mVh1Fs53IRvV5f7dbUpe80ctFTpd1ZCK/F0s5WOp0cv9S8pj5g/AFeGJiryPe2b+wAyR/ybcu7MZQfX3Ub0MhPZGP8SHZ/sDGEY1ZFt9F0GMnhTOH8IfMI2TUQEh2x7tUIfiMzt4wh9Kin5HfavyKlw+UOx4UYfqcv9hCH8A0ghZZKE0QCD8gYkUZ/SqFJe61f/uGnGNXnWa4rjvIvyBhiJ39tnrPvJ7UEfUQSzhj/Iid/iKM46WVOs1ReR2xzQRHuZzGMIfQFNRQ48b/TBH5ODnxT6AKAJmuuyDDaAHwh9pKXauUa8Ptv6uVuUp1mnOdshNddZvRvgDk2TuzFUDdCTaAK2pH1OEP9CI+sk+AnU6vjzFNoIP3uoHOFHsiKnT2CV/lvLR2shQ58U+QCd0+u3QlshO8ZkTvNgHcKQYfJFvCJxCbXVAsY0wXqvjZM3xRPgDAWUOEcUlf2CKkcfT2gEC4Q/gSCODNnIYR6471lNcHeLFPkBnEWei2cNq5NJqxN8f4ykdk4Q/ysoetFn3j4CEmogDRMIfOIJi0EQM2qhL/iNviFTcf4zDi30ArKYUJIqrHtn/ygHjtAhtj2OI8AdERJzRt/6urGUpdv5YT3G5n7f6AYNk7dijBu3IsqL+tlhP8ZjlxT4AymrRKRPqaEH5ODrhXQHAg/JJeZSo1xdbyFrvqPtVmdolIV7sAzREp3y8aLNslvwxitrxsb8+zPwBAWp/CqfWcU11VL093t7HrL+mFsda7+OVmT/KqRyiavWZSq3eavVBPCOD/6DtCH8AbtRCtPLAEG2o/a682AfoIMqJ7lWWWn1GUqsP+lNb7ufFPoAwtZCgPkeLdpMj8mlx/BD+wAHUOni1+rSQuT4tZnaIZdSsv9XKAOGPUuh42xi15O9xh75COYhl5HL/2nJ2lf1Tv81mc2wDTdkG+ag9r1upPiPrm3Ub5DH6mGj5kC9m/oATtVCKFlwR2yZaG2OMUccpT/gDgMYI9lrUBp9zjz/CH2WozQKVqHVS0do44z4hjiXHH+EPdKDU0SvVpRUGIvCkdPwt/Q7CH3BAoGA/jgns1/OYIPwBURlnpewTKvCc0U/dhvAHiqu6PJ5xn+AvynFF+AOJKXQycygNRJSu66KWEccV4Y8S6KT9KbWdUl2QR4Tl/l2EP9CYysmNGPgd4aHs430BaA1EDvuOzz77zDabTbNypnyP15L/f//732O3hybVY+qw/yf8AXS3JrR/8Ytf2K1btxrWBtAzerWPZX+gIZZwgXpazPpb4cU+gCClwYH6E8iACCL9ZQkv9gGEKV2HB3A47/th1uCaP9IjTAG0ptRn8GIfAGYWa6ASqa5Aa2svm/FiHwCTsRoC9DXqfpmlCH+gEaW/8wUQGy/2ARCW0p9AAaNEGMQT/gAACOHFPsBKFZfaufwA+Fl77vBiHwCpMcBANpGOacIfGKDibDtSXQEFI/sJwh84BiEG4DiRBu9bW1uEP9CCykl9HJUViEgdJdCCyr04vNgHCEYlMFXqAajwekrfkm12Ef5Ii5ACgC/t7e94sQ/QmcoghHoAbam81Y8X+wAAkEivgTDhDxxBZQaqMltWqQfgLfrNsyz7AysRdtMxeEAGyqE+dRtm/kBHKkFG6AJ6PM85wh8pRQo7lXoooC2QQYTn+xP+AGSuXwIYg/AHxGUJ3Qh1BNaKMOs3I/yBQ2UJqyj7EaWeQC+82AcIYsQIHkAMUc55XuwDYMhsQ6HDA3qKsty/q/Tf+W82Gzqloka9aKN3GVke7MN5iMhGnKet+4vS4Y+aRp2ICmUodEoEOzIbMZHg2f4AhooyyAE8RJ5IEP6AgyidBoDllFfWCH9gnyrBrNwxAeoUzh+e7Q8AgBD1gS/hDwhSWH3gej9wsOizfjPCH8UohCqmo60R0YhgX1sHwh8YLMqsoXcdACzT4twi/AG4YHCAjHoPzFs9N4DwBwCgGMIf2EPhngCFGTF1AOaLMus3I/yBchSu9xPsyEbhnJhTBuEPDKQQvADiaX1e82IflEHwTqOwjxnaEXV4L/fzYh8AAHAswh8Q0nvGqzBrZ1aPTHof771uAiT8gS8QShr4HRDFiLvz1+LFPoCzCPccMGsHdPQ8Hwl/AMMwuEAWvWf9vNgHAAA0RfijBJbcNW72AypQn/WbEf4AvuA9+GDggCrWBP/a79/9f8IfGIBZN1BDlD/XJfwByx+cCs8VB+C/3M+LfQAAaCjSAJjwBwSoXw/nej+wnsqs34zwRwER7vTPjLZBBWv6CI8+ivAHOvO+2Y/r/UBsPc5hwh+AKwYOiK7nAJsX+wAAgCZOeFcA8OZ9Pd+7/ONULx84TOub8Fp+9rhtmPkDialf7yfYkZn3ucGLfQAn3jf7Aegj+sCZ8EdqhO863vvmXT6wlOJNfnsR/gAAzOA962+B8Acced7s5/3wI+/OD+hFfdbPW/1Qnvqd9pXR9ohoTTiPHJAT/kAn6nfae343gPlanpOEP4DhGFggo56z/tbPFCj/kJ/NZnNkgx33/9C19mTyviTg+XAQ77bhnEM0nve3LDkfmfkDDrzDdQ31gQMwmucrr5d+lvAHAKAT1cEw4Q8UozzzZtaPaJTPFx7vC8ykOlqfggAFxoh8CYzwBwaLHM7KnRmQSc9zjYf8AIIIUEBf9IEw4Y+SvE88L8odUtXfBNiv96zfjPAHMAjhjixGhPPS/5+K8AcSIWCB2qYOLAh/lBP9Wp2Xnu1StU2Rj/KTOfci/IHGVE5uANi1v+8g/IEiPAcWDFpQQZRZvxnhDwBAd56Da17sA3SmdoKP+m6Fu5cBT17n39JyCX+gAAIW6Ef5Zlje6gc4I4ABtMSLfYCJlJegKw4OlH8PYArPS2ZrEP7ADBnDiD8/BPT0Pi8JfyAAAhjQE3XgzFv9gAJUL2UwYEFkyn8hM+XcIvwBSGJwALTHW/2AxiL+rXvUZUtAmeqsnxf7AABQGOGPMirOUlX3mRUFZBVh1m9G+AN3qQaSar2Oo1ovQBEv9gEAICCvgTov9gEEqc7cudkPGEfthmDCH8BQDCqQUbRBPOEPNEBg3Yv2AL7k+Va/wxD+gLBes2TVcFatF3AUpWv5U/+f8Adwn2qDDqCXpedS78tjhD9K8Lq5jevbQG6q5/BxNxgS/gBmYVUA+FyvSQUv9gEAAM3wYh9gItVLAqrXEkd/L+BB9fycep4R/gAAFMBb/YABMs50ud4PxJ/1mxH+QEqEKYC99vcJJ5zqAQzDn9t9iev9QF8es/4lnyX8zWyz2dA54UBrTril37um3J7Hca86ce4hg9HhvfazLPsDMDPNEFasEzCX17P9ebwvcAivWfRRFAOPywFAH14DA8IfKEJxoANk4HV5cOlnebwv0lOcvWcL2mz7A4ziea8M4Q8EEm1Qofgec6Alj3OyxQ2ChD+AI3G9HzhYz2X53gh/YIFogUjQAmMpz/rNCH8gDAYGgI7o5yPhj7I8Qi9b0Cre5Qx4U3wT6P7/I/yBAxA+n4s+uwF6ULzWP/d7CX8gAcIU0OAxYF5SJuGPtBT/xt+D913FcynWCWhB6c8CCX9ARLTQi1ZfoLcos34zwh+YjRsFj6f4VkLAk9Ks34zwB5rKFGzR6gt4UrmRbyrCH0iMAAdqOm7QcGJgXQAZzNC5fAG00uMFPbzYB4CcHoMnBgZAG7zYBwhCbSWCIAam6XE9v/es34zwR0GE6TqZ9gVYY0RItyyTF/sAxTEAAnwtnfW3QvgDM6gFmFp9lsqyH6gj8qzfjPAHmiHAaANgCu9Zv5nxp36AN7XAVLv5EIhm9Kx/yYoAM39gD7Vw81g67IEBBaro9Xf9S/FiH8AJbxcEsAYv9gEgS+E6JqBMZdZvRvijmExBVOEpe2r1AY4y+pzkxT7AANWDKMv9B0AFx51bhD/QgNqofuR3Aog169/a2iL8AQDw0uM+gCmfJfyBL6j9bW4krFKgskgreLzVDwgsw0CFcEd1S2b9vNgHwIEIVWCcqKt7hD/KUD4RR4jUSanVBzhIj+vyI2b9ZoQ/IClS+EWqKzCK+nlB+AMTLDmR1U/+EXjqH7KKPOs3I/yB1bIPDCLVFVAwuk9Y8lle6QsEw2AD8PWrX/3Kfv3rX3tXY5LDzifC/wubzebQRjrq/xBDr9dsKv3J3einiI3+P0DFrVu3vKuwGsv+AAAUQ/ijvNFvwFN6457STFupLkB2hD8gROkFIEp1AdAW4Q90kD3ksu8fkB3hDwBAMYQ/AADFEP7AQBlu9uNeACA+wh/pKQVuD1Fu9gOgg/AHRBCcAEYh/FEaM1x/tCUwHuEPAEAxhD/QWISZbJR7ASK0JRAR4Q8MEiUAW9eTAAf0EP4A3DAwAHwQ/oCAKKsCI2XeN8Ab4Q8cIEMYt66L0r4BWIfwR2oE1v2UHgoEwAfhj7IIOl+0I+CH8AcG4E/k5olef0Ad4Q8ERUACWIrwB5yNDHFWIACYEf4AvjAy4BkUAL4IfwBSGBgA/RH+SIslbgA4GOEPdBZhENJj4KJSDwD3I/xRUsXZvco+R25DIAvCH3CkEshLqdQDwDyEPwAAxRD+QHEqs3eVegAVEP4oRyVkKj7cR6XtgeoIf6AjldAFgL0If2CPCKGrEvAq9QAwH+EPwB0DCWAswh+YKGNAVVyxAED4Ay4ihG6ESyAAliH8AQAohvAHOsk8425ZFisFwHiEP0qJHjQK9R/5wh6F/QUyIvyBoghWoK4T3hVQstls6BALW/JUutaz4Nb/N/IJfa3bj3MR6IeZPxAcIQlgLsIfCKB1wDPjBmoj/FEGgbfOyPbj9wD6IvyBDgiv49FGgB/CH1iI2e7xMu4TkAHhDxyBgAeQEeEPBDbyT+8A5EH4A+IUAlnlWQcA2iD8AQAohvAHElKYPY98BwCAeQh/lKC+zEwdAIxE+AODKIQrdQBgxot9kNSdO3fss88+u/vvkS+XGfWCmyr13mw2h24PYBnCHyl9+umn9stf/tK7GgAgiWV/AACKIfwBACiG8AcAoBjCHwCAYgh/AACKIfwBACiG8AcAoBjCHwCAYgh/AACKIfwBACiG8AcAoBjCHwCAYgh/AACKIfwBACiG8AcAoBjCHwCAYgh/AACKIfwBACiG8AcAoBjCHwCAYgh/AACKIfwBACiG8AcAoBjCHwCAYgh/AACKIfwBACiG8AcAoBjCHwCAYgh/AACKIfwBACiG8AcAoBjCHwCAYgh/AACKIfwBACiG8AcAoBjCHwCAYgh/AACKIfwBACiG8AcAoBjCHwCAYgh/AACKIfwBACiG8AcAoBjCHwCAYrbMbONdidEeeugh+8Y3vnHg/21tbc3+vn//+992586dtdUCAGCIkuEPAEBlLPsDAFAM4Q8AQDGEPwAAxfwfRozlRhaSEuUAAAAASUVORK5CYII=;labelBackgroundColor=none;opacity=8;shadow=0;imageBackground=#1C1D26;fillColor=#5D7F99;strokeColor=#D0CEE2;fontColor=#1A1A1A;fontStyle=1" parent="WIyWlLk6GJQsqaUBKTNV-1" vertex="1">
          <mxGeometry width="630.15" height="2110" as="geometry" />
        </mxCell>
        <mxCell id="vgmwdCEmkdbrPYk_LxWR-63" value="" style="rounded=0;whiteSpace=wrap;html=1;shadow=0;glass=0;strokeWidth=1;align=center;verticalAlign=middle;fontFamily=Helvetica;fontSize=11;labelBackgroundColor=none;fillColor=none;arcSize=0;dashed=1;strokeColor=#7F87C6;fontColor=#1A1A1A;fontStyle=1;" parent="WIyWlLk6GJQsqaUBKTNV-1" vertex="1">
          <mxGeometry x="10" y="160" width="610" height="409" as="geometry" />
        </mxCell>
        <mxCell id="vgmwdCEmkdbrPYk_LxWR-67" value="" style="rounded=0;whiteSpace=wrap;html=1;shadow=0;glass=0;strokeWidth=1;align=center;verticalAlign=middle;fontFamily=Helvetica;fontSize=11;labelBackgroundColor=none;fillColor=none;arcSize=0;dashed=1;strokeColor=#7F87C6;fontColor=#1A1A1A;fontStyle=1;" parent="WIyWlLk6GJQsqaUBKTNV-1" vertex="1">
          <mxGeometry x="10" y="1229" width="610" height="460" as="geometry" />
        </mxCell>
        <mxCell id="NXNk40Ljr5GX-lerWOVr-6" value="" style="rounded=0;whiteSpace=wrap;html=1;shadow=0;glass=0;strokeWidth=1;align=center;verticalAlign=middle;fontFamily=Helvetica;fontSize=11;labelBackgroundColor=none;fillColor=none;arcSize=0;dashed=1;strokeColor=#7F87C6;fontColor=#1A1A1A;fontStyle=1" parent="WIyWlLk6GJQsqaUBKTNV-1" vertex="1">
          <mxGeometry x="10.079999999999984" y="670" width="610" height="460" as="geometry" />
        </mxCell>
        <mxCell id="WIyWlLk6GJQsqaUBKTNV-2" value="" style="rounded=0;html=1;jettySize=auto;orthogonalLoop=1;fontSize=11;endArrow=block;endFill=0;endSize=8;strokeWidth=1;shadow=0;labelBackgroundColor=none;edgeStyle=orthogonalEdgeStyle;fontColor=default;strokeColor=#736CA8;fontStyle=1" parent="WIyWlLk6GJQsqaUBKTNV-1" source="WIyWlLk6GJQsqaUBKTNV-3" target="WIyWlLk6GJQsqaUBKTNV-6" edge="1">
          <mxGeometry relative="1" as="geometry" />
        </mxCell>
        <mxCell id="WIyWlLk6GJQsqaUBKTNV-3" value="Run Skyscraper to generate frontend output" style="rounded=0;whiteSpace=wrap;html=1;fontSize=12;glass=0;strokeWidth=1;shadow=0;align=center;verticalAlign=middle;fontFamily=Helvetica;labelBackgroundColor=none;fillColor=#5D7F99;strokeColor=#D0CEE2;fontColor=#1A1A1A;fontStyle=1" parent="WIyWlLk6GJQsqaUBKTNV-1" vertex="1">
          <mxGeometry x="16" y="100" width="140" height="50" as="geometry" />
        </mxCell>
        <mxCell id="WIyWlLk6GJQsqaUBKTNV-4" value="&lt;font style=&quot;color: rgb(154, 69, 78);&quot;&gt;Yes&lt;/font&gt;" style="rounded=0;html=1;jettySize=auto;orthogonalLoop=1;fontSize=11;endArrow=block;endFill=0;endSize=8;strokeWidth=1;shadow=0;labelBackgroundColor=none;edgeStyle=orthogonalEdgeStyle;fontColor=default;strokeColor=#736CA8;fontStyle=1" parent="WIyWlLk6GJQsqaUBKTNV-1" source="WIyWlLk6GJQsqaUBKTNV-6" target="WIyWlLk6GJQsqaUBKTNV-10" edge="1">
          <mxGeometry x="-0.0323" y="24" relative="1" as="geometry">
            <mxPoint as="offset" />
          </mxGeometry>
        </mxCell>
        <mxCell id="WIyWlLk6GJQsqaUBKTNV-5" value="&lt;font style=&quot;color: rgb(154, 69, 78);&quot;&gt;&lt;span&gt;No&lt;/span&gt;&lt;/font&gt;" style="edgeStyle=orthogonalEdgeStyle;rounded=0;html=1;jettySize=auto;orthogonalLoop=1;fontSize=11;endArrow=block;endFill=0;endSize=8;strokeWidth=1;shadow=0;labelBackgroundColor=none;entryX=0;entryY=0.5;entryDx=0;entryDy=0;fontColor=#1C1D26;strokeColor=#736CA8;fontStyle=1" parent="WIyWlLk6GJQsqaUBKTNV-1" source="WIyWlLk6GJQsqaUBKTNV-6" target="716T7uITC5oRyI5Owgtr-7" edge="1">
          <mxGeometry y="10" relative="1" as="geometry">
            <mxPoint as="offset" />
            <mxPoint x="202" y="230" as="targetPoint" />
          </mxGeometry>
        </mxCell>
        <mxCell id="WIyWlLk6GJQsqaUBKTNV-6" value="-g &amp;lt;path&amp;gt;&lt;div&gt;provided?&lt;/div&gt;" style="rhombus;whiteSpace=wrap;html=1;shadow=0;fontFamily=Helvetica;fontSize=12;align=center;strokeWidth=1;spacing=6;spacingTop=-4;rounded=0;labelBackgroundColor=none;fillColor=#5D7F99;strokeColor=#D0CEE2;fontColor=#1A1A1A;fontStyle=1" parent="WIyWlLk6GJQsqaUBKTNV-1" vertex="1">
          <mxGeometry x="20" y="190" width="132" height="80" as="geometry" />
        </mxCell>
        <mxCell id="WIyWlLk6GJQsqaUBKTNV-8" value="Yes" style="rounded=0;html=1;jettySize=auto;orthogonalLoop=1;fontSize=11;endArrow=block;endFill=0;endSize=8;strokeWidth=1;shadow=0;labelBackgroundColor=none;edgeStyle=orthogonalEdgeStyle;fontColor=#9A454E;strokeColor=#736CA8;fontStyle=1" parent="WIyWlLk6GJQsqaUBKTNV-1" source="WIyWlLk6GJQsqaUBKTNV-10" target="WIyWlLk6GJQsqaUBKTNV-11" edge="1">
          <mxGeometry x="0.1667" y="24" relative="1" as="geometry">
            <mxPoint as="offset" />
            <Array as="points">
              <mxPoint x="86" y="480" />
            </Array>
          </mxGeometry>
        </mxCell>
        <mxCell id="WIyWlLk6GJQsqaUBKTNV-10" value="Is&amp;nbsp;&lt;div&gt;&amp;lt;path&amp;gt;&lt;/div&gt;&lt;div&gt;absolute?&lt;br&gt;&lt;div&gt;&lt;br&gt;&lt;/div&gt;&lt;/div&gt;" style="rhombus;whiteSpace=wrap;html=1;shadow=0;fontFamily=Helvetica;fontSize=12;align=center;strokeWidth=1;spacing=6;spacingTop=-4;rounded=0;labelBackgroundColor=none;fillColor=#5D7F99;strokeColor=#D0CEE2;fontColor=#1A1A1A;fontStyle=1" parent="WIyWlLk6GJQsqaUBKTNV-1" vertex="1">
          <mxGeometry x="36" y="332" width="100" height="80" as="geometry" />
        </mxCell>
        <mxCell id="WIyWlLk6GJQsqaUBKTNV-11" value="Normalize game list folder &amp;lt;path&amp;gt;" style="rounded=0;whiteSpace=wrap;html=1;fontSize=12;glass=0;strokeWidth=1;shadow=0;align=center;verticalAlign=middle;fontFamily=Helvetica;labelBackgroundColor=none;fillColor=#5D7F99;strokeColor=#D0CEE2;fontColor=#1A1A1A;fontStyle=1" parent="WIyWlLk6GJQsqaUBKTNV-1" vertex="1">
          <mxGeometry x="31" y="460" width="120" height="40" as="geometry" />
        </mxCell>
        <mxCell id="716T7uITC5oRyI5Owgtr-1" value="Start" style="strokeWidth=2;html=1;shape=mxgraph.flowchart.start_2;whiteSpace=wrap;gradientDirection=radial;rounded=0;shadow=0;glass=0;align=center;verticalAlign=middle;fontFamily=Helvetica;fontSize=12;labelBackgroundColor=none;fillColor=#5D7F99;strokeColor=#D0CEE2;fontColor=#1A1A1A;fontStyle=1" parent="WIyWlLk6GJQsqaUBKTNV-1" vertex="1">
          <mxGeometry x="61" y="20" width="50" height="50" as="geometry" />
        </mxCell>
        <mxCell id="716T7uITC5oRyI5Owgtr-7" value="&amp;nbsp;gameListFolder = &amp;lt;path&amp;gt;&lt;div&gt;set in configfile?&lt;/div&gt;" style="rhombus;whiteSpace=wrap;html=1;shadow=0;fontFamily=Helvetica;fontSize=12;align=center;strokeWidth=1;spacing=6;spacingTop=-4;rounded=0;labelBackgroundColor=none;fillColor=#5D7F99;strokeColor=#D0CEE2;fontColor=#1A1A1A;fontStyle=1" parent="WIyWlLk6GJQsqaUBKTNV-1" vertex="1">
          <mxGeometry x="300" y="190" width="151" height="80" as="geometry" />
        </mxCell>
        <mxCell id="716T7uITC5oRyI5Owgtr-10" value="&lt;font style=&quot;color: rgb(154, 69, 78);&quot;&gt;No&lt;/font&gt;" style="edgeStyle=orthogonalEdgeStyle;rounded=0;html=1;jettySize=auto;orthogonalLoop=1;fontSize=11;endArrow=block;endFill=0;endSize=8;strokeWidth=1;shadow=0;labelBackgroundColor=none;entryX=0;entryY=0.5;entryDx=0;entryDy=0;fontColor=#1C1D26;strokeColor=#736CA8;fontStyle=1;align=center;verticalAlign=middle;fontFamily=Helvetica;" parent="WIyWlLk6GJQsqaUBKTNV-1" source="716T7uITC5oRyI5Owgtr-7" target="716T7uITC5oRyI5Owgtr-14" edge="1">
          <mxGeometry x="-0.64" y="10" relative="1" as="geometry">
            <mxPoint as="offset" />
            <mxPoint x="423" y="229.5" as="sourcePoint" />
            <mxPoint x="481" y="229.5" as="targetPoint" />
            <Array as="points" />
          </mxGeometry>
        </mxCell>
        <mxCell id="716T7uITC5oRyI5Owgtr-14" value="Use built-in default for frontend" style="rounded=0;whiteSpace=wrap;html=1;fontSize=12;glass=0;strokeWidth=1;shadow=0;align=center;verticalAlign=middle;fontFamily=Helvetica;labelBackgroundColor=none;fillColor=#5D7F99;strokeColor=#D0CEE2;fontColor=#1A1A1A;fontStyle=1" parent="WIyWlLk6GJQsqaUBKTNV-1" vertex="1">
          <mxGeometry x="483" y="210" width="117" height="40" as="geometry" />
        </mxCell>
        <mxCell id="716T7uITC5oRyI5Owgtr-15" value="Make&amp;nbsp; &amp;lt;path&amp;gt; absolute with current work dir (CWD) as base" style="rounded=0;whiteSpace=wrap;html=1;fontSize=12;glass=0;strokeWidth=1;shadow=0;align=center;verticalAlign=middle;fontFamily=Helvetica;labelBackgroundColor=none;fillColor=#5D7F99;strokeColor=#D0CEE2;fontColor=#1A1A1A;fontStyle=1" parent="WIyWlLk6GJQsqaUBKTNV-1" vertex="1">
          <mxGeometry x="160" y="348" width="140" height="48" as="geometry" />
        </mxCell>
        <mxCell id="716T7uITC5oRyI5Owgtr-16" value="&lt;font style=&quot;color: rgb(154, 69, 78);&quot;&gt;Yes&lt;/font&gt;" style="rounded=0;html=1;jettySize=auto;orthogonalLoop=1;fontSize=11;endArrow=block;endFill=0;endSize=8;strokeWidth=1;shadow=0;labelBackgroundColor=none;edgeStyle=orthogonalEdgeStyle;exitX=0.5;exitY=1;exitDx=0;exitDy=0;fontColor=default;strokeColor=#736CA8;fontStyle=1" parent="WIyWlLk6GJQsqaUBKTNV-1" source="716T7uITC5oRyI5Owgtr-7" target="716T7uITC5oRyI5Owgtr-19" edge="1">
          <mxGeometry x="-0.04" y="25" relative="1" as="geometry">
            <mxPoint as="offset" />
            <mxPoint x="381" y="270" as="sourcePoint" />
          </mxGeometry>
        </mxCell>
        <mxCell id="716T7uITC5oRyI5Owgtr-17" value="Yes" style="rounded=0;html=1;jettySize=auto;orthogonalLoop=1;fontSize=11;endArrow=block;endFill=0;endSize=8;strokeWidth=1;shadow=0;labelBackgroundColor=none;edgeStyle=orthogonalEdgeStyle;entryX=1;entryY=0.5;entryDx=0;entryDy=0;exitX=0.5;exitY=1;exitDx=0;exitDy=0;fontColor=#9A454E;strokeColor=#736CA8;fontStyle=1" parent="WIyWlLk6GJQsqaUBKTNV-1" source="716T7uITC5oRyI5Owgtr-19" target="WIyWlLk6GJQsqaUBKTNV-11" edge="1">
          <mxGeometry x="-0.8082" y="25" relative="1" as="geometry">
            <mxPoint as="offset" />
            <mxPoint x="381" y="472" as="targetPoint" />
            <Array as="points">
              <mxPoint x="375" y="480" />
            </Array>
          </mxGeometry>
        </mxCell>
        <mxCell id="716T7uITC5oRyI5Owgtr-19" value="Is&amp;nbsp;&lt;div&gt;&amp;lt;path&amp;gt;&lt;/div&gt;&lt;div&gt;absolute?&lt;br&gt;&lt;div&gt;&lt;br&gt;&lt;/div&gt;&lt;/div&gt;" style="rhombus;whiteSpace=wrap;html=1;shadow=0;fontFamily=Helvetica;fontSize=12;align=center;strokeWidth=1;spacing=6;spacingTop=-4;rounded=0;labelBackgroundColor=none;fillColor=#5D7F99;strokeColor=#D0CEE2;fontColor=#1A1A1A;fontStyle=1" parent="WIyWlLk6GJQsqaUBKTNV-1" vertex="1">
          <mxGeometry x="325" y="332" width="100" height="80" as="geometry" />
        </mxCell>
        <mxCell id="716T7uITC5oRyI5Owgtr-20" value="Make&amp;nbsp; &amp;lt;path&amp;gt; absolute wirh configfile-path as base" style="rounded=0;whiteSpace=wrap;html=1;fontSize=12;glass=0;strokeWidth=1;shadow=0;align=center;verticalAlign=middle;fontFamily=Helvetica;labelBackgroundColor=none;fillColor=#5D7F99;strokeColor=#D0CEE2;fontColor=#1A1A1A;fontStyle=1" parent="WIyWlLk6GJQsqaUBKTNV-1" vertex="1">
          <mxGeometry x="453" y="348" width="137" height="48" as="geometry" />
        </mxCell>
        <mxCell id="716T7uITC5oRyI5Owgtr-23" value="" style="rounded=0;html=1;jettySize=auto;orthogonalLoop=1;fontSize=11;endArrow=block;endFill=0;endSize=8;strokeWidth=1;shadow=0;labelBackgroundColor=none;edgeStyle=orthogonalEdgeStyle;entryX=1;entryY=0.5;entryDx=0;entryDy=0;fontColor=default;strokeColor=#736CA8;fontStyle=1" parent="WIyWlLk6GJQsqaUBKTNV-1" target="WIyWlLk6GJQsqaUBKTNV-11" edge="1">
          <mxGeometry y="20" relative="1" as="geometry">
            <mxPoint as="offset" />
            <mxPoint x="230" y="396" as="sourcePoint" />
            <mxPoint x="230" y="458" as="targetPoint" />
            <Array as="points">
              <mxPoint x="230" y="480" />
            </Array>
          </mxGeometry>
        </mxCell>
        <mxCell id="716T7uITC5oRyI5Owgtr-24" value="" style="rounded=0;html=1;jettySize=auto;orthogonalLoop=1;fontSize=11;endArrow=block;endFill=0;endSize=8;strokeWidth=1;shadow=0;labelBackgroundColor=none;edgeStyle=orthogonalEdgeStyle;entryX=1;entryY=0.5;entryDx=0;entryDy=0;fontColor=default;strokeColor=#736CA8;fontStyle=1" parent="WIyWlLk6GJQsqaUBKTNV-1" target="WIyWlLk6GJQsqaUBKTNV-11" edge="1">
          <mxGeometry x="0.3333" y="20" relative="1" as="geometry">
            <mxPoint as="offset" />
            <mxPoint x="430" y="550" as="targetPoint" />
            <mxPoint x="529" y="396" as="sourcePoint" />
            <Array as="points">
              <mxPoint x="529" y="480" />
            </Array>
          </mxGeometry>
        </mxCell>
        <mxCell id="716T7uITC5oRyI5Owgtr-26" value="Yes" style="rounded=0;html=1;jettySize=auto;orthogonalLoop=1;fontSize=11;endArrow=block;endFill=0;endSize=8;strokeWidth=1;shadow=0;labelBackgroundColor=none;edgeStyle=orthogonalEdgeStyle;fontColor=#9A454E;strokeColor=#736CA8;fontStyle=1" parent="WIyWlLk6GJQsqaUBKTNV-1" source="716T7uITC5oRyI5Owgtr-28" target="716T7uITC5oRyI5Owgtr-31" edge="1">
          <mxGeometry y="20" relative="1" as="geometry">
            <mxPoint as="offset" />
          </mxGeometry>
        </mxCell>
        <mxCell id="716T7uITC5oRyI5Owgtr-27" value="No" style="edgeStyle=orthogonalEdgeStyle;rounded=0;html=1;jettySize=auto;orthogonalLoop=1;fontSize=11;endArrow=block;endFill=0;endSize=8;strokeWidth=1;shadow=0;labelBackgroundColor=none;entryX=0;entryY=0.5;entryDx=0;entryDy=0;fontColor=#9A454E;strokeColor=#736CA8;fontStyle=1" parent="WIyWlLk6GJQsqaUBKTNV-1" source="716T7uITC5oRyI5Owgtr-28" target="716T7uITC5oRyI5Owgtr-33" edge="1">
          <mxGeometry x="0.0476" y="13" relative="1" as="geometry">
            <mxPoint as="offset" />
            <mxPoint x="204" y="782" as="targetPoint" />
          </mxGeometry>
        </mxCell>
        <mxCell id="716T7uITC5oRyI5Owgtr-28" value="-i &amp;lt;path&amp;gt;&lt;div&gt;provided?&lt;/div&gt;" style="rhombus;whiteSpace=wrap;html=1;shadow=0;fontFamily=Helvetica;fontSize=12;align=center;strokeWidth=1;spacing=6;spacingTop=-4;rounded=0;labelBackgroundColor=none;fillColor=#5D7F99;strokeColor=#D0CEE2;fontColor=#1A1A1A;fontStyle=1" parent="WIyWlLk6GJQsqaUBKTNV-1" vertex="1">
          <mxGeometry x="22" y="742" width="132" height="80" as="geometry" />
        </mxCell>
        <mxCell id="716T7uITC5oRyI5Owgtr-29" value="Yes" style="rounded=0;html=1;jettySize=auto;orthogonalLoop=1;fontSize=11;endArrow=block;endFill=0;endSize=8;strokeWidth=1;shadow=0;labelBackgroundColor=none;edgeStyle=orthogonalEdgeStyle;fontColor=#9A454E;strokeColor=#736CA8;fontStyle=1" parent="WIyWlLk6GJQsqaUBKTNV-1" source="716T7uITC5oRyI5Owgtr-31" target="716T7uITC5oRyI5Owgtr-32" edge="1">
          <mxGeometry x="0.0417" y="22" relative="1" as="geometry">
            <mxPoint as="offset" />
            <Array as="points">
              <mxPoint x="88" y="1032" />
            </Array>
          </mxGeometry>
        </mxCell>
        <mxCell id="716T7uITC5oRyI5Owgtr-31" value="Is&amp;nbsp;&lt;div&gt;&amp;lt;path&amp;gt;&lt;/div&gt;&lt;div&gt;absolute?&lt;br&gt;&lt;div&gt;&lt;br&gt;&lt;/div&gt;&lt;/div&gt;" style="rhombus;whiteSpace=wrap;html=1;shadow=0;fontFamily=Helvetica;fontSize=12;align=center;strokeWidth=1;spacing=6;spacingTop=-4;rounded=0;labelBackgroundColor=none;fillColor=#5D7F99;strokeColor=#D0CEE2;fontColor=#1A1A1A;fontStyle=1" parent="WIyWlLk6GJQsqaUBKTNV-1" vertex="1">
          <mxGeometry x="38" y="884" width="100" height="80" as="geometry" />
        </mxCell>
        <mxCell id="716T7uITC5oRyI5Owgtr-32" value="Normalize input folder &amp;lt;path&amp;gt;" style="rounded=0;whiteSpace=wrap;html=1;fontSize=12;glass=0;strokeWidth=1;shadow=0;labelBackgroundColor=none;fillColor=#5D7F99;strokeColor=#D0CEE2;fontColor=#1A1A1A;fontStyle=1" parent="WIyWlLk6GJQsqaUBKTNV-1" vertex="1">
          <mxGeometry x="28" y="1012" width="120" height="40" as="geometry" />
        </mxCell>
        <mxCell id="716T7uITC5oRyI5Owgtr-33" value="&amp;nbsp;inputFolder = &amp;lt;path&amp;gt;&lt;div&gt;set in configfile?&lt;/div&gt;" style="rhombus;whiteSpace=wrap;html=1;shadow=0;fontFamily=Helvetica;fontSize=12;align=center;strokeWidth=1;spacing=6;spacingTop=-4;rounded=0;labelBackgroundColor=none;fillColor=#5D7F99;strokeColor=#D0CEE2;fontColor=#1A1A1A;fontStyle=1" parent="WIyWlLk6GJQsqaUBKTNV-1" vertex="1">
          <mxGeometry x="280" y="742" width="173" height="80" as="geometry" />
        </mxCell>
        <mxCell id="716T7uITC5oRyI5Owgtr-34" value="No" style="edgeStyle=orthogonalEdgeStyle;rounded=0;html=1;jettySize=auto;orthogonalLoop=1;fontSize=11;endArrow=block;endFill=0;endSize=8;strokeWidth=1;shadow=0;labelBackgroundColor=none;entryX=0;entryY=0.5;entryDx=0;entryDy=0;fontColor=#9A454E;strokeColor=#736CA8;fontStyle=1" parent="WIyWlLk6GJQsqaUBKTNV-1" source="716T7uITC5oRyI5Owgtr-33" edge="1">
          <mxGeometry x="0.2128" y="13" relative="1" as="geometry">
            <mxPoint as="offset" />
            <mxPoint x="425" y="781.5" as="sourcePoint" />
            <mxPoint x="483" y="781.5" as="targetPoint" />
          </mxGeometry>
        </mxCell>
        <mxCell id="716T7uITC5oRyI5Owgtr-35" value="Use built-in default for frontend" style="rounded=0;whiteSpace=wrap;html=1;fontSize=12;glass=0;strokeWidth=1;shadow=0;align=center;verticalAlign=middle;fontFamily=Helvetica;labelBackgroundColor=none;fillColor=#5D7F99;strokeColor=#D0CEE2;fontColor=#1A1A1A;fontStyle=1" parent="WIyWlLk6GJQsqaUBKTNV-1" vertex="1">
          <mxGeometry x="485" y="762" width="117" height="40" as="geometry" />
        </mxCell>
        <mxCell id="716T7uITC5oRyI5Owgtr-36" value="&lt;font style=&quot;color: rgb(26, 26, 26);&quot;&gt;Make&amp;nbsp; &amp;lt;path&amp;gt; absolute with game list folder&lt;/font&gt;&lt;div&gt;&lt;span style=&quot;background-color: transparent;&quot;&gt;&lt;font style=&quot;color: rgb(26, 26, 26);&quot;&gt;&amp;nbsp;as base&lt;/font&gt;&lt;/span&gt;&lt;/div&gt;" style="rounded=0;whiteSpace=wrap;html=1;fontSize=12;glass=0;strokeWidth=1;shadow=0;align=center;verticalAlign=middle;fontFamily=Helvetica;labelBackgroundColor=none;fillColor=#5D7F99;strokeColor=#D0CEE2;fontColor=#1A1A1A;fontStyle=1" parent="WIyWlLk6GJQsqaUBKTNV-1" vertex="1">
          <mxGeometry x="162" y="900" width="140" height="48" as="geometry" />
        </mxCell>
        <mxCell id="716T7uITC5oRyI5Owgtr-37" value="Yes" style="rounded=0;html=1;jettySize=auto;orthogonalLoop=1;fontSize=11;endArrow=block;endFill=0;endSize=8;strokeWidth=1;shadow=0;labelBackgroundColor=none;edgeStyle=orthogonalEdgeStyle;exitX=0.5;exitY=1;exitDx=0;exitDy=0;fontColor=#9A454E;strokeColor=#736CA8;fontStyle=1" parent="WIyWlLk6GJQsqaUBKTNV-1" source="716T7uITC5oRyI5Owgtr-33" target="716T7uITC5oRyI5Owgtr-40" edge="1">
          <mxGeometry x="0.008" y="23" relative="1" as="geometry">
            <mxPoint as="offset" />
            <mxPoint x="383" y="822" as="sourcePoint" />
          </mxGeometry>
        </mxCell>
        <mxCell id="716T7uITC5oRyI5Owgtr-38" value="Yes" style="rounded=0;html=1;jettySize=auto;orthogonalLoop=1;fontSize=11;endArrow=block;endFill=0;endSize=8;strokeWidth=1;shadow=0;labelBackgroundColor=none;edgeStyle=orthogonalEdgeStyle;entryX=1;entryY=0.5;entryDx=0;entryDy=0;exitX=0.5;exitY=1;exitDx=0;exitDy=0;fontColor=#9A454E;strokeColor=#736CA8;fontStyle=1" parent="WIyWlLk6GJQsqaUBKTNV-1" source="716T7uITC5oRyI5Owgtr-40" target="716T7uITC5oRyI5Owgtr-32" edge="1">
          <mxGeometry x="-0.7561" y="23" relative="1" as="geometry">
            <mxPoint as="offset" />
            <mxPoint x="383" y="1024" as="targetPoint" />
            <Array as="points">
              <mxPoint x="367" y="1032" />
            </Array>
          </mxGeometry>
        </mxCell>
        <mxCell id="716T7uITC5oRyI5Owgtr-39" value="No" style="edgeStyle=orthogonalEdgeStyle;rounded=0;html=1;jettySize=auto;orthogonalLoop=1;fontSize=11;endArrow=block;endFill=0;endSize=8;strokeWidth=1;shadow=0;labelBackgroundColor=none;entryX=0;entryY=0.5;entryDx=0;entryDy=0;fontColor=#9A454E;strokeColor=#736CA8;fontStyle=1;exitX=1;exitY=0.5;exitDx=0;exitDy=0;" parent="WIyWlLk6GJQsqaUBKTNV-1" source="716T7uITC5oRyI5Owgtr-40" target="PkIG-FGSd_pqX5C8agCI-1" edge="1">
          <mxGeometry x="-0.381" y="15" relative="1" as="geometry">
            <mxPoint as="offset" />
            <mxPoint x="483" y="970" as="targetPoint" />
            <mxPoint x="440" y="890" as="sourcePoint" />
          </mxGeometry>
        </mxCell>
        <mxCell id="716T7uITC5oRyI5Owgtr-40" value="Is&amp;nbsp;&lt;div&gt;&amp;lt;path&amp;gt;&lt;/div&gt;&lt;div&gt;absolute?&lt;br&gt;&lt;div&gt;&lt;br&gt;&lt;/div&gt;&lt;/div&gt;" style="rhombus;whiteSpace=wrap;html=1;shadow=0;fontFamily=Helvetica;fontSize=12;align=center;strokeWidth=1;spacing=6;spacingTop=-4;rounded=0;labelBackgroundColor=none;fillColor=#5D7F99;strokeColor=#D0CEE2;fontColor=#1A1A1A;fontStyle=1" parent="WIyWlLk6GJQsqaUBKTNV-1" vertex="1">
          <mxGeometry x="317" y="884" width="100" height="80" as="geometry" />
        </mxCell>
        <mxCell id="716T7uITC5oRyI5Owgtr-42" value="" style="rounded=0;html=1;jettySize=auto;orthogonalLoop=1;fontSize=11;endArrow=block;endFill=0;endSize=8;strokeWidth=1;shadow=0;labelBackgroundColor=none;edgeStyle=orthogonalEdgeStyle;entryX=1;entryY=0.5;entryDx=0;entryDy=0;fontColor=default;strokeColor=#736CA8;fontStyle=1" parent="WIyWlLk6GJQsqaUBKTNV-1" target="716T7uITC5oRyI5Owgtr-32" edge="1">
          <mxGeometry y="20" relative="1" as="geometry">
            <mxPoint as="offset" />
            <mxPoint x="232" y="948" as="sourcePoint" />
            <mxPoint x="232" y="1010" as="targetPoint" />
            <Array as="points">
              <mxPoint x="232" y="1032" />
            </Array>
          </mxGeometry>
        </mxCell>
        <mxCell id="716T7uITC5oRyI5Owgtr-43" value="" style="rounded=0;html=1;jettySize=auto;orthogonalLoop=1;fontSize=11;endArrow=block;endFill=0;endSize=8;strokeWidth=1;shadow=0;labelBackgroundColor=none;edgeStyle=orthogonalEdgeStyle;entryX=1;entryY=0.5;entryDx=0;entryDy=0;fontColor=default;strokeColor=#736CA8;fontStyle=1" parent="WIyWlLk6GJQsqaUBKTNV-1" target="716T7uITC5oRyI5Owgtr-32" edge="1" source="716T7uITC5oRyI5Owgtr-41">
          <mxGeometry x="0.3333" y="20" relative="1" as="geometry">
            <mxPoint as="offset" />
            <mxPoint x="432" y="1102" as="targetPoint" />
            <mxPoint x="531" y="948" as="sourcePoint" />
            <Array as="points" />
          </mxGeometry>
        </mxCell>
        <mxCell id="716T7uITC5oRyI5Owgtr-45" value="&lt;div&gt;&lt;br&gt;&lt;/div&gt;&lt;div&gt;&lt;br&gt;&lt;/div&gt;" style="edgeStyle=orthogonalEdgeStyle;rounded=0;html=1;jettySize=auto;orthogonalLoop=1;fontSize=11;endArrow=block;endFill=0;endSize=8;strokeWidth=1;shadow=0;labelBackgroundColor=none;exitX=0.5;exitY=1;exitDx=0;exitDy=0;entryX=0.5;entryY=0;entryDx=0;entryDy=0;entryPerimeter=0;fontColor=default;strokeColor=#736CA8;fontStyle=1" parent="WIyWlLk6GJQsqaUBKTNV-1" source="716T7uITC5oRyI5Owgtr-14" target="716T7uITC5oRyI5Owgtr-56" edge="1">
          <mxGeometry y="10" relative="1" as="geometry">
            <mxPoint as="offset" />
            <mxPoint x="540" y="260" as="sourcePoint" />
            <mxPoint x="540" y="280" as="targetPoint" />
          </mxGeometry>
        </mxCell>
        <mxCell id="716T7uITC5oRyI5Owgtr-48" value="A" style="verticalLabelPosition=bottom;verticalAlign=top;html=1;shape=mxgraph.flowchart.on-page_reference;fontStyle=3;rounded=0;labelBackgroundColor=none;fillColor=#5D7F99;strokeColor=#D0CEE2;fontColor=#9A454E;" parent="WIyWlLk6GJQsqaUBKTNV-1" vertex="1">
          <mxGeometry x="76.5" y="520" width="23" height="20" as="geometry" />
        </mxCell>
        <mxCell id="716T7uITC5oRyI5Owgtr-53" value="" style="rounded=0;html=1;jettySize=auto;orthogonalLoop=1;fontSize=11;endArrow=block;endFill=0;endSize=8;strokeWidth=1;shadow=0;labelBackgroundColor=none;edgeStyle=orthogonalEdgeStyle;exitX=0.5;exitY=1;exitDx=0;exitDy=0;entryX=0.5;entryY=0;entryDx=0;entryDy=0;entryPerimeter=0;fontColor=default;strokeColor=#736CA8;fontStyle=1" parent="WIyWlLk6GJQsqaUBKTNV-1" source="WIyWlLk6GJQsqaUBKTNV-11" target="716T7uITC5oRyI5Owgtr-48" edge="1">
          <mxGeometry y="20" relative="1" as="geometry">
            <mxPoint as="offset" />
            <mxPoint x="150" y="550" as="sourcePoint" />
            <mxPoint x="90" y="520" as="targetPoint" />
          </mxGeometry>
        </mxCell>
        <mxCell id="716T7uITC5oRyI5Owgtr-54" value="A" style="verticalLabelPosition=bottom;verticalAlign=middle;html=1;shape=mxgraph.flowchart.on-page_reference;rounded=0;shadow=0;glass=0;strokeWidth=1;align=center;fontFamily=Helvetica;fontSize=12;fontStyle=3;labelBackgroundColor=none;fillColor=#5D7F99;strokeColor=#D0CEE2;fontColor=#9A454E;" parent="WIyWlLk6GJQsqaUBKTNV-1" vertex="1">
          <mxGeometry x="109" y="689" width="23" height="20" as="geometry" />
        </mxCell>
        <mxCell id="716T7uITC5oRyI5Owgtr-55" value="" style="rounded=0;html=1;jettySize=auto;orthogonalLoop=1;fontSize=11;endArrow=block;endFill=0;endSize=8;strokeWidth=1;shadow=0;labelBackgroundColor=none;edgeStyle=orthogonalEdgeStyle;exitX=0;exitY=0.5;exitDx=0;exitDy=0;exitPerimeter=0;fontColor=default;strokeColor=#736CA8;fontStyle=1" parent="WIyWlLk6GJQsqaUBKTNV-1" source="716T7uITC5oRyI5Owgtr-54" target="716T7uITC5oRyI5Owgtr-28" edge="1">
          <mxGeometry y="20" relative="1" as="geometry">
            <mxPoint as="offset" />
            <mxPoint x="98" y="832" as="sourcePoint" />
            <mxPoint x="98" y="894" as="targetPoint" />
          </mxGeometry>
        </mxCell>
        <mxCell id="716T7uITC5oRyI5Owgtr-56" value="A" style="verticalLabelPosition=bottom;verticalAlign=middle;html=1;shape=mxgraph.flowchart.on-page_reference;rounded=0;shadow=0;glass=0;strokeWidth=1;align=center;fontFamily=Helvetica;fontSize=12;fontStyle=3;labelBackgroundColor=none;fillColor=#5D7F99;strokeColor=#D0CEE2;fontColor=#9A454E;" parent="WIyWlLk6GJQsqaUBKTNV-1" vertex="1">
          <mxGeometry x="530" y="280" width="23" height="20" as="geometry" />
        </mxCell>
        <mxCell id="716T7uITC5oRyI5Owgtr-58" value="&lt;div&gt;&lt;div&gt;Frontend allows relative paths?&lt;/div&gt;&lt;/div&gt;" style="rhombus;whiteSpace=wrap;html=1;shadow=0;fontFamily=Helvetica;fontSize=12;align=center;strokeWidth=1;spacing=6;spacingTop=-4;rounded=0;labelBackgroundColor=none;fillColor=#5D7F99;strokeColor=#D0CEE2;fontColor=#1A1A1A;fontStyle=1" parent="WIyWlLk6GJQsqaUBKTNV-1" vertex="1">
          <mxGeometry x="22" y="1782" width="132" height="80" as="geometry" />
        </mxCell>
        <mxCell id="716T7uITC5oRyI5Owgtr-61" value="&lt;div&gt;&lt;div&gt;Config&lt;/div&gt;&lt;div&gt;relativePaths is true?&lt;/div&gt;&lt;/div&gt;" style="rhombus;whiteSpace=wrap;html=1;shadow=0;fontFamily=Helvetica;fontSize=12;align=center;strokeWidth=1;spacing=6;spacingTop=-4;rounded=0;labelBackgroundColor=none;fillColor=#5D7F99;strokeColor=#D0CEE2;fontColor=#1A1A1A;fontStyle=1" parent="WIyWlLk6GJQsqaUBKTNV-1" vertex="1">
          <mxGeometry x="32" y="1892" width="112" height="80" as="geometry" />
        </mxCell>
        <mxCell id="716T7uITC5oRyI5Owgtr-63" value="End" style="strokeWidth=2;html=1;shape=mxgraph.flowchart.terminator;whiteSpace=wrap;rounded=0;labelBackgroundColor=none;fillColor=#5D7F99;strokeColor=#D0CEE2;fontColor=#1A1A1A;fontStyle=1" parent="WIyWlLk6GJQsqaUBKTNV-1" vertex="1">
          <mxGeometry x="246" y="2030" width="70" height="40" as="geometry" />
        </mxCell>
        <mxCell id="716T7uITC5oRyI5Owgtr-64" value="&lt;u&gt;Gamelist output&lt;/u&gt;&lt;div&gt;Paths to ROMs and media files are relative to the gamelist folder for Pegasus and relative to input folder for&amp;nbsp;&lt;span style=&quot;background-color: transparent; color: light-dark(rgb(26, 26, 26), rgb(215, 215, 215));&quot;&gt;ES and other frontends&lt;/span&gt;&lt;/div&gt;" style="rounded=0;whiteSpace=wrap;html=1;fontSize=12;glass=0;strokeWidth=1;shadow=0;labelBackgroundColor=none;fillColor=#5D7F99;strokeColor=#D0CEE2;fontColor=#1A1A1A;fontStyle=1" parent="WIyWlLk6GJQsqaUBKTNV-1" vertex="1">
          <mxGeometry x="20" y="2010" width="200" height="80" as="geometry" />
        </mxCell>
        <mxCell id="716T7uITC5oRyI5Owgtr-65" value="No" style="rounded=0;html=1;jettySize=auto;orthogonalLoop=1;fontSize=11;endArrow=block;endFill=0;endSize=8;strokeWidth=1;shadow=0;labelBackgroundColor=none;edgeStyle=orthogonalEdgeStyle;exitX=1;exitY=0.5;exitDx=0;exitDy=0;entryX=0;entryY=0.5;entryDx=0;entryDy=0;fontColor=#9A454E;strokeColor=#736CA8;fontStyle=1" parent="WIyWlLk6GJQsqaUBKTNV-1" source="716T7uITC5oRyI5Owgtr-61" target="716T7uITC5oRyI5Owgtr-66" edge="1">
          <mxGeometry x="-0.0476" y="13" relative="1" as="geometry">
            <mxPoint as="offset" />
            <Array as="points">
              <mxPoint x="200" y="1932" />
              <mxPoint x="200" y="1932" />
            </Array>
            <mxPoint x="276.33" y="1830" as="sourcePoint" />
            <mxPoint x="190" y="1950" as="targetPoint" />
          </mxGeometry>
        </mxCell>
        <mxCell id="716T7uITC5oRyI5Owgtr-66" value="Frontend output with absolute paths for game file and media file(s)" style="rounded=0;whiteSpace=wrap;html=1;fontSize=12;glass=0;strokeWidth=1;shadow=0;labelBackgroundColor=none;fillColor=#5D7F99;strokeColor=#D0CEE2;fontColor=#1A1A1A;fontStyle=1" parent="WIyWlLk6GJQsqaUBKTNV-1" vertex="1">
          <mxGeometry x="213" y="1902" width="136" height="60" as="geometry" />
        </mxCell>
        <mxCell id="716T7uITC5oRyI5Owgtr-67" value="No" style="rounded=0;html=1;jettySize=auto;orthogonalLoop=1;fontSize=11;endArrow=block;endFill=0;endSize=8;strokeWidth=1;shadow=0;labelBackgroundColor=none;edgeStyle=orthogonalEdgeStyle;exitX=1;exitY=0.5;exitDx=0;exitDy=0;entryX=0.5;entryY=0;entryDx=0;entryDy=0;fontColor=#9A454E;strokeColor=#736CA8;fontStyle=1" parent="WIyWlLk6GJQsqaUBKTNV-1" source="716T7uITC5oRyI5Owgtr-58" target="716T7uITC5oRyI5Owgtr-66" edge="1">
          <mxGeometry x="-0.3824" y="13" relative="1" as="geometry">
            <mxPoint as="offset" />
            <Array as="points">
              <mxPoint x="281" y="1822" />
            </Array>
            <mxPoint x="157" y="1810" as="sourcePoint" />
            <mxPoint x="197" y="1840" as="targetPoint" />
          </mxGeometry>
        </mxCell>
        <mxCell id="716T7uITC5oRyI5Owgtr-72" value="" style="rounded=0;html=1;jettySize=auto;orthogonalLoop=1;fontSize=11;endArrow=block;endFill=0;endSize=8;strokeWidth=1;shadow=0;labelBackgroundColor=none;edgeStyle=orthogonalEdgeStyle;entryX=0.5;entryY=0;entryDx=0;entryDy=0;entryPerimeter=0;exitX=0.5;exitY=1;exitDx=0;exitDy=0;fontColor=default;strokeColor=#736CA8;fontStyle=1" parent="WIyWlLk6GJQsqaUBKTNV-1" source="716T7uITC5oRyI5Owgtr-66" target="716T7uITC5oRyI5Owgtr-63" edge="1">
          <mxGeometry y="20" relative="1" as="geometry">
            <mxPoint as="offset" />
            <mxPoint x="279" y="1950" as="sourcePoint" />
            <mxPoint x="280" y="2020" as="targetPoint" />
            <Array as="points" />
          </mxGeometry>
        </mxCell>
        <mxCell id="716T7uITC5oRyI5Owgtr-79" value="No" style="rounded=0;html=1;jettySize=auto;orthogonalLoop=1;fontSize=11;endArrow=block;endFill=0;endSize=8;strokeWidth=1;shadow=0;labelBackgroundColor=none;edgeStyle=orthogonalEdgeStyle;exitX=1;exitY=0.5;exitDx=0;exitDy=0;entryX=0;entryY=0.5;entryDx=0;entryDy=0;fontColor=#9A454E;strokeColor=#736CA8;fontStyle=1" parent="WIyWlLk6GJQsqaUBKTNV-1" target="716T7uITC5oRyI5Owgtr-36" edge="1">
          <mxGeometry x="-0.6967" y="15" relative="1" as="geometry">
            <mxPoint as="offset" />
            <Array as="points" />
            <mxPoint x="136" y="923.6800000000001" as="sourcePoint" />
            <mxPoint x="205" y="923.6800000000001" as="targetPoint" />
          </mxGeometry>
        </mxCell>
        <mxCell id="716T7uITC5oRyI5Owgtr-82" value="Yes" style="rounded=0;html=1;jettySize=auto;orthogonalLoop=1;fontSize=11;endArrow=block;endFill=0;endSize=8;strokeWidth=1;shadow=0;labelBackgroundColor=none;edgeStyle=orthogonalEdgeStyle;entryX=0.5;entryY=0;entryDx=0;entryDy=0;fontColor=#9A454E;strokeColor=#736CA8;fontStyle=1" parent="WIyWlLk6GJQsqaUBKTNV-1" target="716T7uITC5oRyI5Owgtr-61" edge="1">
          <mxGeometry x="0.0158" y="22" relative="1" as="geometry">
            <mxPoint as="offset" />
            <mxPoint x="87.68" y="1862" as="sourcePoint" />
            <mxPoint x="88" y="1894" as="targetPoint" />
          </mxGeometry>
        </mxCell>
        <mxCell id="716T7uITC5oRyI5Owgtr-83" value="Yes" style="rounded=0;html=1;jettySize=auto;orthogonalLoop=1;fontSize=11;endArrow=block;endFill=0;endSize=8;strokeWidth=1;shadow=0;labelBackgroundColor=none;edgeStyle=orthogonalEdgeStyle;entryX=0.345;entryY=0.005;entryDx=0;entryDy=0;entryPerimeter=0;fontColor=#9A454E;strokeColor=#736CA8;fontStyle=1" parent="WIyWlLk6GJQsqaUBKTNV-1" edge="1">
          <mxGeometry x="0.0297" y="21" relative="1" as="geometry">
            <mxPoint as="offset" />
            <mxPoint x="86.68" y="1972" as="sourcePoint" />
            <mxPoint x="88" y="2010.4" as="targetPoint" />
            <Array as="points">
              <mxPoint x="88" y="1972" />
            </Array>
          </mxGeometry>
        </mxCell>
        <mxCell id="716T7uITC5oRyI5Owgtr-84" value="" style="rounded=0;html=1;jettySize=auto;orthogonalLoop=1;fontSize=11;endArrow=block;endFill=0;endSize=8;strokeWidth=1;shadow=0;labelBackgroundColor=none;edgeStyle=orthogonalEdgeStyle;entryX=0.5;entryY=0;entryDx=0;entryDy=0;fontColor=default;strokeColor=#736CA8;fontStyle=1" parent="WIyWlLk6GJQsqaUBKTNV-1" edge="1">
          <mxGeometry y="20" relative="1" as="geometry">
            <mxPoint as="offset" />
            <mxPoint x="544" y="802" as="sourcePoint" />
            <mxPoint x="543.5" y="829" as="targetPoint" />
            <Array as="points">
              <mxPoint x="544" y="829" />
            </Array>
          </mxGeometry>
        </mxCell>
        <mxCell id="NXNk40Ljr5GX-lerWOVr-0" value="" style="rounded=0;html=1;jettySize=auto;orthogonalLoop=1;fontSize=11;endArrow=block;endFill=0;endSize=8;strokeWidth=1;shadow=0;labelBackgroundColor=none;edgeStyle=orthogonalEdgeStyle;exitX=0.5;exitY=1;exitDx=0;exitDy=0;exitPerimeter=0;fontColor=default;strokeColor=#736CA8;fontStyle=1" parent="WIyWlLk6GJQsqaUBKTNV-1" source="716T7uITC5oRyI5Owgtr-1" edge="1">
          <mxGeometry relative="1" as="geometry">
            <mxPoint x="85.66" y="50" as="sourcePoint" />
            <mxPoint x="85.66" y="100" as="targetPoint" />
          </mxGeometry>
        </mxCell>
        <mxCell id="NXNk40Ljr5GX-lerWOVr-2" value="INPUT FOLDER" style="shape=callout;whiteSpace=wrap;html=1;perimeter=calloutPerimeter;base=16;rounded=0;labelBackgroundColor=none;fillColor=#d0cee2;strokeColor=#56517e;fontStyle=1" parent="WIyWlLk6GJQsqaUBKTNV-1" vertex="1">
          <mxGeometry x="510" y="609" width="110" height="60" as="geometry" />
        </mxCell>
        <mxCell id="NXNk40Ljr5GX-lerWOVr-3" value="Frontends supporting relative paths in the gamelist output are currently ES, ES-DE, Retrobat and Pegasus" style="shape=callout;whiteSpace=wrap;html=1;perimeter=calloutPerimeter;size=29;position=0;position2=0;base=11;rounded=0;labelBackgroundColor=none;fillColor=#5D7F99;strokeColor=#D0CEE2;fontColor=#1A1A1A;fontStyle=1" parent="WIyWlLk6GJQsqaUBKTNV-1" vertex="1">
          <mxGeometry x="139" y="1729" width="230" height="81" as="geometry" />
        </mxCell>
        <mxCell id="vgmwdCEmkdbrPYk_LxWR-23" value="Yes" style="rounded=0;html=1;jettySize=auto;orthogonalLoop=1;fontSize=11;endArrow=block;endFill=0;endSize=8;strokeWidth=1;shadow=0;labelBackgroundColor=none;edgeStyle=orthogonalEdgeStyle;fontColor=#9A454E;strokeColor=#736CA8;fontStyle=1" parent="WIyWlLk6GJQsqaUBKTNV-1" source="vgmwdCEmkdbrPYk_LxWR-25" target="vgmwdCEmkdbrPYk_LxWR-27" edge="1">
          <mxGeometry y="20" relative="1" as="geometry">
            <mxPoint as="offset" />
          </mxGeometry>
        </mxCell>
        <mxCell id="vgmwdCEmkdbrPYk_LxWR-24" value="No" style="edgeStyle=orthogonalEdgeStyle;rounded=0;html=1;jettySize=auto;orthogonalLoop=1;fontSize=11;endArrow=block;endFill=0;endSize=8;strokeWidth=1;shadow=0;labelBackgroundColor=none;entryX=0;entryY=0.5;entryDx=0;entryDy=0;fontColor=#9A454E;strokeColor=#736CA8;fontStyle=1" parent="WIyWlLk6GJQsqaUBKTNV-1" source="vgmwdCEmkdbrPYk_LxWR-25" target="vgmwdCEmkdbrPYk_LxWR-29" edge="1">
          <mxGeometry x="0.0476" y="13" relative="1" as="geometry">
            <mxPoint as="offset" />
            <mxPoint x="205" y="1338" as="targetPoint" />
          </mxGeometry>
        </mxCell>
        <mxCell id="vgmwdCEmkdbrPYk_LxWR-25" value="-o &amp;lt;path&amp;gt;&lt;div&gt;provided?&lt;/div&gt;" style="rhombus;whiteSpace=wrap;html=1;shadow=0;fontFamily=Helvetica;fontSize=12;align=center;strokeWidth=1;spacing=6;spacingTop=-4;rounded=0;labelBackgroundColor=none;fillColor=#5D7F99;strokeColor=#D0CEE2;fontColor=#1A1A1A;fontStyle=1" parent="WIyWlLk6GJQsqaUBKTNV-1" vertex="1">
          <mxGeometry x="23" y="1298" width="132" height="80" as="geometry" />
        </mxCell>
        <mxCell id="vgmwdCEmkdbrPYk_LxWR-26" value="Yes" style="rounded=0;html=1;jettySize=auto;orthogonalLoop=1;fontSize=11;endArrow=block;endFill=0;endSize=8;strokeWidth=1;shadow=0;labelBackgroundColor=none;edgeStyle=orthogonalEdgeStyle;fontColor=#9A454E;strokeColor=#736CA8;fontStyle=1" parent="WIyWlLk6GJQsqaUBKTNV-1" source="vgmwdCEmkdbrPYk_LxWR-27" target="vgmwdCEmkdbrPYk_LxWR-28" edge="1">
          <mxGeometry x="0.0417" y="22" relative="1" as="geometry">
            <mxPoint as="offset" />
            <Array as="points">
              <mxPoint x="89" y="1588" />
            </Array>
          </mxGeometry>
        </mxCell>
        <mxCell id="vgmwdCEmkdbrPYk_LxWR-27" value="Is&amp;nbsp;&lt;div&gt;&amp;lt;path&amp;gt;&lt;/div&gt;&lt;div&gt;absolute?&lt;br&gt;&lt;div&gt;&lt;br&gt;&lt;/div&gt;&lt;/div&gt;" style="rhombus;whiteSpace=wrap;html=1;shadow=0;fontFamily=Helvetica;fontSize=12;align=center;strokeWidth=1;spacing=6;spacingTop=-4;rounded=0;labelBackgroundColor=none;fillColor=#5D7F99;strokeColor=#D0CEE2;fontColor=#1A1A1A;fontStyle=1" parent="WIyWlLk6GJQsqaUBKTNV-1" vertex="1">
          <mxGeometry x="39" y="1440" width="100" height="80" as="geometry" />
        </mxCell>
        <mxCell id="vgmwdCEmkdbrPYk_LxWR-28" value="Normalize media folder &amp;lt;path&amp;gt;" style="rounded=0;whiteSpace=wrap;html=1;fontSize=12;glass=0;strokeWidth=1;shadow=0;labelBackgroundColor=none;fillColor=#5D7F99;strokeColor=#D0CEE2;fontColor=#1A1A1A;fontStyle=1" parent="WIyWlLk6GJQsqaUBKTNV-1" vertex="1">
          <mxGeometry x="29" y="1568" width="120" height="40" as="geometry" />
        </mxCell>
        <mxCell id="vgmwdCEmkdbrPYk_LxWR-29" value="&amp;nbsp;mediaFolder = &amp;lt;path&amp;gt;&lt;div&gt;set in configfile?&lt;/div&gt;" style="rhombus;whiteSpace=wrap;html=1;shadow=0;fontFamily=Helvetica;fontSize=12;align=center;strokeWidth=1;spacing=6;spacingTop=-4;rounded=0;labelBackgroundColor=none;fillColor=#5D7F99;strokeColor=#D0CEE2;fontColor=#1A1A1A;fontStyle=1" parent="WIyWlLk6GJQsqaUBKTNV-1" vertex="1">
          <mxGeometry x="281" y="1298" width="173" height="80" as="geometry" />
        </mxCell>
        <mxCell id="vgmwdCEmkdbrPYk_LxWR-30" value="No" style="edgeStyle=orthogonalEdgeStyle;rounded=0;html=1;jettySize=auto;orthogonalLoop=1;fontSize=11;endArrow=block;endFill=0;endSize=8;strokeWidth=1;shadow=0;labelBackgroundColor=none;entryX=0;entryY=0.5;entryDx=0;entryDy=0;fontColor=#9A454E;strokeColor=#736CA8;fontStyle=1" parent="WIyWlLk6GJQsqaUBKTNV-1" source="vgmwdCEmkdbrPYk_LxWR-29" edge="1">
          <mxGeometry x="0.2128" y="13" relative="1" as="geometry">
            <mxPoint as="offset" />
            <mxPoint x="426" y="1337.5" as="sourcePoint" />
            <mxPoint x="484" y="1337.5" as="targetPoint" />
          </mxGeometry>
        </mxCell>
        <mxCell id="vgmwdCEmkdbrPYk_LxWR-31" value="Use built-in default for frontend" style="rounded=0;whiteSpace=wrap;html=1;fontSize=12;glass=0;strokeWidth=1;shadow=0;align=center;verticalAlign=middle;fontFamily=Helvetica;labelBackgroundColor=none;fillColor=#5D7F99;strokeColor=#D0CEE2;fontColor=#1A1A1A;fontStyle=1" parent="WIyWlLk6GJQsqaUBKTNV-1" vertex="1">
          <mxGeometry x="486" y="1318" width="117" height="40" as="geometry" />
        </mxCell>
        <mxCell id="vgmwdCEmkdbrPYk_LxWR-32" value="&lt;font style=&quot;color: rgb(26, 26, 26);&quot;&gt;Make&amp;nbsp; &amp;lt;path&amp;gt; absolute with game list folder&lt;/font&gt;&lt;div&gt;&lt;span style=&quot;background-color: transparent;&quot;&gt;&lt;font style=&quot;color: rgb(26, 26, 26);&quot;&gt;&amp;nbsp;as base&lt;/font&gt;&lt;/span&gt;&lt;/div&gt;" style="rounded=0;whiteSpace=wrap;html=1;fontSize=12;glass=0;strokeWidth=1;shadow=0;align=center;verticalAlign=middle;fontFamily=Helvetica;labelBackgroundColor=none;fillColor=#5D7F99;strokeColor=#D0CEE2;fontColor=#1A1A1A;fontStyle=1" parent="WIyWlLk6GJQsqaUBKTNV-1" vertex="1">
          <mxGeometry x="163" y="1456" width="140" height="48" as="geometry" />
        </mxCell>
        <mxCell id="vgmwdCEmkdbrPYk_LxWR-33" value="Yes" style="rounded=0;html=1;jettySize=auto;orthogonalLoop=1;fontSize=11;endArrow=block;endFill=0;endSize=8;strokeWidth=1;shadow=0;labelBackgroundColor=none;edgeStyle=orthogonalEdgeStyle;exitX=0.5;exitY=1;exitDx=0;exitDy=0;fontColor=#9A454E;strokeColor=#736CA8;fontStyle=1" parent="WIyWlLk6GJQsqaUBKTNV-1" source="vgmwdCEmkdbrPYk_LxWR-29" target="vgmwdCEmkdbrPYk_LxWR-36" edge="1">
          <mxGeometry x="0.008" y="23" relative="1" as="geometry">
            <mxPoint as="offset" />
            <mxPoint x="384" y="1378" as="sourcePoint" />
          </mxGeometry>
        </mxCell>
        <mxCell id="vgmwdCEmkdbrPYk_LxWR-34" value="Yes" style="rounded=0;html=1;jettySize=auto;orthogonalLoop=1;fontSize=11;endArrow=block;endFill=0;endSize=8;strokeWidth=1;shadow=0;labelBackgroundColor=none;edgeStyle=orthogonalEdgeStyle;entryX=1;entryY=0.5;entryDx=0;entryDy=0;exitX=0.5;exitY=1;exitDx=0;exitDy=0;fontColor=#9A454E;strokeColor=#736CA8;fontStyle=1" parent="WIyWlLk6GJQsqaUBKTNV-1" edge="1">
          <mxGeometry x="-0.7561" y="23" relative="1" as="geometry">
            <mxPoint as="offset" />
            <mxPoint x="149" y="1583" as="targetPoint" />
            <Array as="points">
              <mxPoint x="368" y="1583" />
            </Array>
            <mxPoint x="368" y="1515" as="sourcePoint" />
          </mxGeometry>
        </mxCell>
        <mxCell id="vgmwdCEmkdbrPYk_LxWR-36" value="Is&amp;nbsp;&lt;div&gt;&amp;lt;path&amp;gt;&lt;/div&gt;&lt;div&gt;absolute?&lt;br&gt;&lt;div&gt;&lt;br&gt;&lt;/div&gt;&lt;/div&gt;" style="rhombus;whiteSpace=wrap;html=1;shadow=0;fontFamily=Helvetica;fontSize=12;align=center;strokeWidth=1;spacing=6;spacingTop=-4;rounded=0;labelBackgroundColor=none;fillColor=#5D7F99;strokeColor=#D0CEE2;fontColor=#1A1A1A;fontStyle=1" parent="WIyWlLk6GJQsqaUBKTNV-1" vertex="1">
          <mxGeometry x="318" y="1440" width="100" height="80" as="geometry" />
        </mxCell>
        <mxCell id="vgmwdCEmkdbrPYk_LxWR-37" value="Make&amp;nbsp; &amp;lt;path&amp;gt; absolute with gameListFolder&amp;nbsp;&lt;div&gt;as base&lt;/div&gt;" style="rounded=0;whiteSpace=wrap;html=1;fontSize=12;glass=0;strokeWidth=1;shadow=0;align=center;verticalAlign=middle;fontFamily=Helvetica;labelBackgroundColor=none;fillColor=#5D7F99;strokeColor=#D0CEE2;fontColor=#1A1A1A;fontStyle=1" parent="WIyWlLk6GJQsqaUBKTNV-1" vertex="1">
          <mxGeometry x="419" y="1559" width="137" height="48" as="geometry" />
        </mxCell>
        <mxCell id="vgmwdCEmkdbrPYk_LxWR-38" value="" style="rounded=0;html=1;jettySize=auto;orthogonalLoop=1;fontSize=11;endArrow=block;endFill=0;endSize=8;strokeWidth=1;shadow=0;labelBackgroundColor=none;edgeStyle=orthogonalEdgeStyle;entryX=1;entryY=0.5;entryDx=0;entryDy=0;fontColor=default;strokeColor=#736CA8;fontStyle=1" parent="WIyWlLk6GJQsqaUBKTNV-1" edge="1">
          <mxGeometry y="20" relative="1" as="geometry">
            <mxPoint as="offset" />
            <mxPoint x="233" y="1499" as="sourcePoint" />
            <mxPoint x="149" y="1583" as="targetPoint" />
            <Array as="points">
              <mxPoint x="233" y="1583" />
            </Array>
          </mxGeometry>
        </mxCell>
        <mxCell id="vgmwdCEmkdbrPYk_LxWR-40" value="B" style="verticalLabelPosition=bottom;verticalAlign=middle;html=1;shape=mxgraph.flowchart.on-page_reference;rounded=0;shadow=0;glass=0;strokeWidth=1;align=center;fontFamily=Helvetica;fontSize=12;fontStyle=3;labelBackgroundColor=none;fillColor=#5D7F99;strokeColor=#D0CEE2;fontColor=#9A454E;" parent="WIyWlLk6GJQsqaUBKTNV-1" vertex="1">
          <mxGeometry x="109" y="1245" width="23" height="20" as="geometry" />
        </mxCell>
        <mxCell id="vgmwdCEmkdbrPYk_LxWR-41" value="" style="rounded=0;html=1;jettySize=auto;orthogonalLoop=1;fontSize=11;endArrow=block;endFill=0;endSize=8;strokeWidth=1;shadow=0;labelBackgroundColor=none;edgeStyle=orthogonalEdgeStyle;exitX=0;exitY=0.5;exitDx=0;exitDy=0;exitPerimeter=0;fontColor=default;strokeColor=#736CA8;fontStyle=1" parent="WIyWlLk6GJQsqaUBKTNV-1" source="vgmwdCEmkdbrPYk_LxWR-40" target="vgmwdCEmkdbrPYk_LxWR-25" edge="1">
          <mxGeometry y="20" relative="1" as="geometry">
            <mxPoint as="offset" />
            <mxPoint x="99" y="1388" as="sourcePoint" />
            <mxPoint x="99" y="1450" as="targetPoint" />
          </mxGeometry>
        </mxCell>
        <mxCell id="vgmwdCEmkdbrPYk_LxWR-43" value="No" style="rounded=0;html=1;jettySize=auto;orthogonalLoop=1;fontSize=11;endArrow=block;endFill=0;endSize=8;strokeWidth=1;shadow=0;labelBackgroundColor=none;edgeStyle=orthogonalEdgeStyle;exitX=1;exitY=0.5;exitDx=0;exitDy=0;entryX=0;entryY=0.5;entryDx=0;entryDy=0;fontColor=#9A454E;strokeColor=#736CA8;fontStyle=1" parent="WIyWlLk6GJQsqaUBKTNV-1" target="vgmwdCEmkdbrPYk_LxWR-32" edge="1">
          <mxGeometry x="-0.6967" y="15" relative="1" as="geometry">
            <mxPoint as="offset" />
            <Array as="points" />
            <mxPoint x="137" y="1479.68" as="sourcePoint" />
            <mxPoint x="206" y="1479.68" as="targetPoint" />
          </mxGeometry>
        </mxCell>
        <mxCell id="vgmwdCEmkdbrPYk_LxWR-49" value="B" style="verticalLabelPosition=bottom;verticalAlign=middle;html=1;shape=mxgraph.flowchart.on-page_reference;rounded=0;shadow=0;glass=0;strokeWidth=1;align=center;fontFamily=Helvetica;fontSize=12;fontStyle=3;labelBackgroundColor=none;fillColor=#5D7F99;strokeColor=#D0CEE2;fontColor=#9A454E;" parent="WIyWlLk6GJQsqaUBKTNV-1" vertex="1">
          <mxGeometry x="532" y="828" width="23" height="20" as="geometry" />
        </mxCell>
        <mxCell id="vgmwdCEmkdbrPYk_LxWR-50" value="B" style="verticalLabelPosition=bottom;verticalAlign=top;html=1;shape=mxgraph.flowchart.on-page_reference;fontStyle=3;rounded=0;labelBackgroundColor=none;fillColor=#5D7F99;strokeColor=#D0CEE2;fontColor=#9A454E;" parent="WIyWlLk6GJQsqaUBKTNV-1" vertex="1">
          <mxGeometry x="76.5" y="1079" width="23" height="20" as="geometry" />
        </mxCell>
        <mxCell id="vgmwdCEmkdbrPYk_LxWR-51" value="" style="rounded=0;html=1;jettySize=auto;orthogonalLoop=1;fontSize=11;endArrow=block;endFill=0;endSize=8;strokeWidth=1;shadow=0;labelBackgroundColor=none;edgeStyle=orthogonalEdgeStyle;exitX=0.5;exitY=1;exitDx=0;exitDy=0;entryX=0.5;entryY=0;entryDx=0;entryDy=0;entryPerimeter=0;fontColor=default;strokeColor=#736CA8;fontStyle=1" parent="WIyWlLk6GJQsqaUBKTNV-1" source="716T7uITC5oRyI5Owgtr-32" target="vgmwdCEmkdbrPYk_LxWR-50" edge="1">
          <mxGeometry y="20" relative="1" as="geometry">
            <mxPoint as="offset" />
            <mxPoint x="91" y="1059" as="sourcePoint" />
            <mxPoint x="90" y="1079" as="targetPoint" />
          </mxGeometry>
        </mxCell>
        <mxCell id="vgmwdCEmkdbrPYk_LxWR-53" value="" style="rounded=0;html=1;jettySize=auto;orthogonalLoop=1;fontSize=11;endArrow=block;endFill=0;endSize=8;strokeWidth=1;shadow=0;labelBackgroundColor=none;edgeStyle=orthogonalEdgeStyle;entryX=0.5;entryY=0;entryDx=0;entryDy=0;fontColor=default;strokeColor=#736CA8;fontStyle=1" parent="WIyWlLk6GJQsqaUBKTNV-1" edge="1">
          <mxGeometry y="20" relative="1" as="geometry">
            <mxPoint as="offset" />
            <mxPoint x="544" y="1358" as="sourcePoint" />
            <mxPoint x="543.5" y="1385" as="targetPoint" />
            <Array as="points">
              <mxPoint x="544" y="1385" />
            </Array>
          </mxGeometry>
        </mxCell>
        <mxCell id="vgmwdCEmkdbrPYk_LxWR-54" value="C" style="verticalLabelPosition=bottom;verticalAlign=middle;html=1;shape=mxgraph.flowchart.on-page_reference;rounded=0;shadow=0;glass=0;strokeWidth=1;align=center;fontFamily=Helvetica;fontSize=12;fontStyle=3;labelBackgroundColor=none;fillColor=#5D7F99;strokeColor=#D0CEE2;fontColor=#9A454E;" parent="WIyWlLk6GJQsqaUBKTNV-1" vertex="1">
          <mxGeometry x="532" y="1384" width="23" height="20" as="geometry" />
        </mxCell>
        <mxCell id="vgmwdCEmkdbrPYk_LxWR-56" value="C" style="verticalLabelPosition=bottom;verticalAlign=middle;html=1;shape=mxgraph.flowchart.on-page_reference;rounded=0;shadow=0;glass=0;strokeWidth=1;align=center;fontFamily=Helvetica;fontSize=12;fontStyle=3;labelBackgroundColor=none;fillColor=#5D7F99;strokeColor=#D0CEE2;fontColor=#9A454E;" parent="WIyWlLk6GJQsqaUBKTNV-1" vertex="1">
          <mxGeometry x="104" y="1729" width="23" height="20" as="geometry" />
        </mxCell>
        <mxCell id="vgmwdCEmkdbrPYk_LxWR-57" value="" style="rounded=0;html=1;jettySize=auto;orthogonalLoop=1;fontSize=11;endArrow=block;endFill=0;endSize=8;strokeWidth=1;shadow=0;labelBackgroundColor=none;edgeStyle=orthogonalEdgeStyle;exitX=0;exitY=0.5;exitDx=0;exitDy=0;exitPerimeter=0;entryX=0.5;entryY=0;entryDx=0;entryDy=0;fontColor=default;strokeColor=#736CA8;fontStyle=1" parent="WIyWlLk6GJQsqaUBKTNV-1" source="vgmwdCEmkdbrPYk_LxWR-56" target="716T7uITC5oRyI5Owgtr-58" edge="1">
          <mxGeometry y="20" relative="1" as="geometry">
            <mxPoint as="offset" />
            <mxPoint x="99" y="1872" as="sourcePoint" />
            <mxPoint x="89" y="1782" as="targetPoint" />
            <Array as="points">
              <mxPoint x="88" y="1739" />
            </Array>
          </mxGeometry>
        </mxCell>
        <mxCell id="vgmwdCEmkdbrPYk_LxWR-59" value="C" style="verticalLabelPosition=bottom;verticalAlign=top;html=1;shape=mxgraph.flowchart.on-page_reference;fontStyle=3;rounded=0;labelBackgroundColor=none;fillColor=#5D7F99;strokeColor=#D0CEE2;fontColor=#9A454E;" parent="WIyWlLk6GJQsqaUBKTNV-1" vertex="1">
          <mxGeometry x="77.5" y="1635" width="23" height="20" as="geometry" />
        </mxCell>
        <mxCell id="vgmwdCEmkdbrPYk_LxWR-60" value="" style="rounded=0;html=1;jettySize=auto;orthogonalLoop=1;fontSize=11;endArrow=block;endFill=0;endSize=8;strokeWidth=1;shadow=0;labelBackgroundColor=none;edgeStyle=orthogonalEdgeStyle;exitX=0.5;exitY=1;exitDx=0;exitDy=0;entryX=0.5;entryY=0;entryDx=0;entryDy=0;entryPerimeter=0;fontColor=default;strokeColor=#736CA8;fontStyle=1" parent="WIyWlLk6GJQsqaUBKTNV-1" source="vgmwdCEmkdbrPYk_LxWR-28" target="vgmwdCEmkdbrPYk_LxWR-59" edge="1">
          <mxGeometry y="20" relative="1" as="geometry">
            <mxPoint as="offset" />
            <mxPoint x="88" y="1608" as="sourcePoint" />
            <mxPoint x="90" y="1635" as="targetPoint" />
          </mxGeometry>
        </mxCell>
        <mxCell id="vgmwdCEmkdbrPYk_LxWR-64" value="GAMELIST FOLDER" style="shape=callout;whiteSpace=wrap;html=1;perimeter=calloutPerimeter;base=16;rounded=0;labelBackgroundColor=none;fillColor=#d0cee2;strokeColor=#56517e;fontStyle=1;" parent="WIyWlLk6GJQsqaUBKTNV-1" vertex="1">
          <mxGeometry x="480" y="103" width="140" height="57" as="geometry" />
        </mxCell>
        <mxCell id="vgmwdCEmkdbrPYk_LxWR-68" value="MEDIA FOLDER" style="shape=callout;whiteSpace=wrap;html=1;perimeter=calloutPerimeter;base=16;rounded=0;labelBackgroundColor=none;fillColor=#d0cee2;strokeColor=#56517e;fontStyle=1" parent="WIyWlLk6GJQsqaUBKTNV-1" vertex="1">
          <mxGeometry x="510" y="1169" width="110" height="60" as="geometry" />
        </mxCell>
        <mxCell id="MKrwH4ibXgmmTD7GENQE-1" value="&lt;font style=&quot;&quot;&gt;No&lt;/font&gt;" style="edgeStyle=orthogonalEdgeStyle;rounded=0;html=1;jettySize=auto;orthogonalLoop=1;fontSize=11;endArrow=block;endFill=0;endSize=8;strokeWidth=1;shadow=0;labelBackgroundColor=none;entryX=0;entryY=0.5;entryDx=0;entryDy=0;fontColor=#9A454E;strokeColor=#736CA8;fontStyle=1" parent="WIyWlLk6GJQsqaUBKTNV-1" target="716T7uITC5oRyI5Owgtr-20" edge="1">
          <mxGeometry x="-0.64" y="10" relative="1" as="geometry">
            <mxPoint as="offset" />
            <mxPoint x="425" y="371.8" as="sourcePoint" />
            <mxPoint x="457" y="371.8" as="targetPoint" />
            <Array as="points" />
          </mxGeometry>
        </mxCell>
        <mxCell id="MKrwH4ibXgmmTD7GENQE-2" value="&lt;font style=&quot;&quot;&gt;No&lt;/font&gt;" style="edgeStyle=orthogonalEdgeStyle;rounded=0;html=1;jettySize=auto;orthogonalLoop=1;fontSize=11;endArrow=block;endFill=0;endSize=8;strokeWidth=1;shadow=0;labelBackgroundColor=none;entryX=0;entryY=0.5;entryDx=0;entryDy=0;fontColor=#9A454E;strokeColor=#736CA8;fontStyle=1" parent="WIyWlLk6GJQsqaUBKTNV-1" target="716T7uITC5oRyI5Owgtr-15" edge="1">
          <mxGeometry x="-0.64" y="10" relative="1" as="geometry">
            <mxPoint as="offset" />
            <mxPoint x="136" y="371.8" as="sourcePoint" />
            <mxPoint x="168" y="371.8" as="targetPoint" />
            <Array as="points" />
          </mxGeometry>
        </mxCell>
        <mxCell id="716T7uITC5oRyI5Owgtr-41" value="Make&amp;nbsp; &amp;lt;path&amp;gt; absolute with gameListFolder&amp;nbsp;&lt;div&gt;as base&lt;/div&gt;" style="rounded=0;whiteSpace=wrap;html=1;fontSize=12;glass=0;strokeWidth=1;shadow=0;align=center;verticalAlign=middle;fontFamily=Helvetica;labelBackgroundColor=none;fillColor=#5D7F99;strokeColor=#D0CEE2;fontColor=#1A1A1A;fontStyle=1" parent="WIyWlLk6GJQsqaUBKTNV-1" vertex="1">
          <mxGeometry x="408.5" y="1008" width="137" height="48" as="geometry" />
        </mxCell>
        <mxCell id="PkIG-FGSd_pqX5C8agCI-1" value="&lt;div&gt;Is&amp;nbsp;&lt;span style=&quot;background-color: transparent; color: light-dark(rgb(26, 26, 26), rgb(215, 215, 215));&quot;&gt;&quot;Pegasus&quot;&lt;/span&gt;&lt;/div&gt;&lt;div&gt;&lt;span style=&quot;background-color: transparent; color: light-dark(rgb(26, 26, 26), rgb(215, 215, 215));&quot;&gt;frontend ?&lt;/span&gt;&lt;/div&gt;" style="rhombus;whiteSpace=wrap;html=1;shadow=0;fontFamily=Helvetica;fontSize=12;align=center;strokeWidth=1;spacing=6;spacingTop=-4;rounded=0;labelBackgroundColor=none;fillColor=#5D7F99;strokeColor=#D0CEE2;fontColor=#1A1A1A;fontStyle=1" vertex="1" parent="WIyWlLk6GJQsqaUBKTNV-1">
          <mxGeometry x="432" y="884" width="100" height="80" as="geometry" />
        </mxCell>
        <mxCell id="PkIG-FGSd_pqX5C8agCI-2" value="Yes" style="rounded=0;html=1;jettySize=auto;orthogonalLoop=1;fontSize=11;endArrow=block;endFill=0;endSize=8;strokeWidth=1;shadow=0;labelBackgroundColor=none;edgeStyle=orthogonalEdgeStyle;exitX=0.5;exitY=1;exitDx=0;exitDy=0;fontColor=#9A454E;strokeColor=#736CA8;fontStyle=1;entryX=0.541;entryY=-0.014;entryDx=0;entryDy=0;entryPerimeter=0;" edge="1" parent="WIyWlLk6GJQsqaUBKTNV-1" source="PkIG-FGSd_pqX5C8agCI-1" target="716T7uITC5oRyI5Owgtr-41">
          <mxGeometry x="0.0296" y="17" relative="1" as="geometry">
            <mxPoint as="offset" />
            <mxPoint x="544.33" y="970" as="sourcePoint" />
            <mxPoint x="544.33" y="1032" as="targetPoint" />
          </mxGeometry>
        </mxCell>
        <mxCell id="PkIG-FGSd_pqX5C8agCI-3" value="No" style="edgeStyle=orthogonalEdgeStyle;rounded=0;html=1;jettySize=auto;orthogonalLoop=1;fontSize=11;endArrow=block;endFill=0;endSize=8;strokeWidth=1;shadow=0;labelBackgroundColor=none;entryX=0;entryY=0.5;entryDx=0;entryDy=0;fontColor=#9A454E;strokeColor=#736CA8;fontStyle=1;exitX=1;exitY=0.5;exitDx=0;exitDy=0;" edge="1" parent="WIyWlLk6GJQsqaUBKTNV-1" source="PkIG-FGSd_pqX5C8agCI-1" target="PkIG-FGSd_pqX5C8agCI-4">
          <mxGeometry x="-0.381" y="15" relative="1" as="geometry">
            <mxPoint as="offset" />
            <mxPoint x="549" y="923.83" as="targetPoint" />
            <mxPoint x="534" y="923.83" as="sourcePoint" />
          </mxGeometry>
        </mxCell>
        <mxCell id="PkIG-FGSd_pqX5C8agCI-4" value="Invalid config,&lt;div&gt;Skyscraper ends&lt;/div&gt;" style="rounded=0;whiteSpace=wrap;html=1;fontSize=12;glass=0;strokeWidth=1;shadow=0;align=center;verticalAlign=middle;fontFamily=Helvetica;labelBackgroundColor=none;fillColor=#5D7F99;strokeColor=#D0CEE2;fontColor=#1A1A1A;fontStyle=1" vertex="1" parent="WIyWlLk6GJQsqaUBKTNV-1">
          <mxGeometry x="545.5" y="895" width="69.5" height="58" as="geometry" />
        </mxCell>
        <mxCell id="PkIG-FGSd_pqX5C8agCI-5" value="End" style="strokeWidth=2;html=1;shape=mxgraph.flowchart.terminator;whiteSpace=wrap;rounded=0;labelBackgroundColor=none;fillColor=#5D7F99;strokeColor=#D0CEE2;fontColor=#1A1A1A;fontStyle=1" vertex="1" parent="WIyWlLk6GJQsqaUBKTNV-1">
          <mxGeometry x="555.25" y="1021" width="50" height="22" as="geometry" />
        </mxCell>
        <mxCell id="PkIG-FGSd_pqX5C8agCI-8" value="" style="rounded=0;html=1;jettySize=auto;orthogonalLoop=1;fontSize=11;endArrow=block;endFill=0;endSize=8;strokeWidth=1;shadow=0;labelBackgroundColor=none;edgeStyle=orthogonalEdgeStyle;entryX=0.5;entryY=0;entryDx=0;entryDy=0;fontColor=default;strokeColor=#736CA8;fontStyle=1;entryPerimeter=0;exitX=0.5;exitY=1;exitDx=0;exitDy=0;" edge="1" parent="WIyWlLk6GJQsqaUBKTNV-1" source="PkIG-FGSd_pqX5C8agCI-4" target="PkIG-FGSd_pqX5C8agCI-5">
          <mxGeometry y="20" relative="1" as="geometry">
            <mxPoint as="offset" />
            <mxPoint x="585.5" y="953" as="sourcePoint" />
            <mxPoint x="585" y="980" as="targetPoint" />
            <Array as="points">
              <mxPoint x="580" y="960" />
            </Array>
          </mxGeometry>
        </mxCell>
        <mxCell id="PkIG-FGSd_pqX5C8agCI-9" value="&lt;div&gt;Is&amp;nbsp;&lt;span style=&quot;background-color: transparent; color: light-dark(rgb(26, 26, 26), rgb(215, 215, 215));&quot;&gt;&quot;Pegasus&quot;&lt;/span&gt;&lt;/div&gt;&lt;div&gt;&lt;span style=&quot;background-color: transparent; color: light-dark(rgb(26, 26, 26), rgb(215, 215, 215));&quot;&gt;frontend ?&lt;/span&gt;&lt;/div&gt;" style="rhombus;whiteSpace=wrap;html=1;shadow=0;fontFamily=Helvetica;fontSize=12;align=center;strokeWidth=1;spacing=6;spacingTop=-4;rounded=0;labelBackgroundColor=none;fillColor=#5D7F99;strokeColor=#D0CEE2;fontColor=#1A1A1A;fontStyle=1" vertex="1" parent="WIyWlLk6GJQsqaUBKTNV-1">
          <mxGeometry x="437.5" y="1439" width="100" height="80" as="geometry" />
        </mxCell>
        <mxCell id="PkIG-FGSd_pqX5C8agCI-10" value="No" style="rounded=0;html=1;jettySize=auto;orthogonalLoop=1;fontSize=11;endArrow=block;endFill=0;endSize=8;strokeWidth=1;shadow=0;labelBackgroundColor=none;edgeStyle=orthogonalEdgeStyle;exitX=1;exitY=0.5;exitDx=0;exitDy=0;entryX=0.044;entryY=0.509;entryDx=0;entryDy=0;fontColor=#9A454E;strokeColor=#736CA8;fontStyle=1;entryPerimeter=0;" edge="1" parent="WIyWlLk6GJQsqaUBKTNV-1" target="PkIG-FGSd_pqX5C8agCI-9">
          <mxGeometry x="-0.6967" y="15" relative="1" as="geometry">
            <mxPoint as="offset" />
            <Array as="points">
              <mxPoint x="430" y="1480" />
            </Array>
            <mxPoint x="418" y="1479.8400000000001" as="sourcePoint" />
            <mxPoint x="444" y="1480.16" as="targetPoint" />
          </mxGeometry>
        </mxCell>
        <mxCell id="PkIG-FGSd_pqX5C8agCI-12" value="" style="rounded=0;html=1;jettySize=auto;orthogonalLoop=1;fontSize=11;endArrow=block;endFill=0;endSize=8;strokeWidth=1;shadow=0;labelBackgroundColor=none;edgeStyle=orthogonalEdgeStyle;exitX=0;exitY=0.5;exitDx=0;exitDy=0;fontColor=#9A454E;strokeColor=#736CA8;fontStyle=1" edge="1" parent="WIyWlLk6GJQsqaUBKTNV-1">
          <mxGeometry x="-0.7561" y="23" relative="1" as="geometry">
            <mxPoint as="offset" />
            <mxPoint x="149" y="1583" as="targetPoint" />
            <Array as="points">
              <mxPoint x="158" y="1583" />
            </Array>
            <mxPoint x="424" y="1583" as="sourcePoint" />
          </mxGeometry>
        </mxCell>
        <mxCell id="PkIG-FGSd_pqX5C8agCI-13" value="Yes" style="rounded=0;html=1;jettySize=auto;orthogonalLoop=1;fontSize=11;endArrow=block;endFill=0;endSize=8;strokeWidth=1;shadow=0;labelBackgroundColor=none;edgeStyle=orthogonalEdgeStyle;exitX=0.5;exitY=1;exitDx=0;exitDy=0;fontColor=#9A454E;strokeColor=#736CA8;fontStyle=1;entryX=0.5;entryY=0;entryDx=0;entryDy=0;" edge="1" parent="WIyWlLk6GJQsqaUBKTNV-1" source="PkIG-FGSd_pqX5C8agCI-9" target="vgmwdCEmkdbrPYk_LxWR-37">
          <mxGeometry x="0.008" y="23" relative="1" as="geometry">
            <mxPoint as="offset" />
            <mxPoint x="487.36" y="1502" as="sourcePoint" />
            <mxPoint x="487.36" y="1564" as="targetPoint" />
          </mxGeometry>
        </mxCell>
        <mxCell id="PkIG-FGSd_pqX5C8agCI-14" value="Make&amp;nbsp; &amp;lt;path&amp;gt; absolute with inputFolder&amp;nbsp;&lt;div&gt;as base&lt;/div&gt;" style="rounded=0;whiteSpace=wrap;html=1;fontSize=12;glass=0;strokeWidth=1;shadow=0;align=center;verticalAlign=middle;fontFamily=Helvetica;labelBackgroundColor=none;fillColor=#5D7F99;strokeColor=#D0CEE2;fontColor=#1A1A1A;fontStyle=1" vertex="1" parent="WIyWlLk6GJQsqaUBKTNV-1">
          <mxGeometry x="419" y="1620" width="137" height="48" as="geometry" />
        </mxCell>
        <mxCell id="PkIG-FGSd_pqX5C8agCI-16" value="" style="rounded=0;html=1;jettySize=auto;orthogonalLoop=1;fontSize=11;endArrow=block;endFill=0;endSize=8;strokeWidth=1;shadow=0;labelBackgroundColor=none;edgeStyle=orthogonalEdgeStyle;entryX=1;entryY=0.75;entryDx=0;entryDy=0;exitX=0;exitY=0.5;exitDx=0;exitDy=0;fontColor=#9A454E;strokeColor=#736CA8;fontStyle=1" edge="1" parent="WIyWlLk6GJQsqaUBKTNV-1" source="PkIG-FGSd_pqX5C8agCI-14" target="vgmwdCEmkdbrPYk_LxWR-28">
          <mxGeometry x="-0.7561" y="23" relative="1" as="geometry">
            <mxPoint as="offset" />
            <mxPoint x="159" y="1598" as="targetPoint" />
            <Array as="points">
              <mxPoint x="378" y="1644" />
              <mxPoint x="378" y="1598" />
            </Array>
            <mxPoint x="378" y="1530" as="sourcePoint" />
          </mxGeometry>
        </mxCell>
        <mxCell id="PkIG-FGSd_pqX5C8agCI-17" value="No" style="rounded=0;html=1;jettySize=auto;orthogonalLoop=1;fontSize=11;endArrow=block;endFill=0;endSize=8;strokeWidth=1;shadow=0;labelBackgroundColor=none;edgeStyle=orthogonalEdgeStyle;exitX=1;exitY=0.5;exitDx=0;exitDy=0;entryX=1.007;entryY=0.549;entryDx=0;entryDy=0;fontColor=#9A454E;strokeColor=#736CA8;fontStyle=1;entryPerimeter=0;" edge="1" parent="WIyWlLk6GJQsqaUBKTNV-1" source="PkIG-FGSd_pqX5C8agCI-9" target="PkIG-FGSd_pqX5C8agCI-14">
          <mxGeometry x="-0.6967" y="15" relative="1" as="geometry">
            <mxPoint as="offset" />
            <Array as="points">
              <mxPoint x="580" y="1479" />
              <mxPoint x="580" y="1646" />
            </Array>
            <mxPoint x="428" y="1489.8400000000001" as="sourcePoint" />
            <mxPoint x="452" y="1490" as="targetPoint" />
          </mxGeometry>
        </mxCell>
        <mxCell id="PkIG-FGSd_pqX5C8agCI-18" value="" style="rounded=0;html=1;jettySize=auto;orthogonalLoop=1;fontSize=11;endArrow=block;endFill=0;endSize=8;strokeWidth=1;shadow=0;labelBackgroundColor=none;edgeStyle=orthogonalEdgeStyle;exitX=1;exitY=0.5;exitDx=0;exitDy=0;fontColor=default;strokeColor=#736CA8;fontStyle=1;entryX=0;entryY=0.5;entryDx=0;entryDy=0;entryPerimeter=0;" edge="1" parent="WIyWlLk6GJQsqaUBKTNV-1" source="716T7uITC5oRyI5Owgtr-64" target="716T7uITC5oRyI5Owgtr-63">
          <mxGeometry y="20" relative="1" as="geometry">
            <mxPoint as="offset" />
            <mxPoint x="291" y="1972" as="sourcePoint" />
            <mxPoint x="240" y="2050" as="targetPoint" />
            <Array as="points" />
          </mxGeometry>
        </mxCell>
      </root>
    </mxGraphModel>
  </diagram>
</mxfile>
